<svg xmlns="http://www.w3.org/2000/svg" width="231.667" height="80.333" viewBox="0 0 231.667 80.333"><path fill-rule="evenodd" clip-rule="evenodd" fill="#fff" d="M77.262 38.348L67.942 53.8h8.098c1.362-4.04 3.04-5.047 7.183-4.742l6.034 4.743h8.864l-9.62-5.58c-.23-.38-.3-.76 0-1.14l13.22-4.15h-8.71L80.4 47.69c-.61.022-.817-.157-.61-.538l5.12-8.726-7.645-.075z"/><path fill-rule="evenodd" clip-rule="evenodd" fill="#BEC531" d="M70.042 42.928h-16.96c-9.802-.83-26.397 8.556-9.707 10.72l21.702.153.306-3.13c-23.874 5.67-31.223-5.9-4.28-5.66l-12.53 3.85 4.43-.02 16.295-4.12.744-1.77z"/><path fill-rule="evenodd" clip-rule="evenodd" fill="#fff" d="M128.45 50.58l-.546 3.23h-22.92c-2.013-.335-3.58-.698-4.484-1.338-5.677-4.02 5.154-9.692 15.023-9.572h17.42l-1.157 2.062-14.94-.22c-.84.08-1.88.165-2.582.285-4.99.837-9.556 4.724-5.437 6.726 1.91.82 13.376-.8 19.623-1.174z"/><path fill-rule="evenodd" clip-rule="evenodd" fill="#BEC531" d="M66.326 38.503c2.315 0 4.207.706 4.207 1.572 0 .865-1.89 1.573-4.207 1.573-2.318 0-4.21-.708-4.21-1.573 0-.866 1.892-1.572 4.21-1.572zm-13.826 0c2.316 0 4.207.706 4.207 1.572 0 .865-1.89 1.573-4.208 1.573-2.32 0-4.21-.708-4.21-1.573 0-.866 1.89-1.572 4.2-1.572z"/><path fill-rule="evenodd" clip-rule="evenodd" fill="#fff" d="M136.627 42.625l-3.597 5.93c-1.592 2.575-.89 4.17 2.682 4.978l23.55-.13 3.504-6.043c1.62-2.626 1.183-4.092-2.39-4.9l-23.75.165zm18.96 3.355c.088-.465-.066-.855-.512-1.16-2.158-.568-5.037-.35-7.65-.33-3.623.273-5.404 2.63-6.984 5.484-.07.567.09.97.58 1.198 2.16.57 5.04.35 7.66.33 3.7-.278 5.6-2.734 6.92-5.522zm13.78 5.604l-5.046-.984-1.37 2.97h13.8c13.01 0 9.94-8.923-3.26-6.27-.99.197-2.08.023-1.59-.903.66-1.258 2.86-1.593 5.62-1.742l10.09.04 1.24-2.294-11.13.01c-7.81.01-10.6 3.88-10.45 5.48.05.56.36 2.01 3.73 2.02l5.18.02c3.7.01 1.98 3.37-6.78 1.66z"/><path d="M130.614 54.558c.162 0 .295.058.406.17.113.113.168.248.168.407 0 .155-.055.29-.168.403-.11.113-.244.17-.406.17-.153 0-.287-.057-.4-.17-.113-.112-.168-.248-.168-.403 0-.16.055-.294.168-.407.113-.112.247-.17.4-.17zm-.343 2.228h.7v5.407h-.69v-5.407zm2.15 0h.7v.968c.28-.37.59-.648.92-.832.34-.183.71-.275 1.11-.275.41 0 .77.102 1.08.308.32.208.55.483.7.83.15.348.22.89.22 1.625v2.784h-.69v-2.58c0-.623-.02-1.04-.08-1.25-.08-.355-.23-.624-.46-.806-.23-.18-.53-.27-.89-.27-.42 0-.8.138-1.13.416-.33.277-.55.623-.66 1.034-.06.27-.1.76-.1 1.47v1.984h-.7v-5.406zm6.21 0h.7v.968c.28-.37.59-.648.93-.832.34-.183.71-.275 1.1-.275.41 0 .77.102 1.08.308.32.208.55.483.69.83.15.348.23.89.23 1.625v2.784h-.69v-2.58c0-.623-.02-1.04-.07-1.25-.08-.355-.23-.624-.46-.806-.23-.18-.52-.27-.89-.27-.42 0-.8.138-1.13.416-.33.277-.55.623-.66 1.034-.06.27-.1.76-.1 1.47v1.984h-.69v-5.406zm8.77-.14c.84 0 1.53.302 2.07.905.5.55.75 1.2.75 1.96s-.26 1.42-.78 1.98c-.53.57-1.2.85-2.03.85-.83 0-1.51-.28-2.03-.85-.52-.56-.79-1.22-.79-1.98 0-.75.25-1.39.75-1.94.55-.6 1.24-.91 2.08-.91zm0 .682c-.58 0-1.07.213-1.49.64-.42.428-.62.946-.62 1.55 0 .392.1.755.29 1.093.19.34.45.6.77.79.33.19.68.28 1.07.28.38 0 .74-.09 1.06-.27.32-.18.58-.44.77-.78.19-.33.28-.7.28-1.09 0-.6-.21-1.12-.63-1.55-.42-.42-.91-.64-1.49-.64zm3.6-.542h.74l1.82 3.942 1.8-3.942h.74l-2.47 5.407h-.13l-2.5-5.407zm11.54 0v5.407h-.68v-.93c-.29.354-.61.622-.98.8-.36.18-.75.268-1.18.268-.76 0-1.42-.27-1.96-.83-.54-.55-.81-1.23-.81-2.02 0-.78.27-1.44.82-2 .55-.55 1.21-.83 1.98-.83.45 0 .85.1 1.21.29.36.19.68.48.95.85v-.99h.69zm-2.78.528c-.38 0-.74.098-1.07.286-.32.192-.59.46-.78.804-.19.344-.29.707-.29 1.093 0 .38.1.744.29 1.092.2.34.46.61.79.81.33.19.69.29 1.06.29s.75-.1 1.09-.29c.34-.2.6-.46.79-.78.19-.33.28-.7.28-1.11 0-.63-.2-1.15-.62-1.57-.41-.42-.91-.64-1.52-.64zm4.95-2.537h.7v2.01h1.11v.6h-1.11v4.806h-.69v-4.805h-.95v-.602h.95v-2.01zm3.09-.22c.16 0 .3.06.41.17.11.114.17.25.17.408 0 .155-.05.29-.17.403-.11.113-.24.17-.4.17-.15 0-.29-.057-.4-.17-.11-.112-.17-.248-.17-.403 0-.16.06-.294.17-.407.11-.112.25-.17.4-.17zm-.34 2.23h.7v5.406h-.69v-5.407zm4.7-.14c.84 0 1.53.3 2.07.904.5.55.75 1.2.75 1.96s-.26 1.42-.79 1.98c-.53.57-1.2.85-2.03.85-.83 0-1.5-.28-2.03-.85-.53-.56-.79-1.22-.79-1.98 0-.75.25-1.39.75-1.94.55-.6 1.24-.91 2.08-.91zm0 .68c-.58 0-1.08.214-1.49.64-.41.43-.62.947-.62 1.55 0 .393.09.756.29 1.094.19.34.45.6.77.79.33.19.68.28 1.07.28s.747-.09 1.068-.27c.32-.18.58-.44.767-.78.19-.33.29-.7.29-1.09 0-.6-.21-1.12-.623-1.55-.42-.42-.912-.64-1.49-.64zm4.11-.54h.69v.967c.28-.37.59-.648.93-.832.34-.183.71-.275 1.1-.275.4 0 .77.102 1.08.308.31.208.55.483.7.83.15.348.22.89.22 1.625v2.784h-.69v-2.58c0-.623-.025-1.04-.078-1.25-.08-.355-.232-.624-.462-.806-.23-.18-.525-.27-.893-.27-.42 0-.8.138-1.13.416-.34.277-.555.623-.66 1.034-.07.27-.1.76-.1 1.47v1.984h-.695v-5.406zm8.92.59l-.44.462c-.37-.37-.73-.55-1.09-.55-.23 0-.42.07-.58.22-.16.15-.24.32-.24.52 0 .17.07.34.2.5.13.16.41.35.84.57.52.27.87.53 1.05.77.18.25.27.53.27.85 0 .44-.15.82-.47 1.13-.31.3-.7.46-1.17.46-.31 0-.6-.07-.89-.21-.28-.14-.52-.33-.7-.57l.44-.5c.36.4.73.6 1.137.6.276 0 .513-.09.71-.27.195-.18.29-.39.29-.63 0-.2-.06-.38-.19-.53-.13-.16-.42-.35-.88-.58-.49-.25-.82-.5-1-.75-.18-.248-.26-.527-.26-.84 0-.41.14-.75.42-1.026s.634-.408 1.064-.408c.5 0 1 .24 1.507.73z" fill="#fff"/><path fill-rule="evenodd" clip-rule="evenodd" fill="#BEC531" d="M121.34 57.885c2.317 0 4.206.708 4.206 1.574 0 .86-1.89 1.57-4.207 1.57-2.32 0-4.21-.71-4.21-1.57 0-.87 1.89-1.58 4.21-1.58z"/></svg>