<?xml version="1.0" encoding="utf-8"?>
<!-- Generator: Adobe Illustrator 16.0.0, SVG Export Plug-In . SVG Version: 6.00 Build 0)  -->
<!DOCTYPE svg PUBLIC "-//W3C//DTD SVG 1.1 Tiny//EN" "http://www.w3.org/Graphics/SVG/1.1/DTD/svg11-tiny.dtd">
<svg version="1.1" baseProfile="tiny" id="Layer_1" xmlns="http://www.w3.org/2000/svg" xmlns:xlink="http://www.w3.org/1999/xlink"
	 x="0px" y="0px" width="231.667px" height="42px" viewBox="0 25.667 231.667 42" xml:space="preserve">
<path fill="#FFFFFF" d="M77.262,38.348l-9.32,15.451h8.098c1.362-4.039,3.04-5.047,7.183-4.741l6.034,4.743h8.864l-9.62-5.58
	c-0.23-0.381-0.3-0.76,0-1.141l13.22-4.149h-8.71L80.4,47.69c-0.61,0.021-0.817-0.156-0.61-0.538l5.12-8.726l-7.645-0.075
	L77.262,38.348z"/>
<path fill="#BEC531" d="M70.042,42.928h-16.96c-9.802-0.83-26.397,8.556-9.707,10.72l21.702,0.153l0.306-3.131
	c-23.874,5.67-31.223-5.899-4.28-5.66l-12.53,3.851l4.43-0.021l16.295-4.119l0.744-1.77V42.928z"/>
<path fill="#FFFFFF" d="M128.451,50.581l-0.547,3.229h-22.92c-2.013-0.335-3.58-0.698-4.484-1.338
	c-5.677-4.021,5.154-9.692,15.023-9.572h17.42l-1.156,2.062l-14.94-0.219c-0.84,0.08-1.88,0.164-2.582,0.284
	c-4.99,0.837-9.556,4.724-5.437,6.726c1.91,0.82,13.375-0.799,19.624-1.174V50.581z"/>
<path fill="#BEC531" d="M66.326,38.503c2.315,0,4.207,0.706,4.207,1.572c0,0.865-1.89,1.573-4.207,1.573
	c-2.318,0-4.21-0.708-4.21-1.573C62.116,39.209,64.008,38.503,66.326,38.503z M52.5,38.503c2.316,0,4.207,0.706,4.207,1.572
	c0,0.865-1.89,1.573-4.208,1.573c-2.32,0-4.21-0.708-4.21-1.573c0-0.866,1.89-1.572,4.2-1.572H52.5z"/>
<path fill="#FFFFFF" d="M136.626,42.625l-3.597,5.93c-1.592,2.574-0.89,4.17,2.683,4.979l23.55-0.131l3.504-6.043
	c1.62-2.626,1.183-4.092-2.39-4.9L136.626,42.625L136.626,42.625z M155.587,45.98c0.088-0.465-0.066-0.854-0.512-1.16
	c-2.158-0.567-5.037-0.351-7.65-0.329c-3.623,0.272-5.404,2.629-6.984,5.483c-0.07,0.567,0.09,0.97,0.58,1.198
	c2.16,0.57,5.04,0.35,7.66,0.33c3.699-0.278,5.6-2.734,6.92-5.522H155.587z M169.367,51.584l-5.046-0.984l-1.37,2.97h13.801
	c13.01,0,9.939-8.923-3.26-6.271c-0.99,0.197-2.08,0.023-1.591-0.902c0.66-1.258,2.86-1.593,5.62-1.742l10.09,0.04l1.24-2.294
	l-11.13,0.01c-7.81,0.01-10.601,3.881-10.45,5.48c0.05,0.561,0.359,2.01,3.73,2.02l5.18,0.021c3.699,0.01,1.98,3.37-6.78,1.659
	L169.367,51.584z"/>
<path fill="#FFFFFF" d="M130.614,54.558c0.162,0,0.296,0.058,0.406,0.17c0.112,0.112,0.168,0.248,0.168,0.407
	c0,0.154-0.056,0.289-0.168,0.402c-0.11,0.113-0.244,0.17-0.406,0.17c-0.153,0-0.286-0.057-0.399-0.17
	c-0.113-0.111-0.168-0.248-0.168-0.402c0-0.16,0.055-0.295,0.168-0.407S130.46,54.558,130.614,54.558z M130.271,56.786h0.7v5.407
	h-0.69v-5.407H130.271z M132.421,56.786h0.699v0.969c0.28-0.371,0.59-0.648,0.92-0.832c0.34-0.184,0.711-0.275,1.11-0.275
	c0.41,0,0.771,0.102,1.08,0.309c0.319,0.207,0.55,0.482,0.7,0.83s0.22,0.889,0.22,1.625v2.783h-0.69v-2.58
	c0-0.623-0.02-1.039-0.08-1.25c-0.08-0.355-0.229-0.623-0.459-0.806c-0.23-0.181-0.53-0.271-0.891-0.271
	c-0.42,0-0.8,0.139-1.13,0.416s-0.55,0.623-0.659,1.034c-0.061,0.271-0.101,0.761-0.101,1.47v1.984h-0.7v-5.406H132.421z
	 M138.63,56.786h0.701v0.969c0.279-0.371,0.59-0.648,0.93-0.832s0.71-0.275,1.1-0.275c0.41,0,0.77,0.102,1.08,0.309
	c0.32,0.207,0.551,0.482,0.689,0.83c0.15,0.348,0.23,0.889,0.23,1.625v2.783h-0.689v-2.58c0-0.623-0.021-1.039-0.07-1.25
	c-0.08-0.355-0.23-0.623-0.46-0.806c-0.229-0.181-0.521-0.271-0.89-0.271c-0.42,0-0.801,0.139-1.131,0.416s-0.55,0.623-0.66,1.034
	c-0.06,0.271-0.1,0.761-0.1,1.47v1.984h-0.689v-5.406H138.63z M147.401,56.646c0.841,0,1.53,0.302,2.07,0.905
	c0.5,0.55,0.75,1.199,0.75,1.959c0,0.761-0.261,1.421-0.78,1.98c-0.529,0.57-1.199,0.85-2.029,0.85s-1.511-0.279-2.031-0.85
	c-0.52-0.56-0.789-1.22-0.789-1.98c0-0.75,0.25-1.389,0.75-1.939c0.55-0.6,1.24-0.91,2.08-0.91L147.401,56.646z M147.401,57.329
	c-0.58,0-1.069,0.213-1.489,0.639c-0.42,0.429-0.621,0.947-0.621,1.551c0,0.393,0.101,0.755,0.291,1.093
	c0.189,0.341,0.449,0.601,0.77,0.79c0.33,0.189,0.68,0.28,1.07,0.28c0.379,0,0.74-0.091,1.06-0.271s0.58-0.439,0.771-0.779
	c0.189-0.33,0.279-0.7,0.279-1.09c0-0.601-0.21-1.121-0.63-1.551c-0.42-0.42-0.909-0.64-1.489-0.64L147.401,57.329z M151.001,56.786
	h0.74l1.819,3.942l1.8-3.942h0.74l-2.471,5.407h-0.129L151.001,56.786L151.001,56.786z M162.541,56.786v5.407h-0.68v-0.93
	c-0.29,0.354-0.609,0.622-0.98,0.8c-0.359,0.18-0.75,0.268-1.18,0.268c-0.76,0-1.42-0.27-1.959-0.83
	c-0.541-0.549-0.811-1.229-0.811-2.02c0-0.779,0.27-1.439,0.82-2c0.549-0.55,1.209-0.83,1.979-0.83c0.45,0,0.851,0.1,1.21,0.29
	s0.68,0.479,0.95,0.851v-0.99h0.69L162.541,56.786z M159.761,57.314c-0.381,0-0.74,0.099-1.07,0.286
	c-0.32,0.191-0.59,0.46-0.779,0.804c-0.19,0.345-0.291,0.707-0.291,1.093c0,0.381,0.101,0.744,0.291,1.092
	c0.199,0.341,0.459,0.611,0.789,0.811c0.33,0.189,0.69,0.29,1.061,0.29c0.369,0,0.75-0.101,1.09-0.29
	c0.34-0.199,0.6-0.46,0.79-0.779c0.19-0.33,0.28-0.701,0.28-1.111c0-0.629-0.2-1.149-0.621-1.569c-0.409-0.42-0.909-0.64-1.52-0.64
	L159.761,57.314z M164.71,54.777h0.701v2.011h1.109v0.6h-1.109v4.806h-0.69v-4.805h-0.95v-0.603h0.95v-2.01L164.71,54.777z
	 M167.8,54.557c0.16,0,0.301,0.061,0.41,0.17c0.11,0.113,0.17,0.25,0.17,0.408c0,0.154-0.049,0.289-0.17,0.402
	c-0.109,0.113-0.239,0.17-0.399,0.17c-0.149,0-0.29-0.057-0.399-0.17c-0.111-0.111-0.17-0.248-0.17-0.402
	c0-0.16,0.059-0.295,0.17-0.407c0.109-0.112,0.25-0.17,0.399-0.17L167.8,54.557z M167.46,56.788h0.701v5.405h-0.69v-5.407
	L167.46,56.788z M172.162,56.647c0.84,0,1.529,0.301,2.069,0.904c0.5,0.55,0.75,1.199,0.75,1.959c0,0.761-0.26,1.421-0.79,1.98
	c-0.529,0.57-1.199,0.85-2.029,0.85s-1.5-0.279-2.031-0.85c-0.529-0.56-0.789-1.22-0.789-1.98c0-0.75,0.25-1.389,0.75-1.939
	c0.55-0.6,1.24-0.91,2.08-0.91L172.162,56.647z M172.162,57.327c-0.58,0-1.08,0.215-1.49,0.641c-0.41,0.43-0.621,0.947-0.621,1.55
	c0,0.394,0.091,0.756,0.291,1.094c0.189,0.341,0.449,0.601,0.77,0.79c0.33,0.189,0.68,0.28,1.07,0.28
	c0.39,0,0.746-0.091,1.068-0.271c0.319-0.18,0.58-0.439,0.767-0.779c0.19-0.33,0.29-0.7,0.29-1.09c0-0.601-0.21-1.121-0.623-1.551
	c-0.42-0.42-0.912-0.64-1.49-0.64L172.162,57.327z M176.271,56.788h0.689v0.967c0.281-0.371,0.59-0.648,0.931-0.832
	c0.34-0.184,0.71-0.275,1.101-0.275c0.399,0,0.77,0.102,1.079,0.309s0.55,0.482,0.7,0.83s0.221,0.889,0.221,1.625v2.783H180.3v-2.58
	c0-0.623-0.024-1.039-0.077-1.25c-0.08-0.355-0.231-0.623-0.462-0.806c-0.23-0.181-0.525-0.271-0.893-0.271
	c-0.42,0-0.801,0.139-1.131,0.416c-0.34,0.277-0.555,0.623-0.66,1.034c-0.07,0.271-0.1,0.761-0.1,1.47v1.984h-0.695v-5.406
	L176.271,56.788z M185.191,57.377l-0.439,0.461c-0.371-0.369-0.73-0.549-1.09-0.549c-0.23,0-0.42,0.069-0.58,0.219
	c-0.16,0.15-0.24,0.32-0.24,0.521c0,0.171,0.07,0.341,0.199,0.5c0.131,0.16,0.41,0.351,0.84,0.57
	c0.521,0.271,0.871,0.53,1.051,0.771c0.18,0.25,0.27,0.529,0.27,0.85c0,0.439-0.15,0.82-0.47,1.13c-0.31,0.3-0.7,0.46-1.17,0.46
	c-0.31,0-0.601-0.07-0.89-0.21c-0.28-0.14-0.521-0.33-0.7-0.57l0.44-0.5c0.359,0.4,0.729,0.601,1.137,0.601
	c0.275,0,0.513-0.09,0.709-0.271c0.195-0.18,0.291-0.39,0.291-0.63c0-0.2-0.061-0.38-0.19-0.529c-0.13-0.16-0.42-0.351-0.88-0.58
	c-0.49-0.25-0.82-0.5-1-0.75c-0.18-0.248-0.26-0.527-0.26-0.841c0-0.409,0.14-0.75,0.42-1.026c0.279-0.275,0.634-0.408,1.064-0.408
	c0.5,0,1,0.24,1.506,0.73L185.191,57.377z"/>
<path fill="#BEC531" d="M121.339,57.885c2.318,0,4.207,0.707,4.207,1.574c0,0.859-1.891,1.569-4.207,1.569
	c-2.32,0-4.211-0.71-4.211-1.569c0-0.871,1.891-1.58,4.211-1.58V57.885z"/>
</svg>
