<svg xmlns="http://www.w3.org/2000/svg" width="508.5" height="112" viewBox="0 0 508.5 112"><path fill="#231F20" d="M5.5 106.57h494.67L446.56 10.5H5.5z"/><path fill-rule="evenodd" clip-rule="evenodd" fill="#fff" d="M225.91 37.2l-16.885 27.993h14.673c2.466-7.32 5.504-9.146 13.01-8.592l10.934 8.6h16.054l-17.44-10.11c-.415-.69-.554-1.38 0-2.08l23.944-7.53h-15.77l-22.838 8.63c-1.11.05-1.477-.28-1.11-.97l9.27-15.8-13.84-.14z"/><path fill-rule="evenodd" clip-rule="evenodd" fill="#BEC531" d="M212.83 45.496h-30.726c-17.756-1.502-47.815 15.5-17.577 19.42l39.31.278.55-5.68c-43.242 10.266-56.555-10.69-7.75-10.256l-22.696 6.968 8.03-.04 29.52-7.47 1.35-3.22z"/><path fill-rule="evenodd" clip-rule="evenodd" fill="#fff" d="M318.635 59.36l-.987 5.85h-41.514c-3.652-.61-6.49-1.265-8.126-2.426-10.288-7.288 9.333-17.562 27.212-17.34h31.558l-2.098 3.736-27.066-.4c-1.523.145-3.402.303-4.673.517-9.03 1.518-17.31 8.558-9.85 12.184 3.46 1.49 24.23-1.44 35.55-2.12z"/><path fill-rule="evenodd" clip-rule="evenodd" fill="#BEC531" d="M206.098 37.482c4.197 0 7.622 1.278 7.622 2.847 0 1.56-3.425 2.84-7.622 2.84-4.2 0-7.625-1.28-7.625-2.85s3.426-2.85 7.625-2.85zm-25.045 0c4.195 0 7.622 1.278 7.622 2.847 0 1.56-3.426 2.84-7.622 2.84-4.2 0-7.623-1.28-7.623-2.85s3.424-2.85 7.623-2.85z"/><path fill-rule="evenodd" clip-rule="evenodd" fill="#fff" d="M333.454 44.95l-6.52 10.74c-2.882 4.666-1.618 7.552 4.86 9.016l42.66-.236 6.35-10.945c2.933-4.758 2.143-7.41-4.336-8.873l-43.014.298zm34.343 6.08c.16-.847-.12-1.553-.927-2.105-3.91-1.027-9.126-.632-13.865-.593-6.562.49-9.786 4.76-12.65 9.93-.14 1.03.163 1.757 1.038 2.172 3.91 1.03 9.123.633 13.864.595 6.702-.51 10.148-4.96 12.54-10zm24.96 10.146l-9.14-1.78-2.492 5.375h24.997c23.556 0 18.002-16.16-5.917-11.35-1.795.36-3.77.05-2.888-1.63 1.197-2.27 5.185-2.88 10.184-3.15l18.27.07 2.25-4.15-20.17.02c-14.15.02-19.2 7.01-18.94 9.92.09 1.01.66 3.64 6.76 3.66l9.38.03c6.69.02 3.59 6.1-12.27 3.01z"/><path d="M322.56 66.566c.288 0 .533.102.736.306.203.204.304.45.304.74 0 .28-.1.523-.304.727-.203.2-.448.3-.736.3-.28 0-.522-.11-.726-.31-.203-.21-.304-.45-.304-.73 0-.29.102-.54.304-.74.203-.21.445-.31.726-.31zm-.625 4.034h1.26v9.793h-1.26V70.6zm3.88 0h1.26v1.754c.503-.67 1.06-1.174 1.674-1.507.61-.333 1.27-.5 1.99-.5.73 0 1.38.187 1.95.56.56.372.98.873 1.25 1.503.27.63.4 1.61.4 2.943v5.04h-1.26v-4.67c0-1.13-.05-1.882-.14-2.26-.15-.648-.43-1.136-.84-1.463-.42-.327-.96-.49-1.62-.49-.76 0-1.45.25-2.05.755-.61.506-1 1.13-1.19 1.874-.12.48-.18 1.37-.18 2.66v3.59h-1.26V70.6zm11.245 0h1.26v1.754c.504-.67 1.062-1.174 1.673-1.507.613-.333 1.278-.5 2-.5.73 0 1.38.187 1.947.56.568.372.986.873 1.257 1.503.27.63.403 1.61.403 2.943v5.04h-1.26v-4.67c0-1.13-.047-1.882-.14-2.26-.146-.648-.426-1.136-.84-1.463-.414-.327-.954-.49-1.62-.49-.763 0-1.446.25-2.048.755-.604.506-1 1.13-1.192 1.874-.122.48-.18 1.37-.18 2.66v3.59h-1.26V70.6zm15.88-.253c1.508 0 2.76.547 3.75 1.64.9.997 1.354 2.175 1.354 3.538 0 1.37-.478 2.564-1.43 3.587-.953 1.023-2.178 1.535-3.675 1.535-1.51 0-2.74-.51-3.69-1.535-.96-1.023-1.43-2.22-1.43-3.587 0-1.356.45-2.533 1.35-3.53.99-1.098 2.25-1.648 3.76-1.648zm-.005 1.234c-1.047 0-1.95.39-2.702 1.17-.752.78-1.13 1.71-1.13 2.81 0 .71.173 1.37.516 1.98.34.61.8 1.09 1.39 1.42.58.34 1.22.5 1.92.5s1.34-.16 1.92-.5c.58-.33 1.04-.8 1.39-1.41.34-.61.51-1.27.51-1.98 0-1.1-.38-2.03-1.14-2.81-.76-.77-1.66-1.16-2.7-1.16zm6.512-.98h1.34l3.29 7.14 3.247-7.14h1.35l-4.482 9.8h-.234l-4.51-9.79zm20.905 0v9.8h-1.244v-1.69c-.528.65-1.12 1.13-1.778 1.45-.656.33-1.376.49-2.156.49-1.386 0-2.57-.5-3.55-1.51-.982-1-1.473-2.23-1.473-3.67 0-1.41.5-2.61 1.49-3.61s2.18-1.5 3.58-1.5c.81 0 1.54.17 2.19.52.65.35 1.22.86 1.72 1.54v-1.8h1.25zm-5.037.97c-.702 0-1.35.18-1.943.52-.593.35-1.066.83-1.417 1.45-.35.63-.525 1.29-.525 1.98s.176 1.35.53 1.98c.354.63.83 1.12 1.426 1.47.598.36 1.237.53 1.92.53.69 0 1.343-.17 1.96-.52.618-.35 1.093-.82 1.424-1.41.334-.59.5-1.26.5-2 0-1.13-.373-2.08-1.12-2.84-.745-.76-1.665-1.14-2.755-1.14zm8.97-4.6h1.26v3.63h2v1.09h-2v8.71h-1.26v-8.71h-1.72V70.6h1.72v-3.638zm5.585-.39c.288 0 .534.1.736.31.204.21.304.45.304.74 0 .28-.1.53-.304.73-.203.21-.448.31-.735.31-.28 0-.52-.1-.72-.3-.2-.2-.3-.45-.3-.73 0-.29.1-.53.31-.74.21-.2.45-.3.73-.3zm-.624 4.04h1.26v9.79h-1.26v-9.8zm8.514-.25c1.51 0 2.76.55 3.752 1.64.902 1 1.354 2.18 1.354 3.54 0 1.37-.478 2.57-1.43 3.59-.95 1.03-2.177 1.54-3.675 1.54-1.5 0-2.73-.51-3.68-1.53-.95-1.02-1.43-2.22-1.43-3.58 0-1.352.45-2.53 1.36-3.53 1-1.1 2.25-1.65 3.76-1.65zm-.003 1.24c-1.047 0-1.948.39-2.7 1.17-.753.78-1.13 1.71-1.13 2.81 0 .71.17 1.37.515 1.98.343.61.806 1.09 1.39 1.42.585.34 1.226.5 1.925.5.698 0 1.34-.16 1.925-.5.583-.33 1.048-.8 1.39-1.41.343-.61.517-1.27.517-1.98 0-1.1-.38-2.03-1.14-2.81-.76-.77-1.66-1.16-2.7-1.16zm7.44-.98h1.26v1.76c.505-.67 1.063-1.17 1.676-1.51.61-.33 1.277-.5 1.998-.5.74 0 1.39.19 1.95.56.57.37.99.88 1.26 1.51s.41 1.61.41 2.94v5.04h-1.26v-4.67c0-1.13-.04-1.88-.14-2.26-.14-.64-.42-1.13-.84-1.46-.41-.33-.95-.49-1.62-.49-.76 0-1.44.25-2.05.76-.6.51-1 1.13-1.19 1.878-.12.483-.18 1.37-.18 2.66v3.59h-1.26v-9.8zm16.17 1.07l-.81.84c-.675-.65-1.334-.98-1.978-.98-.41 0-.76.14-1.06.41-.29.27-.44.59-.44.95 0 .32.12.62.36.91.24.3.74.64 1.51 1.04.94.49 1.57.958 1.91 1.408.33.456.49.97.49 1.54 0 .8-.28 1.483-.85 2.04-.57.557-1.27.836-2.12.836-.57 0-1.11-.12-1.62-.37-.52-.243-.94-.583-1.28-1.014l.79-.9c.64.727 1.32 1.09 2.05 1.09.5 0 .93-.164 1.29-.487.35-.326.53-.708.53-1.146 0-.36-.12-.686-.35-.966-.23-.276-.76-.624-1.59-1.044-.89-.457-1.49-.907-1.81-1.35-.32-.44-.48-.95-.48-1.52 0-.746.25-1.365.76-1.857.51-.49 1.15-.74 1.92-.74.9 0 1.8.44 2.72 1.323z" fill="#fff"/><path fill-rule="evenodd" clip-rule="evenodd" fill="#BEC531" d="M305.754 72.594c4.198 0 7.623 1.28 7.623 2.85 0 1.566-3.425 2.845-7.623 2.845-4.197 0-7.622-1.28-7.622-2.85s3.425-2.85 7.622-2.85z"/></svg>