<?xml version="1.0" encoding="utf-8"?>
<!-- Generator: Adobe Illustrator 17.0.0, SVG Export Plug-In . SVG Version: 6.00 Build 0)  -->
<!DOCTYPE svg PUBLIC "-//W3C//DTD SVG 1.1//EN" "http://www.w3.org/Graphics/SVG/1.1/DTD/svg11.dtd">
<svg version="1.1" id="Capa_1" xmlns="http://www.w3.org/2000/svg" xmlns:xlink="http://www.w3.org/1999/xlink" x="0px" y="0px"
	 width="179px" height="69px" viewBox="0 0 179 69" enable-background="new 0 0 179 69" xml:space="preserve">
<g opacity="0.4">
	
		<path fill="#FFFFFF" stroke="#FFFFFF" stroke-width="4" stroke-linecap="round" stroke-linejoin="round" stroke-miterlimit="10" d="
		M48.641,32.411c-4.66,0-9.573,0-14.233,0c-8.225-0.696-22.151,7.179-8.144,8.995l18.211,0.13l0.256-2.633
		c-20.034,4.757-26.201-4.951-3.592-4.75l-10.515,3.228l3.718-0.018l13.675-3.46L48.641,32.411L48.641,32.411z"/>
	
		<path fill="#FFFFFF" stroke="#FFFFFF" stroke-width="4" stroke-linecap="round" stroke-linejoin="round" stroke-miterlimit="10" d="
		M45.524,28.698c1.943,0,3.53,0.592,3.53,1.32c0,0.726-1.587,1.319-3.53,1.319c-1.946,0-3.534-0.594-3.534-1.319
		C41.989,29.29,43.578,28.698,45.524,28.698L45.524,28.698z"/>
	
		<path fill="#FFFFFF" stroke="#FFFFFF" stroke-width="4" stroke-linecap="round" stroke-linejoin="round" stroke-miterlimit="10" d="
		M33.919,28.698c1.945,0,3.531,0.592,3.531,1.32c0,0.726-1.586,1.319-3.531,1.319c-1.944,0-3.53-0.594-3.53-1.319
		C30.389,29.29,31.975,28.698,33.919,28.698L33.919,28.698z"/>
	<g>
		
			<path fill="#FFFFFF" stroke="#FFFFFF" stroke-width="4" stroke-linecap="round" stroke-linejoin="round" stroke-miterlimit="10" d="
			M54.7,28.567l-7.821,12.968h6.796c1.143-3.391,2.551-4.237,6.028-3.98l5.063,3.98h7.438l-8.079-4.687
			c-0.193-0.321-0.256-0.642,0-0.961l11.092-3.486h-7.31L57.33,36.402c-0.514,0.018-0.686-0.133-0.514-0.451l4.296-7.321
			L54.7,28.567L54.7,28.567z"/>
		
			<path fill="#FFFFFF" stroke="#FFFFFF" stroke-width="4" stroke-linecap="round" stroke-linejoin="round" stroke-miterlimit="10" d="
			M97.656,38.831l-0.458,2.711H77.965c-1.69-0.28-3.004-0.585-3.763-1.122c-4.764-3.375,4.325-8.134,12.607-8.033
			c4.779,0,9.838,0,14.618,0l-0.97,1.73l-12.539-0.185c-0.705,0.068-1.577,0.139-2.165,0.24c-4.187,0.703-8.02,3.964-4.562,5.644
			C82.792,40.504,92.414,39.146,97.656,38.831L97.656,38.831z"/>
		
			<path fill="#FFFFFF" stroke="#FFFFFF" stroke-width="4" stroke-linecap="round" stroke-linejoin="round" stroke-miterlimit="10" d="
			M104.519,32.157l-3.019,4.975c-1.335,2.162-0.747,3.501,2.251,4.178l19.764-0.11l2.939-5.069c1.36-2.205,0.993-3.434-2.006-4.112
			L104.519,32.157L104.519,32.157z M120.43,34.973c0.073-0.391-0.056-0.718-0.43-0.973c-1.811-0.478-4.227-0.293-6.421-0.276
			c-3.04,0.228-4.534,2.206-5.86,4.601c-0.065,0.477,0.074,0.815,0.479,1.005c1.812,0.477,4.226,0.294,6.423,0.276
			C117.725,39.373,119.321,37.312,120.43,34.973L120.43,34.973z"/>
		
			<path fill="#FFFFFF" stroke="#FFFFFF" stroke-width="4" stroke-linecap="round" stroke-linejoin="round" stroke-miterlimit="10" d="
			M131.992,39.675l-4.232-0.826l-1.156,2.491h11.58c10.914,0,8.34-7.488-2.739-5.262c-0.833,0.167-1.749,0.02-1.338-0.757
			c0.552-1.055,2.4-1.336,4.717-1.461l8.462,0.033l1.041-1.924l-9.345,0.008c-6.557,0.005-8.894,3.249-8.773,4.593
			c0.041,0.469,0.302,1.688,3.128,1.697l4.343,0.013C140.779,38.286,139.343,41.104,131.992,39.675L131.992,39.675z"/>
	</g>
	<g>
		
			<path fill="#FFFFFF" stroke="#FFFFFF" stroke-width="4" stroke-linecap="round" stroke-linejoin="round" stroke-miterlimit="10" d="
			M99.473,42.171c0.136,0,0.248,0.049,0.342,0.144c0.094,0.094,0.141,0.207,0.141,0.341c0,0.13-0.047,0.244-0.141,0.338
			c-0.094,0.095-0.206,0.143-0.342,0.143c-0.129,0-0.24-0.047-0.336-0.143c-0.095-0.095-0.141-0.208-0.141-0.338
			c0-0.134,0.046-0.247,0.141-0.341C99.233,42.22,99.344,42.171,99.473,42.171z M99.185,44.04h0.583v4.538h-0.583V44.04z"/>
		
			<path fill="#FFFFFF" stroke="#FFFFFF" stroke-width="4" stroke-linecap="round" stroke-linejoin="round" stroke-miterlimit="10" d="
			M100.983,44.04h0.584v0.812c0.231-0.309,0.492-0.544,0.774-0.698c0.284-0.153,0.591-0.231,0.925-0.231
			c0.341,0,0.641,0.085,0.903,0.258c0.265,0.175,0.459,0.405,0.585,0.696c0.123,0.292,0.188,0.747,0.188,1.364v2.336h-0.585v-2.164
			c0-0.524-0.023-0.874-0.065-1.048c-0.066-0.298-0.196-0.524-0.388-0.677c-0.192-0.152-0.444-0.228-0.75-0.228
			c-0.354,0-0.669,0.117-0.949,0.35c-0.279,0.232-0.464,0.522-0.553,0.868c-0.056,0.226-0.083,0.637-0.083,1.233v1.665h-0.584V44.04
			H100.983z"/>
		
			<path fill="#FFFFFF" stroke="#FFFFFF" stroke-width="4" stroke-linecap="round" stroke-linejoin="round" stroke-miterlimit="10" d="
			M106.191,44.04h0.582v0.812c0.235-0.309,0.494-0.544,0.777-0.698c0.283-0.153,0.594-0.231,0.926-0.231
			c0.34,0,0.641,0.085,0.904,0.258c0.263,0.175,0.456,0.405,0.58,0.696c0.126,0.292,0.188,0.747,0.188,1.364v2.336h-0.582v-2.164
			c0-0.524-0.021-0.874-0.065-1.048c-0.067-0.298-0.197-0.524-0.389-0.677c-0.192-0.152-0.441-0.228-0.75-0.228
			c-0.353,0-0.671,0.117-0.948,0.35c-0.281,0.232-0.464,0.522-0.554,0.868c-0.055,0.226-0.085,0.637-0.085,1.233v1.665h-0.582V44.04
			H106.191z"/>
		
			<path fill="#FFFFFF" stroke="#FFFFFF" stroke-width="4" stroke-linecap="round" stroke-linejoin="round" stroke-miterlimit="10" d="
			M113.547,43.923c0.699,0,1.278,0.254,1.739,0.759c0.417,0.462,0.624,1.008,0.624,1.638c0,0.634-0.219,1.188-0.66,1.662
			c-0.442,0.475-1.008,0.712-1.703,0.712s-1.265-0.237-1.706-0.712c-0.442-0.474-0.663-1.027-0.663-1.662
			c0-0.628,0.208-1.173,0.627-1.635C112.265,44.177,112.845,43.923,113.547,43.923z M113.545,44.495
			c-0.487,0-0.902,0.179-1.252,0.538c-0.35,0.359-0.523,0.793-0.523,1.3c0,0.329,0.081,0.634,0.24,0.917
			c0.16,0.285,0.372,0.503,0.645,0.658c0.27,0.154,0.565,0.232,0.891,0.232c0.322,0,0.621-0.078,0.892-0.232
			c0.269-0.154,0.484-0.373,0.644-0.658c0.158-0.283,0.238-0.588,0.238-0.917c0-0.507-0.177-0.941-0.525-1.3
			C114.443,44.674,114.027,44.495,113.545,44.495z"/>
		
			<path fill="#FFFFFF" stroke="#FFFFFF" stroke-width="4" stroke-linecap="round" stroke-linejoin="round" stroke-miterlimit="10" d="
			M116.562,44.04h0.621l1.524,3.31l1.505-3.31h0.624l-2.077,4.538h-0.108L116.562,44.04z"/>
		
			<path fill="#FFFFFF" stroke="#FFFFFF" stroke-width="4" stroke-linecap="round" stroke-linejoin="round" stroke-miterlimit="10" d="
			M126.246,44.04v4.538h-0.576v-0.779c-0.245,0.297-0.518,0.521-0.825,0.671c-0.303,0.15-0.636,0.225-0.996,0.225
			c-0.644,0-1.192-0.233-1.647-0.697c-0.454-0.466-0.681-1.035-0.681-1.701c0-0.653,0.229-1.213,0.686-1.676
			c0.461-0.463,1.01-0.697,1.657-0.697c0.372,0,0.709,0.08,1.012,0.238c0.3,0.157,0.565,0.396,0.794,0.713V44.04H126.246z
			 M123.912,44.484c-0.323,0-0.624,0.083-0.899,0.24c-0.274,0.161-0.494,0.386-0.654,0.675c-0.163,0.288-0.245,0.592-0.245,0.917
			c0,0.319,0.082,0.625,0.246,0.917c0.162,0.291,0.383,0.518,0.66,0.68c0.276,0.163,0.573,0.243,0.889,0.243
			c0.317,0,0.624-0.08,0.908-0.24c0.287-0.162,0.506-0.38,0.66-0.654c0.154-0.276,0.232-0.584,0.232-0.93
			c0-0.525-0.174-0.963-0.521-1.316C124.843,44.662,124.418,44.484,123.912,44.484z"/>
		
			<path fill="#FFFFFF" stroke="#FFFFFF" stroke-width="4" stroke-linecap="round" stroke-linejoin="round" stroke-miterlimit="10" d="
			M128.067,42.354h0.584v1.686h0.927v0.505h-0.927v4.032h-0.584v-4.032h-0.795V44.04h0.795V42.354z"/>
		
			<path fill="#FFFFFF" stroke="#FFFFFF" stroke-width="4" stroke-linecap="round" stroke-linejoin="round" stroke-miterlimit="10" d="
			M130.655,42.171c0.135,0,0.247,0.049,0.341,0.144c0.094,0.094,0.142,0.207,0.142,0.341c0,0.13-0.047,0.244-0.142,0.338
			c-0.094,0.095-0.207,0.143-0.341,0.143c-0.128,0-0.241-0.047-0.334-0.143c-0.096-0.095-0.143-0.208-0.143-0.338
			c0-0.134,0.047-0.247,0.143-0.341C130.414,42.22,130.526,42.171,130.655,42.171z M130.365,44.04h0.585v4.538h-0.585V44.04z"/>
		
			<path fill="#FFFFFF" stroke="#FFFFFF" stroke-width="4" stroke-linecap="round" stroke-linejoin="round" stroke-miterlimit="10" d="
			M134.311,43.923c0.7,0,1.278,0.254,1.736,0.759c0.419,0.462,0.628,1.008,0.628,1.638c0,0.634-0.221,1.188-0.66,1.662
			c-0.445,0.475-1.011,0.712-1.705,0.712c-0.697,0-1.265-0.237-1.705-0.712c-0.443-0.474-0.664-1.027-0.664-1.662
			c0-0.628,0.21-1.173,0.628-1.635C133.028,44.177,133.61,43.923,134.311,43.923z M134.308,44.495c-0.485,0-0.903,0.179-1.25,0.538
			c-0.346,0.359-0.523,0.793-0.523,1.3c0,0.329,0.078,0.634,0.237,0.917c0.16,0.285,0.374,0.503,0.645,0.658
			c0.27,0.154,0.567,0.232,0.891,0.232s0.623-0.078,0.893-0.232c0.269-0.154,0.485-0.373,0.643-0.658
			c0.16-0.283,0.239-0.588,0.239-0.917c0-0.507-0.175-0.941-0.526-1.3C135.208,44.674,134.792,44.495,134.308,44.495z"/>
		
			<path fill="#FFFFFF" stroke="#FFFFFF" stroke-width="4" stroke-linecap="round" stroke-linejoin="round" stroke-miterlimit="10" d="
			M137.757,44.04h0.583v0.812c0.234-0.309,0.493-0.544,0.776-0.698c0.284-0.153,0.592-0.231,0.926-0.231
			c0.338,0,0.641,0.085,0.903,0.258c0.263,0.175,0.458,0.405,0.582,0.696c0.124,0.292,0.186,0.747,0.186,1.364v2.336h-0.583v-2.164
			c0-0.524-0.02-0.874-0.064-1.048c-0.068-0.298-0.197-0.524-0.39-0.677c-0.191-0.152-0.442-0.228-0.751-0.228
			c-0.351,0-0.669,0.117-0.948,0.35c-0.28,0.232-0.463,0.522-0.554,0.868c-0.054,0.226-0.083,0.637-0.083,1.233v1.665h-0.583
			L137.757,44.04L137.757,44.04z"/>
		
			<path fill="#FFFFFF" stroke="#FFFFFF" stroke-width="4" stroke-linecap="round" stroke-linejoin="round" stroke-miterlimit="10" d="
			M145.246,44.536l-0.376,0.389c-0.312-0.304-0.618-0.456-0.915-0.456c-0.191,0-0.353,0.063-0.488,0.188
			c-0.135,0.125-0.202,0.271-0.202,0.438c0,0.146,0.056,0.287,0.167,0.42c0.111,0.136,0.346,0.297,0.702,0.479
			c0.436,0.228,0.73,0.444,0.886,0.651c0.152,0.214,0.231,0.451,0.231,0.714c0,0.373-0.131,0.689-0.393,0.948
			c-0.263,0.258-0.59,0.387-0.982,0.387c-0.262,0-0.512-0.057-0.75-0.17c-0.237-0.114-0.435-0.273-0.592-0.473l0.367-0.417
			c0.299,0.337,0.614,0.505,0.951,0.505c0.232,0,0.432-0.075,0.595-0.226c0.165-0.15,0.247-0.325,0.247-0.529
			c0-0.167-0.052-0.316-0.162-0.446c-0.109-0.129-0.353-0.291-0.735-0.485c-0.411-0.21-0.69-0.42-0.837-0.625
			c-0.149-0.207-0.222-0.441-0.222-0.707c0-0.342,0.118-0.63,0.354-0.859c0.236-0.228,0.531-0.341,0.892-0.341
			C144.403,43.923,144.823,44.126,145.246,44.536z"/>
	</g>
	
		<path fill="#FFFFFF" stroke="#FFFFFF" stroke-width="4" stroke-linecap="round" stroke-linejoin="round" stroke-miterlimit="10" d="
		M91.689,44.963c1.945,0,3.531,0.594,3.531,1.321c0,0.726-1.586,1.319-3.531,1.319c-1.944,0-3.531-0.593-3.531-1.319
		C88.158,45.557,89.745,44.963,91.689,44.963L91.689,44.963z"/>
</g>
<g>
	<path fill="#C6C500" d="M48.641,32.411c-4.66,0-9.573,0-14.233,0c-8.225-0.696-22.151,7.179-8.144,8.995l18.211,0.13l0.256-2.633
		c-20.034,4.757-26.201-4.951-3.592-4.75l-10.515,3.228l3.718-0.018l13.675-3.46L48.641,32.411L48.641,32.411z"/>
	<path fill="#C6C500" d="M45.524,28.698c1.943,0,3.53,0.592,3.53,1.32c0,0.726-1.587,1.319-3.53,1.319
		c-1.946,0-3.534-0.594-3.534-1.319C41.989,29.29,43.578,28.698,45.524,28.698L45.524,28.698z"/>
	<path fill="#C6C500" d="M33.919,28.698c1.945,0,3.531,0.592,3.531,1.32c0,0.726-1.586,1.319-3.531,1.319
		c-1.944,0-3.53-0.594-3.53-1.319C30.389,29.29,31.975,28.698,33.919,28.698L33.919,28.698z"/>
	<g>
		<path fill="#575756" d="M54.7,28.567l-7.821,12.968h6.796c1.143-3.391,2.551-4.237,6.028-3.98l5.063,3.98h7.438l-8.079-4.687
			c-0.193-0.321-0.256-0.642,0-0.961l11.092-3.486h-7.31L57.33,36.402c-0.514,0.018-0.686-0.133-0.514-0.451l4.296-7.321
			L54.7,28.567L54.7,28.567z"/>
		<path fill="#575756" d="M97.656,38.831l-0.458,2.711H77.965c-1.69-0.28-3.004-0.585-3.763-1.122
			c-4.764-3.375,4.325-8.134,12.607-8.033c4.779,0,9.838,0,14.618,0l-0.97,1.73l-12.539-0.185c-0.705,0.068-1.577,0.139-2.165,0.24
			c-4.187,0.703-8.02,3.964-4.562,5.644C82.792,40.504,92.414,39.146,97.656,38.831L97.656,38.831z"/>
		<path fill="#575756" d="M104.519,32.157l-3.019,4.975c-1.335,2.162-0.747,3.501,2.251,4.178l19.764-0.11l2.939-5.069
			c1.36-2.205,0.993-3.434-2.006-4.112L104.519,32.157L104.519,32.157z M120.43,34.973c0.073-0.391-0.056-0.718-0.43-0.973
			c-1.811-0.478-4.227-0.293-6.421-0.276c-3.04,0.228-4.534,2.206-5.86,4.601c-0.065,0.477,0.074,0.815,0.479,1.005
			c1.812,0.477,4.226,0.294,6.423,0.276C117.725,39.373,119.321,37.312,120.43,34.973L120.43,34.973z"/>
		<path fill="#575756" d="M131.992,39.675l-4.232-0.826l-1.156,2.491h11.58c10.914,0,8.34-7.488-2.739-5.262
			c-0.833,0.167-1.749,0.02-1.338-0.757c0.552-1.055,2.4-1.336,4.717-1.461l8.462,0.033l1.041-1.924l-9.345,0.008
			c-6.557,0.005-8.894,3.249-8.773,4.593c0.041,0.469,0.302,1.688,3.128,1.697l4.343,0.013
			C140.779,38.286,139.343,41.104,131.992,39.675L131.992,39.675z"/>
	</g>
	<g>
		<path fill="#9D9D9C" d="M99.473,42.171c0.136,0,0.248,0.049,0.342,0.144c0.094,0.094,0.141,0.207,0.141,0.341
			c0,0.13-0.047,0.244-0.141,0.338c-0.094,0.095-0.206,0.143-0.342,0.143c-0.129,0-0.24-0.047-0.336-0.143
			c-0.095-0.095-0.141-0.208-0.141-0.338c0-0.134,0.046-0.247,0.141-0.341C99.233,42.22,99.344,42.171,99.473,42.171z M99.185,44.04
			h0.583v4.538h-0.583V44.04z"/>
		<path fill="#9D9D9C" d="M100.983,44.04h0.584v0.812c0.231-0.309,0.492-0.544,0.774-0.698c0.284-0.153,0.591-0.231,0.925-0.231
			c0.341,0,0.641,0.085,0.903,0.258c0.265,0.175,0.459,0.405,0.585,0.696c0.123,0.292,0.188,0.747,0.188,1.364v2.336h-0.585v-2.164
			c0-0.524-0.023-0.874-0.065-1.048c-0.066-0.298-0.196-0.524-0.388-0.677c-0.192-0.152-0.444-0.228-0.75-0.228
			c-0.354,0-0.669,0.117-0.949,0.35c-0.279,0.232-0.464,0.522-0.553,0.868c-0.056,0.226-0.083,0.637-0.083,1.233v1.665h-0.584V44.04
			H100.983z"/>
		<path fill="#9D9D9C" d="M106.191,44.04h0.582v0.812c0.235-0.309,0.494-0.544,0.777-0.698c0.283-0.153,0.594-0.231,0.926-0.231
			c0.34,0,0.641,0.085,0.904,0.258c0.263,0.175,0.456,0.405,0.58,0.696c0.126,0.292,0.188,0.747,0.188,1.364v2.336h-0.582v-2.164
			c0-0.524-0.021-0.874-0.065-1.048c-0.067-0.298-0.197-0.524-0.389-0.677c-0.192-0.152-0.441-0.228-0.75-0.228
			c-0.353,0-0.671,0.117-0.948,0.35c-0.281,0.232-0.464,0.522-0.554,0.868c-0.055,0.226-0.085,0.637-0.085,1.233v1.665h-0.582V44.04
			H106.191z"/>
		<path fill="#9D9D9C" d="M113.547,43.923c0.699,0,1.278,0.254,1.739,0.759c0.417,0.462,0.624,1.008,0.624,1.638
			c0,0.634-0.219,1.188-0.66,1.662c-0.442,0.475-1.008,0.712-1.703,0.712s-1.265-0.237-1.706-0.712
			c-0.442-0.474-0.663-1.027-0.663-1.662c0-0.628,0.208-1.173,0.627-1.635C112.265,44.177,112.845,43.923,113.547,43.923z
			 M113.545,44.495c-0.487,0-0.902,0.179-1.252,0.538c-0.35,0.359-0.523,0.793-0.523,1.3c0,0.329,0.081,0.634,0.24,0.917
			c0.16,0.285,0.372,0.503,0.645,0.658c0.27,0.154,0.565,0.232,0.891,0.232c0.322,0,0.621-0.078,0.892-0.232
			c0.269-0.154,0.484-0.373,0.644-0.658c0.158-0.283,0.238-0.588,0.238-0.917c0-0.507-0.177-0.941-0.525-1.3
			C114.443,44.674,114.027,44.495,113.545,44.495z"/>
		<path fill="#9D9D9C" d="M116.562,44.04h0.621l1.524,3.31l1.505-3.31h0.624l-2.077,4.538h-0.108L116.562,44.04z"/>
		<path fill="#9D9D9C" d="M126.246,44.04v4.538h-0.576v-0.779c-0.245,0.297-0.518,0.521-0.825,0.671
			c-0.303,0.15-0.636,0.225-0.996,0.225c-0.644,0-1.192-0.233-1.647-0.697c-0.454-0.466-0.681-1.035-0.681-1.701
			c0-0.653,0.229-1.213,0.686-1.676c0.461-0.463,1.01-0.697,1.657-0.697c0.372,0,0.709,0.08,1.012,0.238
			c0.3,0.157,0.565,0.396,0.794,0.713V44.04H126.246z M123.912,44.484c-0.323,0-0.624,0.083-0.899,0.24
			c-0.274,0.161-0.494,0.386-0.654,0.675c-0.163,0.288-0.245,0.592-0.245,0.917c0,0.319,0.082,0.625,0.246,0.917
			c0.162,0.291,0.383,0.518,0.66,0.68c0.276,0.163,0.573,0.243,0.889,0.243c0.317,0,0.624-0.08,0.908-0.24
			c0.287-0.162,0.506-0.38,0.66-0.654c0.154-0.276,0.232-0.584,0.232-0.93c0-0.525-0.174-0.963-0.521-1.316
			C124.843,44.662,124.418,44.484,123.912,44.484z"/>
		<path fill="#9D9D9C" d="M128.067,42.354h0.584v1.686h0.927v0.505h-0.927v4.032h-0.584v-4.032h-0.795V44.04h0.795V42.354z"/>
		<path fill="#9D9D9C" d="M130.655,42.171c0.135,0,0.247,0.049,0.341,0.144c0.094,0.094,0.142,0.207,0.142,0.341
			c0,0.13-0.047,0.244-0.142,0.338c-0.094,0.095-0.207,0.143-0.341,0.143c-0.128,0-0.241-0.047-0.334-0.143
			c-0.096-0.095-0.143-0.208-0.143-0.338c0-0.134,0.047-0.247,0.143-0.341C130.414,42.22,130.526,42.171,130.655,42.171z
			 M130.365,44.04h0.585v4.538h-0.585V44.04z"/>
		<path fill="#9D9D9C" d="M134.311,43.923c0.7,0,1.278,0.254,1.736,0.759c0.419,0.462,0.628,1.008,0.628,1.638
			c0,0.634-0.221,1.188-0.66,1.662c-0.445,0.475-1.011,0.712-1.705,0.712c-0.697,0-1.265-0.237-1.705-0.712
			c-0.443-0.474-0.664-1.027-0.664-1.662c0-0.628,0.21-1.173,0.628-1.635C133.028,44.177,133.61,43.923,134.311,43.923z
			 M134.308,44.495c-0.485,0-0.903,0.179-1.25,0.538c-0.346,0.359-0.523,0.793-0.523,1.3c0,0.329,0.078,0.634,0.237,0.917
			c0.16,0.285,0.374,0.503,0.645,0.658c0.27,0.154,0.567,0.232,0.891,0.232s0.623-0.078,0.893-0.232
			c0.269-0.154,0.485-0.373,0.643-0.658c0.16-0.283,0.239-0.588,0.239-0.917c0-0.507-0.175-0.941-0.526-1.3
			C135.208,44.674,134.792,44.495,134.308,44.495z"/>
		<path fill="#9D9D9C" d="M137.757,44.04h0.583v0.812c0.234-0.309,0.493-0.544,0.776-0.698c0.284-0.153,0.592-0.231,0.926-0.231
			c0.338,0,0.641,0.085,0.903,0.258c0.263,0.175,0.458,0.405,0.582,0.696c0.124,0.292,0.186,0.747,0.186,1.364v2.336h-0.583v-2.164
			c0-0.524-0.02-0.874-0.064-1.048c-0.068-0.298-0.197-0.524-0.39-0.677c-0.191-0.152-0.442-0.228-0.751-0.228
			c-0.351,0-0.669,0.117-0.948,0.35c-0.28,0.232-0.463,0.522-0.554,0.868c-0.054,0.226-0.083,0.637-0.083,1.233v1.665h-0.583
			L137.757,44.04L137.757,44.04z"/>
		<path fill="#9D9D9C" d="M145.246,44.536l-0.376,0.389c-0.312-0.304-0.618-0.456-0.915-0.456c-0.191,0-0.353,0.063-0.488,0.188
			c-0.135,0.125-0.202,0.271-0.202,0.438c0,0.146,0.056,0.287,0.167,0.42c0.111,0.136,0.346,0.297,0.702,0.479
			c0.436,0.228,0.73,0.444,0.886,0.651c0.152,0.214,0.231,0.451,0.231,0.714c0,0.373-0.131,0.689-0.393,0.948
			c-0.263,0.258-0.59,0.387-0.982,0.387c-0.262,0-0.512-0.057-0.75-0.17c-0.237-0.114-0.435-0.273-0.592-0.473l0.367-0.417
			c0.299,0.337,0.614,0.505,0.951,0.505c0.232,0,0.432-0.075,0.595-0.226c0.165-0.15,0.247-0.325,0.247-0.529
			c0-0.167-0.052-0.316-0.162-0.446c-0.109-0.129-0.353-0.291-0.735-0.485c-0.411-0.21-0.69-0.42-0.837-0.625
			c-0.149-0.207-0.222-0.441-0.222-0.707c0-0.342,0.118-0.63,0.354-0.859c0.236-0.228,0.531-0.341,0.892-0.341
			C144.403,43.923,144.823,44.126,145.246,44.536z"/>
	</g>
	<path fill="#C6C500" d="M91.689,44.963c1.945,0,3.531,0.594,3.531,1.321c0,0.726-1.586,1.319-3.531,1.319
		c-1.944,0-3.531-0.593-3.531-1.319C88.158,45.557,89.745,44.963,91.689,44.963L91.689,44.963z"/>
</g>
</svg>
