<?xml version="1.0" encoding="utf-8"?>
<!-- Generator: Adobe Illustrator 16.0.0, SVG Export Plug-In . SVG Version: 6.00 Build 0)  -->
<!DOCTYPE svg PUBLIC "-//W3C//DTD SVG 1.1//EN" "http://www.w3.org/Graphics/SVG/1.1/DTD/svg11.dtd">
<svg version="1.1" id="Layer_1" xmlns="http://www.w3.org/2000/svg" xmlns:xlink="http://www.w3.org/1999/xlink" x="0px" y="0px"
	 width="508.5px" height="112px" viewBox="0 0 508.5 112" enable-background="new 0 0 508.5 112" xml:space="preserve">
<polygon fill="#CBCDCB" points="453.393,7.277 14.5,7.277 14.5,104.722 502.25,104.722 "/>
<polygon opacity="0.9" fill="#E6E7E8" points="14.5,101.067 496.563,101.067 449.539,7.277 14.5,7.277 "/>
<g>
	<path fill-rule="evenodd" clip-rule="evenodd" fill="#BEC431" d="M282.574,50.264c3.916,0,7.111,1.195,7.111,2.658
		c0,1.462-3.195,2.655-7.111,2.655c-3.915,0-7.11-1.193-7.11-2.655C275.464,51.459,278.659,50.264,282.574,50.264L282.574,50.264z"
		/>
	<g>
		<path fill-rule="evenodd" clip-rule="evenodd" fill="#BEC431" d="M221.967,43.275c-9.92,0-20.384,0-30.305,0
			c-17.511-1.481-47.159,15.289-17.335,19.154l38.769,0.272l0.544-5.603c-42.648,10.127-55.779-10.541-7.644-10.116l-22.385,6.874
			l7.915-0.038l29.114-7.366L221.967,43.275L221.967,43.275z"/>
		<g>
			<path fill-rule="evenodd" clip-rule="evenodd" fill="#58595B" d="M234.869,35.094l-16.654,27.608h14.472
				c2.432-7.219,5.429-9.02,12.831-8.473l10.784,8.473h15.833l-17.199-9.976c-0.411-0.685-0.547-1.369,0-2.051l23.613-7.421h-15.561
				l-22.522,8.516c-1.093,0.044-1.454-0.274-1.093-0.957l9.145-15.584L234.869,35.094L234.869,35.094z"/>
			<path fill-rule="evenodd" clip-rule="evenodd" fill="#58595B" d="M326.318,56.948l-0.973,5.772H284.4
				c-3.602-0.601-6.398-1.248-8.014-2.394c-10.146-7.188,9.206-17.319,26.839-17.1c10.18,0,20.944,0,31.125,0l-2.069,3.683
				l-26.695-0.395c-1.501,0.143-3.357,0.299-4.608,0.51c-8.913,1.497-17.075,8.442-9.716,12.018
				C294.675,60.511,315.157,57.616,326.318,56.948L326.318,56.948z"/>
			<path fill-rule="evenodd" clip-rule="evenodd" fill="#58595B" d="M340.935,42.737l-6.431,10.592
				c-2.843,4.603-1.596,7.448,4.794,8.893l42.073-0.233l6.264-10.795c2.895-4.692,2.111-7.306-4.278-8.751L340.935,42.737
				L340.935,42.737z M374.807,48.734c0.16-0.837-0.12-1.535-0.914-2.077c-3.858-1.014-9.001-0.622-13.675-0.585
				c-6.473,0.483-9.65,4.696-12.474,9.793c-0.141,1.015,0.158,1.734,1.021,2.145c3.855,1.015,8.997,0.622,13.673,0.585
				C369.05,58.1,372.448,53.713,374.807,48.734L374.807,48.734z"/>
			<path fill-rule="evenodd" clip-rule="evenodd" fill="#58595B" d="M399.424,58.738l-9.013-1.751l-2.459,5.3h24.653
				c23.23,0,17.754-15.938-5.836-11.202c-1.771,0.358-3.721,0.046-2.849-1.61c1.18-2.241,5.112-2.844,10.045-3.11l18.018,0.069
				l2.219-4.096l-19.896,0.018c-13.963,0.013-18.935,6.912-18.681,9.779c0.085,0.999,0.644,3.594,6.658,3.61l9.246,0.024
				C418.13,55.784,415.073,61.787,399.424,58.738L399.424,58.738z"/>
		</g>
		<g opacity="0.5">
			<path fill="#58595B" d="M330.19,64.057c0.283,0,0.524,0.101,0.727,0.302c0.2,0.203,0.299,0.445,0.299,0.729
				c0,0.277-0.099,0.518-0.299,0.717c-0.202,0.203-0.443,0.303-0.727,0.303c-0.277,0-0.517-0.1-0.717-0.303
				c-0.199-0.199-0.3-0.439-0.3-0.717c0-0.284,0.101-0.526,0.3-0.729C329.674,64.157,329.913,64.057,330.19,64.057z M329.574,68.037
				h1.243v9.659h-1.243V68.037z"/>
			<path fill="#58595B" d="M333.398,68.037h1.244v1.729c0.498-0.663,1.047-1.159,1.652-1.488c0.603-0.327,1.262-0.492,1.971-0.492
				c0.723,0,1.362,0.183,1.921,0.55c0.561,0.368,0.973,0.861,1.239,1.484c0.269,0.619,0.399,1.59,0.399,2.902v4.974h-1.242v-4.607
				c0-1.114-0.046-1.858-0.139-2.231c-0.143-0.638-0.419-1.119-0.827-1.441c-0.409-0.322-0.942-0.483-1.601-0.483
				c-0.75,0-1.425,0.249-2.021,0.745c-0.595,0.498-0.986,1.113-1.176,1.848c-0.119,0.477-0.178,1.354-0.178,2.629v3.542h-1.244
				V68.037z"/>
			<path fill="#58595B" d="M344.49,68.037h1.242v1.729c0.5-0.663,1.05-1.159,1.652-1.488c0.605-0.327,1.261-0.492,1.972-0.492
				c0.721,0,1.362,0.183,1.92,0.55c0.56,0.368,0.974,0.861,1.24,1.484c0.267,0.619,0.397,1.59,0.397,2.902v4.974h-1.242v-4.607
				c0-1.114-0.045-1.858-0.139-2.231c-0.143-0.638-0.42-1.119-0.828-1.441s-0.94-0.483-1.597-0.483c-0.752,0-1.427,0.249-2.02,0.745
				c-0.597,0.498-0.99,1.113-1.177,1.848c-0.122,0.477-0.18,1.354-0.18,2.629v3.542h-1.242V68.037z"/>
			<path fill="#58595B" d="M360.152,67.786c1.488,0,2.724,0.539,3.701,1.616c0.887,0.983,1.334,2.145,1.334,3.489
				c0,1.35-0.473,2.529-1.41,3.539c-0.938,1.009-2.149,1.513-3.625,1.513c-1.481,0-2.694-0.504-3.633-1.513
				c-0.939-1.01-1.41-2.189-1.41-3.539c0-1.337,0.445-2.498,1.333-3.479C357.423,68.329,358.659,67.786,360.152,67.786z
				 M360.15,69.004c-1.035,0-1.925,0.381-2.667,1.145c-0.742,0.765-1.113,1.687-1.113,2.771c0,0.696,0.169,1.348,0.507,1.951
				c0.342,0.604,0.796,1.072,1.372,1.398c0.578,0.33,1.211,0.492,1.901,0.492c0.687,0,1.318-0.162,1.896-0.492
				c0.575-0.326,1.033-0.795,1.371-1.398s0.508-1.255,0.508-1.951c0-1.085-0.372-2.007-1.116-2.771
				C362.061,69.385,361.177,69.004,360.15,69.004z"/>
			<path fill="#58595B" d="M366.571,68.037h1.321l3.244,7.04l3.202-7.04h1.334l-4.422,9.659h-0.23L366.571,68.037z"/>
			<path fill="#58595B" d="M387.189,68.037v9.659h-1.226v-1.661c-0.522,0.632-1.106,1.109-1.755,1.429
				c-0.646,0.319-1.356,0.479-2.126,0.479c-1.368,0-2.535-0.497-3.502-1.486c-0.969-0.992-1.452-2.197-1.452-3.619
				c0-1.391,0.488-2.582,1.466-3.568c0.975-0.988,2.151-1.483,3.522-1.483c0.795,0,1.514,0.171,2.154,0.506
				c0.643,0.339,1.205,0.844,1.692,1.519v-1.773H387.189z M382.222,68.986c-0.692,0-1.331,0.17-1.917,0.51s-1.051,0.816-1.397,1.433
				c-0.343,0.613-0.518,1.266-0.518,1.948c0,0.682,0.175,1.331,0.522,1.953c0.351,0.62,0.817,1.104,1.407,1.45
				c0.588,0.347,1.219,0.518,1.894,0.518c0.68,0,1.324-0.171,1.933-0.513c0.607-0.342,1.078-0.807,1.404-1.395
				c0.33-0.584,0.492-1.243,0.492-1.976c0-1.118-0.366-2.053-1.104-2.802C384.204,69.358,383.297,68.986,382.222,68.986z"/>
			<path fill="#58595B" d="M391.069,64.447h1.242v3.59h1.97v1.073h-1.97v8.586h-1.242V69.11h-1.698v-1.073h1.698V64.447z"/>
			<path fill="#58595B" d="M396.578,64.057c0.282,0,0.523,0.101,0.724,0.302c0.203,0.203,0.301,0.445,0.301,0.729
				c0,0.277-0.098,0.518-0.301,0.717c-0.2,0.203-0.441,0.303-0.724,0.303c-0.278,0-0.517-0.1-0.718-0.303
				c-0.199-0.199-0.299-0.439-0.299-0.717c0-0.284,0.1-0.526,0.299-0.729C396.062,64.157,396.3,64.057,396.578,64.057z
				 M395.961,68.037h1.244v9.659h-1.244V68.037z"/>
			<path fill="#58595B" d="M404.36,67.786c1.487,0,2.721,0.539,3.698,1.616c0.89,0.983,1.336,2.145,1.336,3.489
				c0,1.35-0.472,2.529-1.41,3.539c-0.937,1.009-2.148,1.513-3.624,1.513c-1.483,0-2.693-0.504-3.634-1.513
				c-0.941-1.01-1.409-2.189-1.409-3.539c0-1.337,0.445-2.498,1.332-3.479C401.629,68.329,402.866,67.786,404.36,67.786z
				 M404.355,69.004c-1.033,0-1.921,0.381-2.663,1.145c-0.742,0.765-1.117,1.687-1.117,2.771c0,0.696,0.17,1.348,0.511,1.951
				c0.336,0.604,0.795,1.072,1.372,1.398c0.576,0.33,1.208,0.492,1.897,0.492c0.688,0,1.32-0.162,1.898-0.492
				c0.574-0.326,1.032-0.795,1.372-1.398c0.336-0.604,0.508-1.255,0.508-1.951c0-1.085-0.372-2.007-1.119-2.771
				C406.27,69.385,405.383,69.004,404.355,69.004z"/>
			<path fill="#58595B" d="M411.694,68.037h1.241v1.729c0.499-0.663,1.047-1.159,1.653-1.488c0.602-0.327,1.259-0.492,1.971-0.492
				c0.72,0,1.363,0.183,1.924,0.55c0.557,0.368,0.972,0.861,1.236,1.484c0.266,0.619,0.4,1.59,0.4,2.902v4.974h-1.242v-4.607
				c0-1.114-0.048-1.858-0.14-2.231c-0.143-0.638-0.42-1.119-0.828-1.441c-0.41-0.322-0.941-0.483-1.598-0.483
				c-0.752,0-1.428,0.249-2.022,0.745c-0.592,0.498-0.988,1.113-1.175,1.848c-0.119,0.477-0.18,1.354-0.18,2.629v3.542h-1.241
				V68.037z"/>
			<path fill="#58595B" d="M427.642,69.092l-0.8,0.826c-0.665-0.644-1.315-0.97-1.949-0.97c-0.404,0-0.75,0.136-1.037,0.4
				c-0.289,0.268-0.434,0.578-0.434,0.932c0,0.313,0.119,0.612,0.356,0.898c0.236,0.291,0.736,0.631,1.494,1.02
				c0.927,0.479,1.554,0.943,1.888,1.387c0.325,0.449,0.488,0.955,0.488,1.518c0,0.792-0.277,1.465-0.836,2.018
				c-0.557,0.55-1.253,0.823-2.09,0.823c-0.558,0-1.087-0.122-1.594-0.364c-0.511-0.241-0.927-0.577-1.26-1.001l0.78-0.891
				c0.637,0.718,1.308,1.074,2.021,1.074c0.499,0,0.922-0.159,1.272-0.478c0.352-0.319,0.525-0.696,0.525-1.129
				c0-0.354-0.116-0.673-0.348-0.948c-0.23-0.272-0.753-0.616-1.565-1.032c-0.871-0.448-1.466-0.893-1.779-1.33
				c-0.314-0.437-0.472-0.94-0.472-1.5c0-0.733,0.25-1.345,0.752-1.831c0.501-0.483,1.135-0.728,1.899-0.728
				C425.843,67.786,426.738,68.224,427.642,69.092z"/>
		</g>
	</g>
	<path fill-rule="evenodd" clip-rule="evenodd" fill="#BEC431" d="M214.857,35.632c3.915,0,7.11,1.191,7.11,2.656
		c0,1.462-3.195,2.655-7.11,2.655c-3.918,0-7.114-1.193-7.114-2.655C207.744,36.823,210.939,35.632,214.857,35.632L214.857,35.632z"
		/>
	<path fill-rule="evenodd" clip-rule="evenodd" fill="#BEC431" d="M191.492,35.632c3.915,0,7.111,1.191,7.111,2.656
		c0,1.462-3.197,2.655-7.111,2.655c-3.918,0-7.111-1.193-7.111-2.655C184.381,36.823,187.574,35.632,191.492,35.632L191.492,35.632z
		"/>
</g>
<linearGradient id="SVGID_1_" gradientUnits="userSpaceOnUse" x1="223.459" y1="66.2354" x2="170.0326" y2="-51.6168">
	<stop  offset="0" style="stop-color:#FFFFFF"/>
	<stop  offset="1" style="stop-color:#FFFFFF;stop-opacity:0"/>
</linearGradient>
<polygon opacity="0.2" fill-rule="evenodd" clip-rule="evenodd" fill="url(#SVGID_1_)" points="152.001,7.008 14.5,7.008 
	14.5,101.336 152.001,101.336 152.001,101.336 421.482,7.008 "/>
</svg>
