<?xml version="1.0" encoding="utf-8"?>
<!-- Generator: Adobe Illustrator 16.0.0, SVG Export Plug-In . SVG Version: 6.00 Build 0)  -->
<!DOCTYPE svg PUBLIC "-//W3C//DTD SVG 1.1//EN" "http://www.w3.org/Graphics/SVG/1.1/DTD/svg11.dtd">
<svg version="1.1" id="Layer_1" xmlns="http://www.w3.org/2000/svg" xmlns:xlink="http://www.w3.org/1999/xlink" x="0px" y="0px"
	 width="508.5px" height="112px" viewBox="0 0 508.5 112" enable-background="new 0 0 508.5 112" xml:space="preserve">
<polygon fill="#231F20" points="5.5,106.571 500.171,106.571 446.558,10.5 5.5,10.5 "/>
<g>
	<path fill-rule="evenodd" clip-rule="evenodd" fill="#FFFFFF" d="M225.911,37.2l-16.886,27.993h14.673
		c2.466-7.321,5.504-9.146,13.01-8.592l10.934,8.592h16.054l-17.44-10.116c-0.415-0.693-0.554-1.386,0-2.079l23.945-7.524h-15.778
		l-22.836,8.634c-1.108,0.044-1.476-0.28-1.108-0.971l9.272-15.799L225.911,37.2L225.911,37.2z"/>
	<path fill-rule="evenodd" clip-rule="evenodd" fill="#BEC531" d="M212.83,45.496c-10.057,0-20.668,0-30.726,0
		c-17.756-1.502-47.815,15.5-17.577,19.421l39.309,0.277l0.552-5.681c-43.243,10.267-56.556-10.688-7.75-10.255l-22.697,6.968
		l8.026-0.039l29.521-7.47L212.83,45.496L212.83,45.496z"/>
	<path fill-rule="evenodd" clip-rule="evenodd" fill="#FFFFFF" d="M318.635,59.359l-0.987,5.85h-41.514
		c-3.652-0.609-6.49-1.264-8.126-2.425c-10.288-7.288,9.333-17.562,27.212-17.339c10.322,0,21.236,0,31.558,0l-2.098,3.735
		l-27.066-0.4c-1.523,0.145-3.402,0.303-4.673,0.517c-9.037,1.518-17.314,8.558-9.852,12.184
		C286.55,62.969,307.317,60.036,318.635,59.359L318.635,59.359z"/>
	<path fill-rule="evenodd" clip-rule="evenodd" fill="#BEC531" d="M206.098,37.482c4.197,0,7.622,1.278,7.622,2.847
		c0,1.569-3.425,2.848-7.622,2.848c-4.199,0-7.625-1.279-7.625-2.848C198.473,38.761,201.899,37.482,206.098,37.482L206.098,37.482z
		"/>
	<path fill-rule="evenodd" clip-rule="evenodd" fill="#BEC531" d="M181.053,37.482c4.195,0,7.622,1.278,7.622,2.847
		c0,1.569-3.426,2.848-7.622,2.848c-4.2,0-7.623-1.279-7.623-2.848C173.431,38.761,176.854,37.482,181.053,37.482L181.053,37.482z"
		/>
	<path fill-rule="evenodd" clip-rule="evenodd" fill="#FFFFFF" d="M333.454,44.95l-6.521,10.739
		c-2.881,4.667-1.617,7.553,4.861,9.017l42.659-0.236l6.352-10.945c2.932-4.758,2.142-7.409-4.337-8.873L333.454,44.95
		L333.454,44.95z M367.797,51.029c0.161-0.846-0.121-1.552-0.927-2.104c-3.911-1.027-9.126-0.632-13.865-0.593
		c-6.562,0.491-9.786,4.761-12.649,9.929c-0.14,1.03,0.162,1.758,1.037,2.173c3.909,1.029,9.123,0.633,13.864,0.595
		C361.959,60.527,365.405,56.076,367.797,51.029L367.797,51.029z"/>
	<path fill-rule="evenodd" clip-rule="evenodd" fill="#FFFFFF" d="M392.756,61.176l-9.138-1.779l-2.493,5.374h24.997
		c23.556,0,18.002-16.16-5.917-11.355c-1.795,0.361-3.771,0.045-2.888-1.633c1.197-2.275,5.185-2.887,10.184-3.155l18.269,0.07
		l2.249-4.153l-20.173,0.018c-14.157,0.012-19.198,7.008-18.942,9.915c0.089,1.012,0.655,3.644,6.753,3.661l9.375,0.025
		C411.724,58.178,408.623,64.265,392.756,61.176L392.756,61.176z"/>
	<g>
		<path fill="#FFFFFF" d="M322.56,66.566c0.288,0,0.533,0.102,0.736,0.306c0.203,0.204,0.304,0.45,0.304,0.739
			c0,0.281-0.101,0.524-0.304,0.728c-0.203,0.204-0.448,0.307-0.736,0.307c-0.28,0-0.522-0.103-0.726-0.307
			c-0.203-0.204-0.304-0.447-0.304-0.728c0-0.289,0.102-0.535,0.304-0.739C322.037,66.668,322.279,66.566,322.56,66.566z
			 M321.935,70.6h1.26v9.793h-1.26V70.6z"/>
		<path fill="#FFFFFF" d="M325.814,70.6h1.26v1.754c0.504-0.671,1.062-1.174,1.675-1.507c0.611-0.333,1.278-0.5,1.998-0.5
			c0.733,0,1.382,0.187,1.949,0.559c0.567,0.373,0.986,0.874,1.255,1.504c0.271,0.63,0.405,1.611,0.405,2.943v5.041h-1.26v-4.672
			c0-1.128-0.047-1.881-0.14-2.26c-0.146-0.647-0.426-1.135-0.84-1.462c-0.414-0.327-0.955-0.49-1.622-0.49
			c-0.761,0-1.445,0.251-2.049,0.755c-0.604,0.506-1,1.129-1.192,1.874c-0.12,0.485-0.18,1.374-0.18,2.664v3.592h-1.26V70.6z"/>
		<path fill="#FFFFFF" d="M337.059,70.6h1.26v1.754c0.505-0.671,1.063-1.174,1.674-1.507c0.613-0.333,1.278-0.5,1.999-0.5
			c0.732,0,1.382,0.187,1.948,0.559c0.568,0.373,0.986,0.874,1.257,1.504c0.27,0.63,0.403,1.611,0.403,2.943v5.041h-1.26v-4.672
			c0-1.128-0.047-1.881-0.14-2.26c-0.146-0.647-0.426-1.135-0.84-1.462c-0.414-0.327-0.954-0.49-1.621-0.49
			c-0.762,0-1.445,0.251-2.047,0.755c-0.604,0.506-1.001,1.129-1.192,1.874c-0.122,0.485-0.181,1.374-0.181,2.664v3.592h-1.26V70.6z
			"/>
		<path fill="#FFFFFF" d="M352.939,70.347c1.509,0,2.76,0.547,3.752,1.639c0.9,0.998,1.353,2.176,1.353,3.539
			c0,1.369-0.478,2.564-1.43,3.587c-0.953,1.023-2.178,1.535-3.675,1.535c-1.504,0-2.732-0.511-3.685-1.535
			c-0.953-1.023-1.429-2.219-1.429-3.587c0-1.356,0.45-2.533,1.352-3.529C350.171,70.897,351.425,70.347,352.939,70.347z
			 M352.935,71.581c-1.047,0-1.95,0.387-2.702,1.162c-0.752,0.774-1.129,1.71-1.129,2.809c0,0.708,0.172,1.369,0.515,1.98
			c0.345,0.613,0.807,1.085,1.391,1.418c0.585,0.333,1.227,0.499,1.925,0.499c0.698,0,1.34-0.166,1.924-0.499
			c0.583-0.333,1.047-0.806,1.391-1.418c0.343-0.611,0.515-1.272,0.515-1.98c0-1.099-0.377-2.035-1.133-2.809
			C354.875,71.967,353.977,71.581,352.935,71.581z"/>
		<path fill="#FFFFFF" d="M359.447,70.6h1.341l3.288,7.139l3.248-7.139h1.351l-4.483,9.793h-0.234L359.447,70.6z"/>
		<path fill="#FFFFFF" d="M380.352,70.6v9.793h-1.244v-1.683c-0.528,0.642-1.12,1.125-1.778,1.449
			c-0.656,0.324-1.376,0.486-2.156,0.486c-1.386,0-2.57-0.502-3.551-1.508c-0.981-1.005-1.472-2.228-1.472-3.669
			c0-1.409,0.495-2.617,1.486-3.618c0.989-1.002,2.182-1.504,3.574-1.504c0.804,0,1.533,0.172,2.183,0.514
			c0.65,0.343,1.222,0.856,1.715,1.54v-1.8H380.352z M375.315,71.562c-0.702,0-1.349,0.173-1.943,0.517
			c-0.593,0.346-1.066,0.829-1.417,1.453c-0.349,0.623-0.525,1.282-0.525,1.978c0,0.689,0.176,1.349,0.53,1.978
			c0.354,0.63,0.829,1.12,1.426,1.47c0.598,0.352,1.237,0.527,1.92,0.527c0.689,0,1.343-0.174,1.96-0.521
			c0.618-0.348,1.093-0.819,1.424-1.412c0.334-0.594,0.5-1.262,0.5-2.006c0-1.132-0.373-2.08-1.12-2.841
			C377.325,71.943,376.405,71.562,375.315,71.562z"/>
		<path fill="#FFFFFF" d="M384.286,66.962h1.26V70.6h1.999v1.089h-1.999v8.705h-1.26v-8.705h-1.721V70.6h1.721V66.962z"/>
		<path fill="#FFFFFF" d="M389.871,66.566c0.287,0,0.533,0.102,0.735,0.306c0.204,0.204,0.304,0.45,0.304,0.739
			c0,0.281-0.101,0.524-0.304,0.728c-0.203,0.204-0.448,0.307-0.735,0.307c-0.28,0-0.523-0.103-0.726-0.307
			c-0.203-0.204-0.304-0.447-0.304-0.728c0-0.289,0.101-0.535,0.304-0.739C389.348,66.668,389.59,66.566,389.871,66.566z
			 M389.246,70.6h1.26v9.793h-1.26V70.6z"/>
		<path fill="#FFFFFF" d="M397.761,70.347c1.51,0,2.759,0.547,3.751,1.639c0.902,0.998,1.354,2.176,1.354,3.539
			c0,1.369-0.478,2.564-1.43,3.587c-0.951,1.023-2.177,1.535-3.675,1.535c-1.504,0-2.73-0.511-3.683-1.535
			c-0.954-1.023-1.43-2.219-1.43-3.587c0-1.356,0.452-2.533,1.353-3.529C394.993,70.897,396.247,70.347,397.761,70.347z
			 M397.757,71.581c-1.047,0-1.948,0.387-2.7,1.162c-0.753,0.774-1.131,1.71-1.131,2.809c0,0.708,0.171,1.369,0.516,1.98
			c0.343,0.613,0.806,1.085,1.391,1.418c0.584,0.333,1.225,0.499,1.924,0.499c0.698,0,1.34-0.166,1.925-0.499
			c0.583-0.333,1.048-0.806,1.391-1.418c0.342-0.611,0.516-1.272,0.516-1.98c0-1.099-0.378-2.035-1.135-2.809
			C399.697,71.967,398.799,71.581,397.757,71.581z"/>
		<path fill="#FFFFFF" d="M405.198,70.6h1.26v1.754c0.504-0.671,1.062-1.174,1.675-1.507c0.611-0.333,1.277-0.5,1.998-0.5
			c0.731,0,1.382,0.187,1.95,0.559c0.566,0.373,0.986,0.874,1.255,1.504c0.27,0.63,0.405,1.611,0.405,2.943v5.041h-1.26v-4.672
			c0-1.128-0.047-1.881-0.14-2.26c-0.146-0.647-0.426-1.135-0.84-1.462c-0.416-0.327-0.954-0.49-1.622-0.49
			c-0.761,0-1.445,0.251-2.049,0.755c-0.602,0.506-1.001,1.129-1.192,1.874c-0.121,0.485-0.181,1.374-0.181,2.664v3.592h-1.26V70.6z
			"/>
		<path fill="#FFFFFF" d="M421.366,71.671l-0.81,0.837c-0.674-0.654-1.333-0.981-1.977-0.981c-0.41,0-0.76,0.136-1.051,0.405
			c-0.292,0.271-0.439,0.585-0.439,0.945c0,0.318,0.121,0.622,0.361,0.91c0.241,0.293,0.747,0.639,1.516,1.034
			c0.94,0.486,1.576,0.955,1.914,1.405c0.33,0.457,0.495,0.969,0.495,1.539c0,0.804-0.281,1.485-0.848,2.043
			c-0.564,0.558-1.271,0.837-2.118,0.837c-0.566,0-1.104-0.123-1.618-0.369c-0.515-0.246-0.939-0.586-1.276-1.017l0.792-0.9
			c0.645,0.726,1.327,1.088,2.049,1.088c0.505,0,0.935-0.162,1.29-0.485c0.355-0.324,0.533-0.706,0.533-1.144
			c0-0.36-0.117-0.682-0.352-0.962c-0.233-0.277-0.763-0.625-1.588-1.045c-0.883-0.456-1.486-0.906-1.804-1.35
			c-0.319-0.443-0.479-0.951-0.479-1.521c0-0.744,0.254-1.363,0.762-1.855c0.509-0.491,1.15-0.739,1.926-0.739
			C419.544,70.347,420.452,70.789,421.366,71.671z"/>
	</g>
	<path fill-rule="evenodd" clip-rule="evenodd" fill="#BEC531" d="M305.754,72.594c4.198,0,7.623,1.28,7.623,2.849
		c0,1.567-3.425,2.846-7.623,2.846c-4.197,0-7.622-1.278-7.622-2.846C298.132,73.874,301.557,72.594,305.754,72.594L305.754,72.594z
		"/>
</g>
</svg>
