<svg xmlns="http://www.w3.org/2000/svg" width="585.667" height="138.333" viewBox="0 0 585.667 138.333"><path fill="#231F20" d="M4.972 131.763h559.645L495.057 7.116H4.972z"/><path fill-rule="evenodd" clip-rule="evenodd" fill="#fff" d="M208.78 41.758l-21.908 36.32h19.037c3.19-9.498 7.14-11.867 16.87-11.148l14.18 11.148h20.83l-22.62-13.125c-.54-.9-.72-1.8 0-2.698l31.06-9.76h-20.47l-29.63 11.2c-1.44.058-1.92-.362-1.44-1.26l12.03-20.498-17.96-.18z"/><path fill-rule="evenodd" clip-rule="evenodd" fill="#BEC531" d="M191.808 52.52h-39.865c-23.038-1.95-62.038 20.11-22.806 25.198l51 .36.718-7.372C124.75 84.026 107.477 56.84 170.798 57.4l-29.448 9.04 10.413-.05 38.3-9.69 1.745-4.18z"/><path fill-rule="evenodd" clip-rule="evenodd" fill="#fff" d="M329.084 70.51l-1.28 7.59H273.94c-4.738-.79-8.42-1.64-10.543-3.147-13.348-9.456 12.11-22.785 35.306-22.496h40.945l-2.723 4.846-35.117-.52c-1.977.188-4.414.394-6.062.67-11.726 1.97-22.464 11.105-12.782 15.81 4.492 1.93 31.436-1.877 46.12-2.754z"/><path fill-rule="evenodd" clip-rule="evenodd" fill="#BEC531" d="M183.073 42.125c5.445 0 9.89 1.658 9.89 3.693s-4.444 3.695-9.89 3.695c-5.447 0-9.893-1.66-9.893-3.695s4.446-3.693 9.893-3.693zm-32.493 0c5.442 0 9.888 1.658 9.888 3.693s-4.445 3.695-9.89 3.695c-5.447 0-9.89-1.66-9.89-3.695s4.443-3.693 9.89-3.693z"/><path fill-rule="evenodd" clip-rule="evenodd" fill="#fff" d="M348.31 51.813l-8.46 13.933c-3.738 6.055-2.098 9.8 6.307 11.7l55.348-.307 8.24-14.21c3.805-6.18 2.78-9.61-5.627-11.51l-55.807.38zm44.56 7.887c.208-1.098-.157-2.014-1.204-2.73-5.074-1.333-11.84-.82-17.988-.77-8.514.637-12.697 6.177-16.412 12.883-.182 1.336.21 2.28 1.346 2.82 5.072 1.334 11.836.82 17.988.77 8.695-.65 13.166-6.424 16.27-12.973zm32.382 13.165l-11.855-2.308-3.234 6.973h32.432c30.562 0 23.357-20.967-7.678-14.733-2.328.468-4.893.06-3.746-2.12 1.56-2.95 6.73-3.744 13.22-4.093l23.71.09 2.92-5.387-26.17.023c-18.36.016-24.9 9.093-24.57 12.864.12 1.313.85 4.728 8.76 4.75l12.17.033c8.68.02 4.66 7.916-15.93 3.908z"/><path d="M334.176 79.86c.373 0 .69.132.955.396s.4.584.4.958c0 .366-.13.68-.39.945s-.58.39-.95.39c-.36 0-.68-.14-.94-.4s-.39-.58-.39-.95c0-.38.13-.7.4-.96.27-.27.58-.4.94-.4zm-.81 5.233H335V97.8h-1.635V85.093zm5.032 0h1.635v2.276c.654-.88 1.38-1.53 2.174-1.96.793-.43 1.658-.65 2.592-.65.95 0 1.79.24 2.52.72s1.28 1.13 1.63 1.95c.35.81.52 2.09.52 3.82v6.54h-1.64v-6.06c0-1.47-.06-2.44-.18-2.93-.19-.84-.56-1.48-1.09-1.9-.54-.43-1.24-.64-2.11-.64-.99 0-1.88.32-2.66.98-.79.65-1.3 1.46-1.55 2.43-.16.63-.24 1.78-.24 3.45v4.66h-1.64v-12.7zm14.59 0h1.635v2.276c.654-.88 1.38-1.53 2.172-1.96.795-.43 1.658-.65 2.594-.65.94 0 1.79.24 2.52.72s1.28 1.13 1.63 1.95c.35.81.52 2.09.52 3.82v6.54h-1.64v-6.06c0-1.47-.06-2.44-.18-2.93-.19-.84-.56-1.48-1.09-1.9-.54-.43-1.24-.64-2.11-.64-.99 0-1.88.32-2.66.98-.79.65-1.3 1.46-1.55 2.43-.16.63-.23 1.78-.23 3.45v4.66h-1.64v-12.7zm20.604-.328c1.957 0 3.58.71 4.867 2.126 1.16 1.3 1.75 2.83 1.75 4.59 0 1.78-.62 3.33-1.86 4.66s-2.83 1.99-4.77 1.99c-1.95 0-3.55-.66-4.78-1.99-1.24-1.32-1.86-2.88-1.86-4.65 0-1.76.58-3.28 1.75-4.58 1.29-1.42 2.91-2.13 4.88-2.13zm-.006 1.6c-1.36 0-2.53.502-3.506 1.507-.977 1.004-1.465 2.22-1.465 3.644 0 .92.223 1.776.668 2.57.447.794 1.047 1.407 1.805 1.84.76.432 1.592.647 2.498.647s1.738-.216 2.496-.647c.758-.433 1.36-1.046 1.805-1.84.445-.794.668-1.65.668-2.57 0-1.425-.49-2.64-1.47-3.644-.98-1.005-2.147-1.507-3.5-1.507zm8.45-1.272h1.74l4.265 9.263 4.22-9.263h1.75L388.19 97.8h-.302l-5.853-12.707zm27.122 0V97.8h-1.613v-2.184c-.686.833-1.453 1.46-2.307 1.88-.852.42-1.785.63-2.797.63-1.79 0-3.33-.652-4.6-1.956-1.27-1.305-1.91-2.89-1.91-4.76 0-1.83.65-3.395 1.93-4.695 1.29-1.3 2.83-1.95 4.64-1.95 1.05 0 1.99.222 2.83.665.85.444 1.59 1.11 2.23 1.998v-2.335h1.61zm-6.535 1.25c-.91 0-1.75.224-2.52.67-.77.448-1.384 1.075-1.84 1.885-.452.808-.68 1.663-.68 2.566 0 .894.228 1.75.687 2.566.46.817 1.076 1.453 1.85 1.907.775.456 1.605.683 2.492.683.895 0 1.742-.226 2.543-.676.8-.45 1.418-1.062 1.848-1.832.434-.77.648-1.637.648-2.603 0-1.47-.48-2.7-1.45-3.69-.97-.99-2.16-1.48-3.57-1.48zm11.64-5.97h1.634v4.72h2.594v1.413h-2.59V97.8h-1.63V86.506h-2.23v-1.413h2.24v-4.72zm7.245-.513c.373 0 .69.132.955.396.264.264.395.584.395.958 0 .366-.13.68-.395.945s-.582.39-.955.39c-.363 0-.678-.14-.94-.4s-.396-.58-.396-.95c0-.38.13-.7.395-.96.263-.27.578-.4.94-.4zm-.81 5.233h1.634V97.8h-1.635V85.093zm11.048-.328c1.96 0 3.58.71 4.867 2.126 1.17 1.3 1.756 2.83 1.756 4.59 0 1.78-.62 3.33-1.86 4.66-1.24 1.33-2.83 1.99-4.77 1.99-1.95 0-3.55-.66-4.78-1.99-1.24-1.32-1.86-2.88-1.86-4.65 0-1.76.58-3.28 1.75-4.58 1.28-1.42 2.91-2.13 4.88-2.13zm-.006 1.6c-1.36 0-2.527.502-3.504 1.507-.977 1.004-1.467 2.22-1.467 3.644 0 .92.22 1.776.67 2.57.44.794 1.04 1.407 1.8 1.84.76.432 1.59.647 2.49.647s1.73-.216 2.49-.647c.75-.433 1.36-1.046 1.8-1.84.44-.794.66-1.65.66-2.57 0-1.425-.49-2.64-1.48-3.644-.98-1.005-2.15-1.507-3.5-1.507zm9.655-1.272h1.635v2.276c.654-.88 1.38-1.53 2.174-1.96.793-.43 1.656-.65 2.592-.65.95 0 1.793.24 2.53.72.733.48 1.278 1.13 1.628 1.95.35.81.525 2.09.525 3.82v6.54h-1.64v-6.06c0-1.47-.06-2.44-.18-2.93-.19-.84-.56-1.48-1.09-1.9-.54-.43-1.24-.64-2.11-.64-.99 0-1.88.32-2.66.98-.78.65-1.3 1.46-1.55 2.43-.16.63-.24 1.78-.24 3.45v4.66h-1.64v-12.7zm20.975 1.39l-1.05 1.085c-.875-.85-1.73-1.273-2.564-1.273-.53 0-.986.177-1.363.525-.38.35-.57.76-.57 1.227 0 .413.156.807.47 1.18.31.382.968.83 1.966 1.343 1.21.63 2.04 1.24 2.48 1.823.43.593.64 1.257.64 1.997 0 1.043-.37 1.927-1.1 2.65-.73.725-1.65 1.087-2.75 1.087-.74 0-1.44-.16-2.1-.48-.67-.318-1.22-.76-1.66-1.32l1.02-1.167c.83.942 1.72 1.413 2.66 1.413.65 0 1.21-.21 1.67-.63.46-.42.69-.916.69-1.484 0-.47-.15-.89-.46-1.25-.31-.36-.99-.82-2.06-1.36-1.15-.59-1.93-1.18-2.34-1.75-.42-.58-.62-1.24-.62-1.98 0-.97.33-1.77.99-2.41.66-.64 1.49-.96 2.49-.96 1.17 0 2.35.57 3.53 1.72z" fill="#fff"/><path fill-rule="evenodd" clip-rule="evenodd" fill="#BEC531" d="M312.37 87.68c5.448 0 9.892 1.66 9.892 3.696 0 2.034-4.443 3.692-9.89 3.692-5.446 0-9.89-1.658-9.89-3.692 0-2.035 4.444-3.696 9.89-3.696z"/></svg>