<?xml version="1.0" encoding="utf-8"?>
<!-- Generator: Adobe Illustrator 16.0.0, SVG Export Plug-In . SVG Version: 6.00 Build 0)  -->
<!DOCTYPE svg PUBLIC "-//W3C//DTD SVG 1.1//EN" "http://www.w3.org/Graphics/SVG/1.1/DTD/svg11.dtd">
<svg version="1.1" id="Layer_1" xmlns="http://www.w3.org/2000/svg" xmlns:xlink="http://www.w3.org/1999/xlink" x="0px" y="0px"
	 width="585.667px" height="138.333px" viewBox="0 0 585.667 138.333" enable-background="new 0 0 585.667 138.333"
	 xml:space="preserve">
<polygon fill="#231F20" points="4.972,131.763 564.617,131.763 495.057,7.116 4.972,7.116 "/>
<g>
	<path fill-rule="evenodd" clip-rule="evenodd" fill="#FFFFFF" d="M208.78,41.758l-21.908,36.32h19.037
		c3.199-9.498,7.141-11.867,16.879-11.148l14.186,11.148h20.83l-22.627-13.125c-0.539-0.899-0.719-1.799,0-2.698l31.066-9.761
		h-20.471l-29.629,11.202c-1.438,0.057-1.914-0.363-1.438-1.26l12.031-20.499L208.78,41.758L208.78,41.758z"/>
	<path fill-rule="evenodd" clip-rule="evenodd" fill="#BEC531" d="M191.808,52.521c-13.049,0-26.816,0-39.865,0
		c-23.038-1.95-62.038,20.11-22.806,25.197l51.001,0.359l0.717-7.371c-56.106,13.321-73.378-13.867-10.057-13.306l-29.448,9.041
		l10.413-0.05l38.301-9.692L191.808,52.521L191.808,52.521z"/>
	<path fill-rule="evenodd" clip-rule="evenodd" fill="#FFFFFF" d="M329.084,70.509l-1.281,7.59H273.94
		c-4.738-0.79-8.42-1.64-10.543-3.146c-13.348-9.456,12.109-22.785,35.306-22.496c13.393,0,27.553,0,40.945,0l-2.723,4.846
		l-35.117-0.52c-1.977,0.188-4.414,0.394-6.062,0.671c-11.726,1.969-22.464,11.104-12.782,15.808
		C287.456,75.192,314.4,71.386,329.084,70.509L329.084,70.509z"/>
	<path fill-rule="evenodd" clip-rule="evenodd" fill="#BEC531" d="M183.073,42.125c5.445,0,9.889,1.658,9.889,3.693
		s-4.443,3.695-9.889,3.695c-5.447,0-9.893-1.66-9.893-3.695S177.626,42.125,183.073,42.125L183.073,42.125z"/>
	<path fill-rule="evenodd" clip-rule="evenodd" fill="#BEC531" d="M150.579,42.125c5.443,0,9.889,1.658,9.889,3.693
		s-4.445,3.695-9.889,3.695c-5.448,0-9.89-1.66-9.89-3.695S145.131,42.125,150.579,42.125L150.579,42.125z"/>
	<path fill-rule="evenodd" clip-rule="evenodd" fill="#FFFFFF" d="M348.311,51.813l-8.461,13.933
		c-3.738,6.055-2.098,9.8,6.307,11.699l55.348-0.306l8.24-14.201c3.805-6.174,2.779-9.612-5.627-11.512L348.311,51.813
		L348.311,51.813z M392.869,59.7c0.209-1.098-0.156-2.014-1.203-2.73c-5.074-1.333-11.84-0.82-17.988-0.77
		c-8.514,0.637-12.697,6.177-16.412,12.883c-0.182,1.336,0.211,2.281,1.346,2.819c5.072,1.335,11.836,0.822,17.988,0.772
		C385.295,72.023,389.766,66.249,392.869,59.7L392.869,59.7z"/>
	<path fill-rule="evenodd" clip-rule="evenodd" fill="#FFFFFF" d="M425.252,72.865l-11.855-2.308l-3.234,6.973h32.432
		c30.562,0,23.357-20.967-7.678-14.733c-2.328,0.468-4.893,0.059-3.746-2.119c1.553-2.952,6.727-3.745,13.213-4.094l23.703,0.091
		l2.918-5.388l-26.174,0.023c-18.367,0.016-24.908,9.093-24.576,12.864c0.115,1.313,0.85,4.728,8.762,4.75l12.164,0.033
		C449.861,68.977,445.838,76.873,425.252,72.865L425.252,72.865z"/>
	<g>
		<path fill="#FFFFFF" d="M334.176,79.859c0.373,0,0.691,0.133,0.955,0.397c0.264,0.264,0.395,0.584,0.395,0.958
			c0,0.366-0.131,0.681-0.395,0.945s-0.582,0.397-0.955,0.397c-0.363,0-0.678-0.133-0.941-0.397s-0.395-0.58-0.395-0.945
			c0-0.374,0.131-0.694,0.395-0.958C333.498,79.992,333.812,79.859,334.176,79.859z M333.365,85.093H335V97.8h-1.635V85.093z"/>
		<path fill="#FFFFFF" d="M338.398,85.093h1.635v2.276c0.654-0.871,1.379-1.523,2.174-1.956c0.793-0.432,1.658-0.648,2.592-0.648
			c0.951,0,1.793,0.242,2.529,0.725c0.736,0.483,1.279,1.133,1.629,1.951c0.352,0.817,0.525,2.091,0.525,3.818V97.8h-1.635v-6.062
			c0-1.463-0.061-2.441-0.182-2.932c-0.189-0.84-0.553-1.473-1.09-1.897c-0.537-0.424-1.238-0.636-2.104-0.636
			c-0.988,0-1.875,0.327-2.658,0.979c-0.783,0.656-1.297,1.465-1.547,2.431c-0.156,0.63-0.234,1.782-0.234,3.457v4.66h-1.635V85.093
			z"/>
		<path fill="#FFFFFF" d="M352.988,85.093h1.635v2.276c0.654-0.871,1.379-1.523,2.172-1.956c0.795-0.432,1.658-0.648,2.594-0.648
			c0.949,0,1.793,0.242,2.527,0.725c0.736,0.483,1.279,1.133,1.631,1.951c0.35,0.817,0.523,2.091,0.523,3.818V97.8h-1.635v-6.062
			c0-1.463-0.061-2.441-0.182-2.932c-0.189-0.84-0.553-1.473-1.09-1.897c-0.537-0.424-1.238-0.636-2.104-0.636
			c-0.988,0-1.875,0.327-2.656,0.979c-0.783,0.656-1.299,1.465-1.547,2.431c-0.158,0.63-0.234,1.782-0.234,3.457v4.66h-1.635V85.093
			z"/>
		<path fill="#FFFFFF" d="M373.592,84.765c1.957,0,3.58,0.709,4.867,2.126c1.168,1.294,1.756,2.823,1.756,4.59
			c0,1.776-0.619,3.328-1.855,4.655c-1.236,1.328-2.826,1.991-4.768,1.991c-1.951,0-3.545-0.663-4.781-1.991
			c-1.236-1.327-1.854-2.879-1.854-4.655c0-1.759,0.584-3.286,1.754-4.579C370,85.478,371.627,84.765,373.592,84.765z
			 M373.586,86.365c-1.359,0-2.529,0.502-3.506,1.507c-0.977,1.004-1.465,2.219-1.465,3.644c0,0.919,0.223,1.776,0.668,2.569
			c0.447,0.795,1.047,1.408,1.805,1.841c0.76,0.432,1.592,0.647,2.498,0.647s1.738-0.216,2.496-0.647
			c0.758-0.433,1.359-1.046,1.805-1.841c0.445-0.793,0.668-1.65,0.668-2.569c0-1.425-0.49-2.64-1.471-3.644
			C376.104,86.867,374.938,86.365,373.586,86.365z"/>
		<path fill="#FFFFFF" d="M382.035,85.093h1.74l4.266,9.263l4.215-9.263h1.752L388.191,97.8h-0.303L382.035,85.093z"/>
		<path fill="#FFFFFF" d="M409.158,85.093V97.8h-1.613v-2.184c-0.686,0.833-1.453,1.46-2.307,1.88
			c-0.852,0.42-1.785,0.63-2.797,0.63c-1.799,0-3.334-0.652-4.607-1.956c-1.273-1.305-1.91-2.891-1.91-4.76
			c0-1.829,0.643-3.395,1.928-4.695c1.283-1.3,2.83-1.951,4.637-1.951c1.043,0,1.988,0.223,2.832,0.666
			c0.844,0.444,1.586,1.11,2.225,1.998v-2.335H409.158z M402.623,86.342c-0.91,0-1.75,0.225-2.521,0.671
			c-0.77,0.448-1.383,1.075-1.838,1.885c-0.453,0.808-0.682,1.663-0.682,2.566c0,0.894,0.229,1.75,0.688,2.566
			c0.459,0.817,1.076,1.453,1.85,1.907c0.775,0.456,1.605,0.683,2.492,0.683c0.895,0,1.742-0.226,2.543-0.676
			c0.801-0.451,1.418-1.062,1.848-1.832c0.434-0.771,0.648-1.637,0.648-2.603c0-1.469-0.484-2.698-1.453-3.686
			C405.23,86.835,404.037,86.342,402.623,86.342z"/>
		<path fill="#FFFFFF" d="M414.262,80.373h1.635v4.72h2.594v1.413h-2.594V97.8h-1.635V86.506h-2.232v-1.413h2.232V80.373z"/>
		<path fill="#FFFFFF" d="M421.508,79.859c0.373,0,0.691,0.133,0.955,0.397c0.264,0.264,0.395,0.584,0.395,0.958
			c0,0.366-0.131,0.681-0.395,0.945s-0.582,0.397-0.955,0.397c-0.363,0-0.678-0.133-0.941-0.397s-0.395-0.58-0.395-0.945
			c0-0.374,0.131-0.694,0.395-0.958C420.83,79.992,421.145,79.859,421.508,79.859z M420.697,85.093h1.635V97.8h-1.635V85.093z"/>
		<path fill="#FFFFFF" d="M431.746,84.765c1.959,0,3.58,0.709,4.867,2.126c1.17,1.294,1.756,2.823,1.756,4.59
			c0,1.776-0.619,3.328-1.855,4.655c-1.234,1.328-2.824,1.991-4.768,1.991c-1.951,0-3.543-0.663-4.779-1.991
			c-1.236-1.327-1.855-2.879-1.855-4.655c0-1.759,0.586-3.286,1.756-4.579C428.154,85.478,429.781,84.765,431.746,84.765z
			 M431.74,86.365c-1.359,0-2.527,0.502-3.504,1.507c-0.977,1.004-1.467,2.219-1.467,3.644c0,0.919,0.223,1.776,0.67,2.569
			c0.445,0.795,1.045,1.408,1.805,1.841c0.758,0.432,1.59,0.647,2.496,0.647s1.738-0.216,2.498-0.647
			c0.756-0.433,1.359-1.046,1.805-1.841c0.443-0.793,0.668-1.65,0.668-2.569c0-1.425-0.49-2.64-1.473-3.644
			C434.258,86.867,433.092,86.365,431.74,86.365z"/>
		<path fill="#FFFFFF" d="M441.395,85.093h1.635v2.276c0.654-0.871,1.379-1.523,2.174-1.956c0.793-0.432,1.656-0.648,2.592-0.648
			c0.949,0,1.793,0.242,2.529,0.725c0.734,0.483,1.279,1.133,1.629,1.951c0.35,0.817,0.525,2.091,0.525,3.818V97.8h-1.635v-6.062
			c0-1.463-0.061-2.441-0.182-2.932c-0.189-0.84-0.553-1.473-1.09-1.897c-0.539-0.424-1.238-0.636-2.104-0.636
			c-0.988,0-1.875,0.327-2.658,0.979c-0.781,0.656-1.299,1.465-1.547,2.431c-0.156,0.63-0.234,1.782-0.234,3.457v4.66h-1.635V85.093
			z"/>
		<path fill="#FFFFFF" d="M462.371,86.482l-1.051,1.086c-0.875-0.849-1.729-1.273-2.564-1.273c-0.531,0-0.986,0.177-1.363,0.525
			c-0.379,0.351-0.57,0.76-0.57,1.227c0,0.413,0.156,0.807,0.469,1.181c0.312,0.381,0.969,0.829,1.967,1.342
			c1.219,0.631,2.045,1.239,2.482,1.823c0.428,0.593,0.643,1.257,0.643,1.997c0,1.043-0.365,1.927-1.1,2.651
			c-0.732,0.724-1.648,1.086-2.748,1.086c-0.734,0-1.434-0.159-2.1-0.479c-0.668-0.319-1.219-0.76-1.656-1.32l1.027-1.168
			c0.836,0.942,1.721,1.413,2.658,1.413c0.656,0,1.213-0.21,1.674-0.63c0.461-0.421,0.691-0.916,0.691-1.484
			c0-0.467-0.152-0.884-0.457-1.249c-0.303-0.36-0.99-0.812-2.061-1.356c-1.146-0.591-1.928-1.175-2.34-1.752
			c-0.414-0.575-0.621-1.234-0.621-1.973c0-0.966,0.33-1.769,0.988-2.407c0.66-0.638,1.492-0.958,2.498-0.958
			C460.008,84.765,461.186,85.338,462.371,86.482z"/>
	</g>
	<path fill-rule="evenodd" clip-rule="evenodd" fill="#BEC531" d="M312.371,87.68c5.447,0,9.891,1.661,9.891,3.696
		c0,2.034-4.443,3.692-9.891,3.692c-5.445,0-9.889-1.658-9.889-3.692C302.482,89.341,306.926,87.68,312.371,87.68L312.371,87.68z"/>
</g>
</svg>
