<svg xmlns="http://www.w3.org/2000/svg" xmlns:xlink="http://www.w3.org/1999/xlink" version="1.1" id="Layer_1" x="0" y="0" width="100.18" height="114" viewBox="0 0 100.18 114" enable-background="new 0 0 100.182 114" xml:space="preserve">
  <text transform="matrix(1 0 0 1 29.8652 74.1138)" fill="#171717" font-family="'GandhiSans-Bold'" font-size="9.96">
    BUY NOW
  </text>
  <path opacity="0.5" fill="#FFFFFF" stroke="#FFFFFF" stroke-width="11.31" stroke-miterlimit="10" d="M78.01 29.52l0.09-0.09c-15.26-15.26-39.99-15.26-55.25 0 -10.74 10.74-13.91 26.18-9.53 39.7 0.05 0.2 0.1 0.3 0.1 0.5 0.08 0.2 0.2 0.5 0.2 0.7 1.22 3.5 2.9 6.7 5 9.63l-1.9 5.72 -2.97 8.94 8.94-2.97 5.86-1.95c6.25 4.2 13.8 6.7 21.9 6.74 21.58 0 39.07-17.49 39.07-39.07C89.64 46.4 85.2 36.6 78 29.52z"/>
  <linearGradient id="SVGID_1_" gradientUnits="userSpaceOnUse" x1="-993.1" y1="57.3" x2="-915" y2="57.3" gradientTransform="matrix(-1 0 0 1 -903.4824 0)">
    <stop offset="0.01" stop-color="#DDCE22"/>
    <stop offset="0.3" stop-color="#BEC331"/>
    <stop offset="1" stop-color="#8EAE2C"/>
  </linearGradient>
  <path fill="url(#SVGID_1_)" d="M18.71 79.91c-4.53-6.38-7.2-14.17-7.2-22.59 0-21.58 17.49-39.07 39.07-39.07s39.07 17.5 39.1 39.07c0 21.58-17.49 39.07-39.07 39.07 -8.13 0-15.68-2.49-21.93-6.74l-5.86 1.95 -8.94 3 2.97-8.94L18.71 79.91z"/>
  <path opacity="0.2" fill="#FFFFFF" d="M78.1 29.43c-15.26-15.26-39.99-15.26-55.25 0 -15.26 15.26-15.26 40 0 55.2"/>
  <linearGradient id="SVGID_2_" gradientUnits="userSpaceOnUse" x1="-954.4" y1="23.8" x2="-954.4" y2="91.4" gradientTransform="matrix(-1 0 0 1 -903.4824 0)">
    <stop offset="0.01" stop-color="#DDCE22"/>
    <stop offset="0.3" stop-color="#BEC331"/>
    <stop offset="1" stop-color="#8EAE2C"/>
  </linearGradient>
  <path fill="url(#SVGID_2_)" d="M17.11 57.61c0 18.7 15.1 33.8 33.8 33.79s33.79-15.13 33.79-33.79c0-18.66-15.13-33.79-33.79-33.79S17.11 38.9 17.1 57.61z"/>
  <path fill="#171717" d="M65.31 42.2c-0.22-0.3-0.58-0.47-0.95-0.47h-9.44H53.52 40.31l-1-3c-0.12-0.37-0.42-0.66-0.8-0.77l-4.17-1.19c-0.63-0.18-1.29 0.18-1.47 0.82 -0.19 0.6 0.2 1.3 0.8 1.5l3.57 1.02 4.55 13.65 -0.96 3.1c-1.31 0.36-2.28 1.55-2.28 2.98 0 1.7 1.4 3.1 3.1 3.1 1.3 0 2.4-0.79 2.87-1.91h9.67c0.47 1.1 1.6 1.9 2.9 1.91 1.72 0 3.11-1.39 3.11-3.11 0-1.71-1.39-3.1-3.11-3.1 -1.29 0-2.4 0.79-2.87 1.91h-9.67c-0.26-0.62-0.72-1.13-1.29-1.47l0.7-2.24H60.55c1.16 0 2.08-0.83 2.18-1.94l2.78-9.73C65.61 42.9 65.5 42.5 65.3 42.2zM55.54 44.1h3.27l-1.65 8.4h-1.57L55.54 44.1zM53.61 44.1h0.03l0.04 8.41h-2.14l-1.09-8.41H53.61zM49.65 52.52h-2.56l-1.66-8.41h3.13L49.65 52.52zM43.93 52.52l-2.64-8.41h2.2l1.66 8.41H43.93zM60.4 52.44c-0.01 0.03-0.01 0.05-0.02 0.1H59.08l1.65-8.41h2.04L60.4 52.44z"/>
  <text transform="matrix(1 0 0 1 29.8652 74.1138)" fill="#171717" font-family="'GandhiSans-Bold'" font-size="9.96">
    BUY NOW
  </text>
</svg>
