<?xml version="1.0" encoding="utf-8"?>
<!-- Generator: Adobe Illustrator 16.0.0, SVG Export Plug-In . SVG Version: 6.00 Build 0)  -->
<!DOCTYPE svg PUBLIC "-//W3C//DTD SVG 1.1//EN" "http://www.w3.org/Graphics/SVG/1.1/DTD/svg11.dtd">
<svg version="1.1" id="Layer_1" xmlns="http://www.w3.org/2000/svg" xmlns:xlink="http://www.w3.org/1999/xlink" x="0px" y="0px"
	 width="100.182px" height="114px" viewBox="0 0 100.182 114" enable-background="new 0 0 100.182 114" xml:space="preserve">
<g>
	<text transform="matrix(1 0 0 1 29.8652 74.1138)" fill="#171717" font-family="'GandhiSans-Bold'" font-size="9.9579">BUY NOW</text>
	<path opacity="0.5" fill="#FFFFFF" stroke="#FFFFFF" stroke-width="11.3137" stroke-miterlimit="10" d="M78.011,29.519l0.093-0.092
		c-15.257-15.256-39.992-15.256-55.25,0c-10.74,10.74-13.908,26.175-9.527,39.695c0.049,0.154,0.098,0.307,0.148,0.459
		c0.078,0.235,0.158,0.469,0.242,0.702c1.219,3.456,2.904,6.693,4.989,9.627l-1.898,5.718l-2.969,8.938l8.937-2.969l5.861-1.947
		c6.253,4.25,13.802,6.737,21.932,6.737c21.576,0,39.067-17.493,39.067-39.068C89.636,46.439,85.186,36.603,78.011,29.519z"/>
	<g>
		
			<linearGradient id="SVGID_1_" gradientUnits="userSpaceOnUse" x1="-993.1182" y1="57.3188" x2="-914.9834" y2="57.3188" gradientTransform="matrix(-1 0 0 1 -903.4824 0)">
			<stop  offset="0.0057" style="stop-color:#DDCE22"/>
			<stop  offset="0.3" style="stop-color:#BEC331"/>
			<stop  offset="1" style="stop-color:#8EAE2C"/>
		</linearGradient>
		<path fill="url(#SVGID_1_)" d="M18.706,79.91c-4.532-6.379-7.205-14.171-7.205-22.592c0-21.576,17.491-39.067,39.067-39.067
			s39.067,17.491,39.067,39.067c0,21.576-17.491,39.068-39.067,39.068c-8.13,0-15.679-2.487-21.932-6.737l-5.861,1.947l-8.937,2.969
			l2.969-8.938L18.706,79.91z"/>
		<path opacity="0.2" fill="#FFFFFF" d="M78.104,29.427c-15.257-15.256-39.992-15.256-55.25,0c-15.257,15.256-15.257,39.993,0,55.25
			"/>
		
			<linearGradient id="SVGID_2_" gradientUnits="userSpaceOnUse" x1="-954.3853" y1="23.8203" x2="-954.3853" y2="91.3994" gradientTransform="matrix(-1 0 0 1 -903.4824 0)">
			<stop  offset="0.0057" style="stop-color:#DDCE22"/>
			<stop  offset="0.3" style="stop-color:#BEC331"/>
			<stop  offset="1" style="stop-color:#8EAE2C"/>
		</linearGradient>
		<path fill="url(#SVGID_2_)" d="M17.11,57.612c0,18.659,15.138,33.787,33.796,33.787s33.789-15.128,33.789-33.787
			c0-18.663-15.131-33.792-33.789-33.792S17.11,38.949,17.11,57.612z"/>
		<path fill="#171717" d="M65.311,42.195c-0.223-0.301-0.578-0.474-0.952-0.474h-9.443H53.52H40.314l-0.996-2.996
			c-0.125-0.375-0.424-0.661-0.805-0.77l-4.175-1.19c-0.632-0.183-1.292,0.184-1.47,0.819c-0.186,0.632,0.182,1.293,0.815,1.473
			l3.568,1.018l4.553,13.651l-0.962,3.101c-1.313,0.361-2.285,1.554-2.285,2.982c0,1.717,1.391,3.107,3.107,3.107
			c1.295,0,2.398-0.791,2.868-1.914h9.668c0.467,1.123,1.573,1.914,2.868,1.914c1.717,0,3.106-1.39,3.106-3.107
			c0-1.715-1.39-3.105-3.106-3.105c-1.295,0-2.398,0.789-2.868,1.912h-9.671c-0.259-0.619-0.717-1.129-1.291-1.47l0.696-2.241H60.55
			c1.157,0,2.079-0.835,2.178-1.938l2.777-9.728C65.609,42.88,65.537,42.493,65.311,42.195z M55.539,44.104h3.265l-1.655,8.415
			h-1.566L55.539,44.104z M53.614,44.104h0.034l0.043,8.415h-2.137l-1.095-8.415H53.614z M49.646,52.519h-2.555l-1.664-8.415h3.125
			L49.646,52.519z M43.934,52.519l-2.637-8.415h2.199l1.662,8.415H43.934z M60.396,52.441c-0.009,0.025-0.013,0.049-0.02,0.078
			H59.08l1.652-8.415h2.043L60.396,52.441z"/>
		<text transform="matrix(1 0 0 1 29.8652 74.1138)" fill="#171717" font-family="'GandhiSans-Bold'" font-size="9.9579">BUY NOW</text>
	</g>
</g>
</svg>
