<?xml version="1.0" encoding="utf-8"?>
<!-- Generator: Adobe Illustrator 16.0.0, SVG Export Plug-In . SVG Version: 6.00 Build 0)  -->
<!DOCTYPE svg PUBLIC "-//W3C//DTD SVG 1.1//EN" "http://www.w3.org/Graphics/SVG/1.1/DTD/svg11.dtd">
<svg version="1.1" id="Layer_1" xmlns="http://www.w3.org/2000/svg" xmlns:xlink="http://www.w3.org/1999/xlink" x="0px" y="0px"
	 width="64px" height="52px" viewBox="0 0 64 52" enable-background="new 0 0 64 52" xml:space="preserve">
<path fill="#555557" d="M47.476,19.052c-0.21-0.281-0.544-0.446-0.896-0.446h-8.877h-1.312H23.979l-0.938-2.816
	c-0.117-0.352-0.398-0.621-0.757-0.723l-3.924-1.12c-0.594-0.171-1.215,0.174-1.382,0.77c-0.174,0.595,0.171,1.215,0.767,1.385
	l3.354,0.958l4.279,12.832l-0.904,2.915c-1.234,0.34-2.147,1.461-2.147,2.803c0,1.614,1.308,2.92,2.921,2.92
	c1.217,0,2.255-0.743,2.696-1.799h9.088c0.439,1.056,1.479,1.799,2.696,1.799c1.613,0,2.92-1.306,2.92-2.92
	c0-1.611-1.307-2.92-2.92-2.92c-1.217,0-2.255,0.744-2.696,1.799h-9.091c-0.243-0.583-0.673-1.061-1.214-1.382L27.383,31H43
	c1.088,0,1.954-0.785,2.047-1.822l2.611-9.145C47.756,19.697,47.688,19.332,47.476,19.052z M38.29,20.847h3.068l-1.556,7.911H38.33
	L38.29,20.847z M36.48,20.847h0.033l0.04,7.911h-2.009l-1.029-7.911H36.48z M32.751,28.758H30.35l-1.564-7.911h2.938L32.751,28.758z
	 M27.381,28.758l-2.479-7.911h2.066l1.563,7.911H27.381z M42.855,28.684c-0.008,0.023-0.012,0.049-0.018,0.074h-1.22l1.555-7.911
	h1.92L42.855,28.684z"/>
</svg>
