<?xml version="1.0" encoding="utf-8"?>
<!-- Generator: Adobe Illustrator 17.0.0, SVG Export Plug-In . SVG Version: 6.00 Build 0)  -->
<!DOCTYPE svg PUBLIC "-//W3C//DTD SVG 1.1//EN" "http://www.w3.org/Graphics/SVG/1.1/DTD/svg11.dtd">
<svg version="1.1" id="Capa_1" xmlns="http://www.w3.org/2000/svg" xmlns:xlink="http://www.w3.org/1999/xlink" x="0px" y="0px"
	 width="64px" height="52px" viewBox="0 0 64 52" enable-background="new 0 0 64 52" xml:space="preserve">
<path fill="#555557" d="M47.476,19.052c-0.21-0.28-0.544-0.446-0.896-0.446h-22.6l-0.94-2.816c-0.116-0.352-0.397-0.62-0.756-0.723
	l-3.924-1.12c-0.594-0.17-1.215,0.174-1.382,0.77c-0.174,0.595,0.17,1.215,0.767,1.385l3.354,0.958l4.27,12.832l-0.91,2.915
	c-1.24,0.34-2.15,1.46-2.15,2.803c0,1.614,1.31,2.92,2.92,2.92c1.22,0,2.25-0.743,2.69-1.8h9.09c0.44,1.057,1.48,1.8,2.69,1.8
	c1.61,0,2.92-1.306,2.92-2.92c0-1.61-1.31-2.92-2.92-2.92c-1.22,0-2.26,0.744-2.7,1.8h-9.09c-0.24-0.584-0.67-1.062-1.21-1.383
	L27.38,31H43c1.088,0,1.954-0.785,2.047-1.822l2.61-9.145C47.757,19.697,47.687,19.333,47.476,19.052L47.476,19.052z M38.29,20.847
	h3.068l-1.556,7.91H38.33L38.29,20.847z M36.48,20.847h0.033l0.04,7.91h-2.01l-1.028-7.91C33.515,20.847,36.48,20.847,36.48,20.847z
	 M32.75,28.757h-2.4l-1.564-7.91h2.938L32.75,28.757L32.75,28.757z M27.38,28.757l-2.478-7.91h2.066l1.563,7.91H27.38L27.38,28.757z
	 M42.855,28.684c-0.008,0.023-0.012,0.05-0.018,0.074h-1.22l1.555-7.91h1.92C45.092,20.848,42.855,28.684,42.855,28.684z"/>
</svg>
