<svg xmlns="http://www.w3.org/2000/svg" width="64" height="52" viewBox="0 0 64 52"><path fill="#555557" d="M47.476 19.052c-.21-.28-.544-.446-.896-.446h-22.6l-.94-2.816c-.116-.352-.397-.62-.756-.723l-3.924-1.12c-.594-.17-1.215.174-1.382.77-.174.595.17 1.215.767 1.385l3.354.958 4.27 12.832-.91 2.915c-1.24.34-2.15 1.46-2.15 2.803 0 1.614 1.31 2.92 2.92 2.92 1.22 0 2.25-.743 2.69-1.8h9.09c.44 1.057 1.48 1.8 2.69 1.8 1.61 0 2.92-1.306 2.92-2.92 0-1.61-1.31-2.92-2.92-2.92-1.22 0-2.26.744-2.7 1.8h-9.09c-.24-.584-.67-1.062-1.21-1.383L27.38 31H43c1.088 0 1.954-.785 2.047-1.822l2.61-9.145c.1-.336.03-.7-.18-.98zm-9.186 1.795h3.068l-1.556 7.91H38.33l-.04-7.91zm-1.81 0h.033l.04 7.91h-2.01l-1.028-7.91h2.965zm-3.73 7.91h-2.4l-1.564-7.91h2.938l1.027 7.91zm-5.37 0l-2.478-7.91h2.066l1.563 7.91h-1.15zm15.475-.073c-.008.023-.012.05-.018.074h-1.22l1.555-7.91h1.92l-2.237 7.836z"/></svg>