<?xml version="1.0" encoding="utf-8"?>
<!-- Generator: Adobe Illustrator 16.0.0, SVG Export Plug-In . SVG Version: 6.00 Build 0)  -->
<!DOCTYPE svg PUBLIC "-//W3C//DTD SVG 1.1//EN" "http://www.w3.org/Graphics/SVG/1.1/DTD/svg11.dtd">
<svg version="1.1" id="Layer_1" xmlns="http://www.w3.org/2000/svg" xmlns:xlink="http://www.w3.org/1999/xlink" x="0px" y="0px"
	 width="155.689px" height="65px" viewBox="0 0 155.689 65" enable-background="new 0 0 155.689 65" xml:space="preserve">
<g>
	<defs>
		<path id="SVGID_1_" d="M76.3,27.47c-2.16-5.83-13.97-5.06-13.97-5.06S50.52,21.64,48.36,27.47C46.2,33.3,51.43,33.99,53.45,38.43
			c2.029,4.45,1.899,8.66,8.869,8.09c6.971,0.57,6.851-3.64,8.87-8.09C73.24,33.99,78.46,33.3,76.3,27.47z"/>
	</defs>
	<clipPath id="SVGID_2_">
		<use xlink:href="#SVGID_1_"  overflow="visible"/>
	</clipPath>
	<g clip-path="url(#SVGID_2_)">
		<path fill="#6E6F71" d="M59.02,22.53c0.25,0,0.44,0.2,0.44,0.439c0,0.24-0.2,0.44-0.44,0.44s-0.439-0.2-0.439-0.44
			C58.58,22.73,58.78,22.53,59.02,22.53L59.02,22.53z"/>
		<path fill="#6E6F71" d="M60.27,22.53c0.25,0,0.45,0.2,0.45,0.439c0,0.24-0.2,0.44-0.45,0.44c-0.24,0-0.439-0.2-0.439-0.44
			C59.83,22.73,60.03,22.53,60.27,22.53L60.27,22.53z"/>
		<path fill="#6E6F71" d="M61.52,22.53c0.25,0,0.44,0.2,0.44,0.439c0,0.24-0.2,0.44-0.44,0.44s-0.439-0.2-0.439-0.44
			C61.08,22.73,61.28,22.53,61.52,22.53L61.52,22.53z"/>
		<path fill="#6E6F71" d="M59.02,23.96c0.25,0,0.44,0.2,0.44,0.44c0,0.24-0.2,0.44-0.44,0.44s-0.439-0.2-0.439-0.44
			C58.58,24.16,58.78,23.96,59.02,23.96L59.02,23.96z"/>
		<path fill="#6E6F71" d="M60.27,23.96c0.25,0,0.45,0.2,0.45,0.44c0,0.24-0.2,0.44-0.45,0.44c-0.24,0-0.439-0.2-0.439-0.44
			C59.83,24.16,60.03,23.96,60.27,23.96L60.27,23.96z"/>
		<path fill="#6E6F71" d="M61.52,23.96c0.25,0,0.44,0.2,0.44,0.44c0,0.24-0.2,0.44-0.44,0.44s-0.439-0.2-0.439-0.44
			C61.08,24.16,61.28,23.96,61.52,23.96L61.52,23.96z"/>
		<path fill="#6E6F71" d="M59.02,25.39c0.25,0,0.44,0.2,0.44,0.44c0,0.25-0.2,0.44-0.44,0.44s-0.439-0.2-0.439-0.44
			C58.58,25.59,58.78,25.39,59.02,25.39L59.02,25.39z"/>
		<path fill="#6E6F71" d="M60.27,25.39c0.25,0,0.45,0.2,0.45,0.44c0,0.25-0.2,0.44-0.45,0.44c-0.24,0-0.439-0.2-0.439-0.44
			C59.83,25.59,60.03,25.39,60.27,25.39L60.27,25.39z"/>
		<path fill="#6E6F71" d="M61.52,25.39c0.25,0,0.44,0.2,0.44,0.44c0,0.25-0.2,0.44-0.44,0.44s-0.439-0.2-0.439-0.44
			C61.08,25.59,61.28,25.39,61.52,25.39L61.52,25.39z"/>
		<path fill="#6E6F71" d="M59.02,26.82c0.25,0,0.44,0.2,0.44,0.44c0,0.24-0.2,0.44-0.44,0.44s-0.439-0.2-0.439-0.44
			C58.58,27.01,58.78,26.82,59.02,26.82L59.02,26.82z"/>
		<path fill="#6E6F71" d="M60.27,26.82c0.25,0,0.45,0.2,0.45,0.44c0,0.24-0.2,0.44-0.45,0.44c-0.24,0-0.439-0.2-0.439-0.44
			C59.83,27.01,60.03,26.82,60.27,26.82L60.27,26.82z"/>
		<path fill="#6E6F71" d="M61.52,26.82c0.25,0,0.44,0.2,0.44,0.44c0,0.24-0.2,0.44-0.44,0.44s-0.439-0.2-0.439-0.44
			C61.08,27.01,61.28,26.82,61.52,26.82L61.52,26.82z"/>
		<path fill="#6E6F71" d="M59.02,28.24c0.25,0,0.44,0.2,0.44,0.44c0,0.25-0.2,0.44-0.44,0.44s-0.439-0.2-0.439-0.44
			C58.58,28.44,58.78,28.24,59.02,28.24L59.02,28.24z"/>
		<path fill="#6E6F71" d="M60.27,28.24c0.25,0,0.45,0.2,0.45,0.44c0,0.25-0.2,0.44-0.45,0.44c-0.24,0-0.439-0.2-0.439-0.44
			C59.83,28.44,60.03,28.24,60.27,28.24L60.27,28.24z"/>
		<path fill="#6E6F71" d="M61.52,28.24c0.25,0,0.44,0.2,0.44,0.44c0,0.25-0.2,0.44-0.44,0.44s-0.439-0.2-0.439-0.44
			C61.08,28.44,61.28,28.24,61.52,28.24L61.52,28.24z"/>
		<path fill="#6E6F71" d="M59.02,29.67c0.25,0,0.44,0.2,0.44,0.44c0,0.24-0.2,0.44-0.44,0.44s-0.439-0.2-0.439-0.44
			C58.58,29.87,58.78,29.67,59.02,29.67L59.02,29.67z"/>
		<path fill="#6E6F71" d="M60.27,29.67c0.25,0,0.45,0.2,0.45,0.44c0,0.24-0.2,0.44-0.45,0.44c-0.24,0-0.439-0.2-0.439-0.44
			C59.83,29.87,60.03,29.67,60.27,29.67L60.27,29.67z"/>
		<path fill="#6E6F71" d="M61.52,29.67c0.25,0,0.44,0.2,0.44,0.44c0,0.24-0.2,0.44-0.44,0.44s-0.439-0.2-0.439-0.44
			C61.08,29.87,61.28,29.67,61.52,29.67L61.52,29.67z"/>
		<path fill="#6E6F71" d="M59.02,31.1c0.25,0,0.44,0.2,0.44,0.44c0,0.25-0.2,0.44-0.44,0.44s-0.439-0.2-0.439-0.44
			C58.58,31.29,58.78,31.1,59.02,31.1L59.02,31.1z"/>
		<path fill="#6E6F71" d="M60.27,31.1c0.25,0,0.45,0.2,0.45,0.44c0,0.25-0.2,0.44-0.45,0.44c-0.24,0-0.439-0.2-0.439-0.44
			C59.83,31.29,60.03,31.1,60.27,31.1L60.27,31.1z"/>
		<path fill="#6E6F71" d="M61.52,31.1c0.25,0,0.44,0.2,0.44,0.44c0,0.25-0.2,0.44-0.44,0.44s-0.439-0.2-0.439-0.44
			C61.08,31.29,61.28,31.1,61.52,31.1L61.52,31.1z"/>
		<path fill="#6E6F71" d="M59.02,32.52c0.25,0,0.44,0.2,0.44,0.44s-0.2,0.44-0.44,0.44s-0.439-0.2-0.439-0.44
			S58.78,32.52,59.02,32.52L59.02,32.52z"/>
		<path fill="#6E6F71" d="M60.27,32.52c0.25,0,0.45,0.2,0.45,0.44s-0.2,0.44-0.45,0.44c-0.24,0-0.439-0.2-0.439-0.44
			S60.03,32.52,60.27,32.52L60.27,32.52z"/>
		<path fill="#6E6F71" d="M61.52,32.52c0.25,0,0.44,0.2,0.44,0.44s-0.2,0.44-0.44,0.44s-0.439-0.2-0.439-0.44
			S61.28,32.52,61.52,32.52L61.52,32.52z"/>
		<path fill="#6E6F71" d="M59.02,33.95c0.25,0,0.44,0.2,0.44,0.44c0,0.239-0.2,0.439-0.44,0.439s-0.439-0.2-0.439-0.439
			C58.58,34.15,58.78,33.95,59.02,33.95L59.02,33.95z"/>
		<path fill="#6E6F71" d="M60.27,33.95c0.25,0,0.45,0.2,0.45,0.44c0,0.239-0.2,0.439-0.45,0.439c-0.24,0-0.439-0.2-0.439-0.439
			C59.83,34.15,60.03,33.95,60.27,33.95L60.27,33.95z"/>
		<path fill="#6E6F71" d="M61.52,33.95c0.25,0,0.44,0.2,0.44,0.44c0,0.239-0.2,0.439-0.44,0.439s-0.439-0.2-0.439-0.439
			C61.08,34.15,61.28,33.95,61.52,33.95L61.52,33.95z"/>
		<path fill="#6E6F71" d="M59.02,35.38c0.25,0,0.44,0.2,0.44,0.45s-0.2,0.439-0.44,0.439S58.58,36.07,58.58,35.83
			C58.58,35.58,58.78,35.38,59.02,35.38L59.02,35.38z"/>
		<path fill="#6E6F71" d="M60.27,35.38c0.25,0,0.45,0.2,0.45,0.45s-0.2,0.439-0.45,0.439c-0.24,0-0.439-0.199-0.439-0.439
			C59.83,35.58,60.03,35.38,60.27,35.38L60.27,35.38z"/>
		<path fill="#6E6F71" d="M61.52,35.38c0.25,0,0.44,0.2,0.44,0.45s-0.2,0.439-0.44,0.439S61.08,36.07,61.08,35.83
			C61.08,35.58,61.28,35.38,61.52,35.38L61.52,35.38z"/>
		<path fill="#6E6F71" d="M59.02,36.811c0.25,0,0.44,0.199,0.44,0.439s-0.2,0.439-0.44,0.439S58.58,37.49,58.58,37.25
			C58.58,37,58.78,36.811,59.02,36.811L59.02,36.811z"/>
		<path fill="#6E6F71" d="M60.27,36.811c0.25,0,0.45,0.199,0.45,0.439s-0.2,0.439-0.45,0.439c-0.24,0-0.439-0.199-0.439-0.439
			C59.83,37,60.03,36.811,60.27,36.811L60.27,36.811z"/>
		<path fill="#6E6F71" d="M61.52,36.811c0.25,0,0.44,0.199,0.44,0.439s-0.2,0.439-0.44,0.439S61.08,37.49,61.08,37.25
			C61.08,37,61.28,36.811,61.52,36.811L61.52,36.811z"/>
		<path fill="#6E6F71" d="M59.02,38.23c0.25,0,0.44,0.199,0.44,0.439c0,0.25-0.2,0.439-0.44,0.439S58.58,38.91,58.58,38.67
			S58.78,38.23,59.02,38.23L59.02,38.23z"/>
		<path fill="#6E6F71" d="M60.27,38.23c0.25,0,0.45,0.199,0.45,0.439c0,0.25-0.2,0.439-0.45,0.439c-0.24,0-0.439-0.199-0.439-0.439
			S60.03,38.23,60.27,38.23L60.27,38.23z"/>
		<path fill="#6E6F71" d="M61.52,38.23c0.25,0,0.44,0.199,0.44,0.439c0,0.25-0.2,0.439-0.44,0.439S61.08,38.91,61.08,38.67
			S61.28,38.23,61.52,38.23L61.52,38.23z"/>
		<path fill="#6E6F71" d="M59.02,39.66c0.25,0,0.44,0.199,0.44,0.439s-0.2,0.44-0.44,0.44s-0.439-0.2-0.439-0.44
			C58.58,39.85,58.78,39.66,59.02,39.66L59.02,39.66z"/>
		<path fill="#6E6F71" d="M60.27,39.66c0.25,0,0.45,0.199,0.45,0.439s-0.2,0.44-0.45,0.44c-0.24,0-0.439-0.2-0.439-0.44
			C59.83,39.85,60.03,39.66,60.27,39.66L60.27,39.66z"/>
		<path fill="#6E6F71" d="M61.52,39.66c0.25,0,0.44,0.199,0.44,0.439s-0.2,0.44-0.44,0.44s-0.439-0.2-0.439-0.44
			C61.08,39.85,61.28,39.66,61.52,39.66L61.52,39.66z"/>
		<path fill="#6E6F71" d="M59.02,41.08c0.25,0,0.44,0.2,0.44,0.439c0,0.25-0.2,0.44-0.44,0.44s-0.439-0.2-0.439-0.44
			C58.58,41.28,58.78,41.08,59.02,41.08L59.02,41.08z"/>
		<path fill="#6E6F71" d="M60.27,41.08c0.25,0,0.45,0.2,0.45,0.439c0,0.25-0.2,0.44-0.45,0.44c-0.24,0-0.439-0.2-0.439-0.44
			C59.83,41.28,60.03,41.08,60.27,41.08L60.27,41.08z"/>
		<path fill="#6E6F71" d="M61.52,41.08c0.25,0,0.44,0.2,0.44,0.439c0,0.25-0.2,0.44-0.44,0.44s-0.439-0.2-0.439-0.44
			C61.08,41.28,61.28,41.08,61.52,41.08L61.52,41.08z"/>
		<path fill="#6E6F71" d="M59.02,42.51c0.25,0,0.44,0.2,0.44,0.44c0,0.239-0.2,0.44-0.44,0.44s-0.439-0.201-0.439-0.44
			C58.58,42.71,58.78,42.51,59.02,42.51L59.02,42.51z"/>
		<path fill="#6E6F71" d="M60.27,42.51c0.25,0,0.45,0.2,0.45,0.44c0,0.239-0.2,0.44-0.45,0.44c-0.24,0-0.439-0.201-0.439-0.44
			C59.83,42.71,60.03,42.51,60.27,42.51L60.27,42.51z"/>
		<path fill="#6E6F71" d="M61.52,42.51c0.25,0,0.44,0.2,0.44,0.44c0,0.239-0.2,0.44-0.44,0.44s-0.439-0.201-0.439-0.44
			C61.08,42.71,61.28,42.51,61.52,42.51L61.52,42.51z"/>
		<path fill="#6E6F71" d="M59.02,43.939c0.25,0,0.44,0.201,0.44,0.44c0,0.24-0.2,0.44-0.44,0.44s-0.439-0.2-0.439-0.44
			C58.58,44.141,58.78,43.939,59.02,43.939L59.02,43.939z"/>
		<path fill="#6E6F71" d="M60.27,43.939c0.25,0,0.45,0.201,0.45,0.44c0,0.24-0.2,0.44-0.45,0.44c-0.24,0-0.439-0.2-0.439-0.44
			C59.83,44.141,60.03,43.939,60.27,43.939L60.27,43.939z"/>
		<path fill="#6E6F71" d="M61.52,43.939c0.25,0,0.44,0.201,0.44,0.44c0,0.24-0.2,0.44-0.44,0.44s-0.439-0.2-0.439-0.44
			C61.08,44.141,61.28,43.939,61.52,43.939L61.52,43.939z"/>
		<path fill="#6E6F71" d="M59.02,45.37c0.25,0,0.44,0.2,0.44,0.44c0,0.239-0.2,0.439-0.44,0.439s-0.439-0.2-0.439-0.439
			C58.58,45.57,58.78,45.37,59.02,45.37L59.02,45.37z"/>
		<path fill="#6E6F71" d="M60.27,45.37c0.25,0,0.45,0.2,0.45,0.44c0,0.239-0.2,0.439-0.45,0.439c-0.24,0-0.439-0.2-0.439-0.439
			C59.83,45.57,60.03,45.37,60.27,45.37L60.27,45.37z"/>
		<path fill="#6E6F71" d="M61.52,45.37c0.25,0,0.44,0.2,0.44,0.44c0,0.239-0.2,0.439-0.44,0.439s-0.439-0.2-0.439-0.439
			C61.08,45.57,61.28,45.37,61.52,45.37L61.52,45.37z"/>
		<path fill="#6E6F71" d="M55.34,22.53c0.24,0,0.439,0.2,0.439,0.439c0,0.24-0.199,0.44-0.439,0.44s-0.44-0.2-0.44-0.44
			C54.9,22.73,55.1,22.53,55.34,22.53L55.34,22.53z"/>
		<path fill="#6E6F71" d="M56.6,22.53c0.24,0,0.44,0.2,0.44,0.439c0,0.24-0.2,0.44-0.44,0.44s-0.439-0.2-0.439-0.44
			C56.15,22.73,56.35,22.53,56.6,22.53L56.6,22.53z"/>
		<path fill="#6E6F71" d="M57.85,22.53c0.24,0,0.44,0.2,0.44,0.439c0,0.24-0.2,0.44-0.44,0.44s-0.439-0.2-0.439-0.44
			C57.4,22.73,57.6,22.53,57.85,22.53L57.85,22.53z"/>
		<path fill="#6E6F71" d="M55.34,23.96c0.24,0,0.439,0.2,0.439,0.44c0,0.24-0.199,0.44-0.439,0.44s-0.44-0.2-0.44-0.44
			C54.9,24.16,55.1,23.96,55.34,23.96L55.34,23.96z"/>
		<path fill="#6E6F71" d="M56.6,23.96c0.24,0,0.44,0.2,0.44,0.44c0,0.24-0.2,0.44-0.44,0.44s-0.439-0.2-0.439-0.44
			C56.15,24.16,56.35,23.96,56.6,23.96L56.6,23.96z"/>
		<path fill="#6E6F71" d="M57.85,23.96c0.24,0,0.44,0.2,0.44,0.44c0,0.24-0.2,0.44-0.44,0.44s-0.439-0.2-0.439-0.44
			C57.4,24.16,57.6,23.96,57.85,23.96L57.85,23.96z"/>
		<path fill="#6E6F71" d="M55.34,25.39c0.24,0,0.439,0.2,0.439,0.44c0,0.25-0.199,0.44-0.439,0.44s-0.44-0.2-0.44-0.44
			C54.9,25.59,55.1,25.39,55.34,25.39L55.34,25.39z"/>
		<path fill="#6E6F71" d="M56.6,25.39c0.24,0,0.44,0.2,0.44,0.44c0,0.25-0.2,0.44-0.44,0.44s-0.439-0.2-0.439-0.44
			C56.15,25.59,56.35,25.39,56.6,25.39L56.6,25.39z"/>
		<path fill="#6E6F71" d="M57.85,25.39c0.24,0,0.44,0.2,0.44,0.44c0,0.25-0.2,0.44-0.44,0.44s-0.439-0.2-0.439-0.44
			C57.4,25.59,57.6,25.39,57.85,25.39L57.85,25.39z"/>
		<path fill="#6E6F71" d="M55.34,26.82c0.24,0,0.439,0.2,0.439,0.44c0,0.24-0.199,0.44-0.439,0.44s-0.44-0.2-0.44-0.44
			C54.9,27.01,55.1,26.82,55.34,26.82L55.34,26.82z"/>
		<path fill="#6E6F71" d="M56.6,26.82c0.24,0,0.44,0.2,0.44,0.44c0,0.24-0.2,0.44-0.44,0.44s-0.439-0.2-0.439-0.44
			C56.15,27.01,56.35,26.82,56.6,26.82L56.6,26.82z"/>
		<path fill="#6E6F71" d="M57.85,26.82c0.24,0,0.44,0.2,0.44,0.44c0,0.24-0.2,0.44-0.44,0.44s-0.439-0.2-0.439-0.44
			C57.4,27.01,57.6,26.82,57.85,26.82L57.85,26.82z"/>
		<path fill="#6E6F71" d="M55.34,28.24c0.24,0,0.439,0.2,0.439,0.44c0,0.25-0.199,0.44-0.439,0.44s-0.44-0.2-0.44-0.44
			C54.9,28.44,55.1,28.24,55.34,28.24L55.34,28.24z"/>
		<path fill="#6E6F71" d="M56.6,28.24c0.24,0,0.44,0.2,0.44,0.44c0,0.25-0.2,0.44-0.44,0.44s-0.439-0.2-0.439-0.44
			C56.15,28.44,56.35,28.24,56.6,28.24L56.6,28.24z"/>
		<path fill="#6E6F71" d="M57.85,28.24c0.24,0,0.44,0.2,0.44,0.44c0,0.25-0.2,0.44-0.44,0.44s-0.439-0.2-0.439-0.44
			C57.4,28.44,57.6,28.24,57.85,28.24L57.85,28.24z"/>
		<path fill="#6E6F71" d="M55.34,29.67c0.24,0,0.439,0.2,0.439,0.44c0,0.24-0.199,0.44-0.439,0.44s-0.44-0.2-0.44-0.44
			C54.9,29.87,55.1,29.67,55.34,29.67L55.34,29.67z"/>
		<path fill="#6E6F71" d="M56.6,29.67c0.24,0,0.44,0.2,0.44,0.44c0,0.24-0.2,0.44-0.44,0.44s-0.439-0.2-0.439-0.44
			C56.15,29.87,56.35,29.67,56.6,29.67L56.6,29.67z"/>
		<path fill="#6E6F71" d="M57.85,29.67c0.24,0,0.44,0.2,0.44,0.44c0,0.24-0.2,0.44-0.44,0.44s-0.439-0.2-0.439-0.44
			C57.4,29.87,57.6,29.67,57.85,29.67L57.85,29.67z"/>
		<path fill="#6E6F71" d="M55.34,31.1c0.24,0,0.439,0.2,0.439,0.44c0,0.25-0.199,0.44-0.439,0.44s-0.44-0.2-0.44-0.44
			C54.9,31.29,55.1,31.1,55.34,31.1L55.34,31.1z"/>
		<path fill="#6E6F71" d="M56.6,31.1c0.24,0,0.44,0.2,0.44,0.44c0,0.25-0.2,0.44-0.44,0.44s-0.439-0.2-0.439-0.44
			C56.15,31.29,56.35,31.1,56.6,31.1L56.6,31.1z"/>
		<path fill="#6E6F71" d="M57.85,31.1c0.24,0,0.44,0.2,0.44,0.44c0,0.25-0.2,0.44-0.44,0.44s-0.439-0.2-0.439-0.44
			C57.4,31.29,57.6,31.1,57.85,31.1L57.85,31.1z"/>
		<path fill="#6E6F71" d="M55.34,32.52c0.24,0,0.439,0.2,0.439,0.44S55.58,33.4,55.34,33.4s-0.44-0.2-0.44-0.44
			S55.1,32.52,55.34,32.52L55.34,32.52z"/>
		<path fill="#6E6F71" d="M56.6,32.52c0.24,0,0.44,0.2,0.44,0.44s-0.2,0.44-0.44,0.44s-0.439-0.2-0.439-0.44
			C56.15,32.72,56.35,32.52,56.6,32.52L56.6,32.52z"/>
		<path fill="#6E6F71" d="M57.85,32.52c0.24,0,0.44,0.2,0.44,0.44s-0.2,0.44-0.44,0.44s-0.439-0.2-0.439-0.44
			C57.4,32.72,57.6,32.52,57.85,32.52L57.85,32.52z"/>
		<path fill="#6E6F71" d="M55.34,33.95c0.24,0,0.439,0.2,0.439,0.44c0,0.239-0.199,0.439-0.439,0.439s-0.44-0.2-0.44-0.439
			C54.9,34.15,55.1,33.95,55.34,33.95L55.34,33.95z"/>
		<path fill="#6E6F71" d="M56.6,33.95c0.24,0,0.44,0.2,0.44,0.44c0,0.239-0.2,0.439-0.44,0.439s-0.439-0.2-0.439-0.439
			C56.16,34.15,56.35,33.95,56.6,33.95L56.6,33.95z"/>
		<path fill="#6E6F71" d="M57.85,33.95c0.24,0,0.44,0.2,0.44,0.44c0,0.239-0.2,0.439-0.44,0.439s-0.439-0.2-0.439-0.439
			C57.41,34.15,57.6,33.95,57.85,33.95L57.85,33.95z"/>
		<path fill="#6E6F71" d="M55.34,35.38c0.24,0,0.439,0.2,0.439,0.45S55.58,36.27,55.34,36.27S54.9,36.07,54.9,35.83
			C54.9,35.58,55.1,35.38,55.34,35.38L55.34,35.38z"/>
		<path fill="#6E6F71" d="M56.6,35.38c0.24,0,0.44,0.2,0.44,0.45s-0.2,0.439-0.44,0.439S56.16,36.07,56.16,35.83
			C56.15,35.58,56.35,35.38,56.6,35.38L56.6,35.38z"/>
		<path fill="#6E6F71" d="M57.85,35.38c0.24,0,0.44,0.2,0.44,0.45s-0.2,0.439-0.44,0.439S57.41,36.07,57.41,35.83
			C57.4,35.58,57.6,35.38,57.85,35.38L57.85,35.38z"/>
		<path fill="#6E6F71" d="M55.34,36.811c0.24,0,0.439,0.199,0.439,0.439s-0.199,0.439-0.439,0.439S54.9,37.49,54.9,37.25
			C54.9,37,55.1,36.811,55.34,36.811L55.34,36.811z"/>
		<path fill="#6E6F71" d="M56.6,36.811c0.24,0,0.44,0.199,0.44,0.439s-0.2,0.439-0.44,0.439S56.16,37.49,56.16,37.25
			C56.15,37,56.35,36.811,56.6,36.811L56.6,36.811z"/>
		<path fill="#6E6F71" d="M57.85,36.811c0.24,0,0.44,0.199,0.44,0.439s-0.2,0.439-0.44,0.439S57.41,37.49,57.41,37.25
			C57.4,37,57.6,36.811,57.85,36.811L57.85,36.811z"/>
		<path fill="#6E6F71" d="M55.34,38.23c0.24,0,0.439,0.199,0.439,0.439c0,0.25-0.199,0.439-0.439,0.439S54.9,38.91,54.9,38.67
			S55.1,38.23,55.34,38.23L55.34,38.23z"/>
		<path fill="#6E6F71" d="M56.6,38.23c0.24,0,0.44,0.199,0.44,0.439c0,0.25-0.2,0.439-0.44,0.439S56.16,38.91,56.16,38.67
			C56.15,38.43,56.35,38.23,56.6,38.23L56.6,38.23z"/>
		<path fill="#6E6F71" d="M57.85,38.23c0.24,0,0.44,0.199,0.44,0.439c0,0.25-0.2,0.439-0.44,0.439S57.41,38.91,57.41,38.67
			C57.4,38.43,57.6,38.23,57.85,38.23L57.85,38.23z"/>
		<path fill="#6E6F71" d="M55.34,39.66c0.24,0,0.439,0.199,0.439,0.439s-0.199,0.44-0.439,0.44s-0.44-0.2-0.44-0.44
			C54.9,39.85,55.1,39.66,55.34,39.66L55.34,39.66z"/>
		<path fill="#6E6F71" d="M56.6,39.66c0.24,0,0.44,0.199,0.44,0.439s-0.2,0.44-0.44,0.44s-0.439-0.2-0.439-0.44
			C56.15,39.85,56.35,39.66,56.6,39.66L56.6,39.66z"/>
		<path fill="#6E6F71" d="M57.85,39.66c0.24,0,0.44,0.199,0.44,0.439s-0.2,0.44-0.44,0.44s-0.439-0.2-0.439-0.44
			C57.4,39.85,57.6,39.66,57.85,39.66L57.85,39.66z"/>
		<path fill="#6E6F71" d="M55.34,41.08c0.24,0,0.439,0.2,0.439,0.439c0,0.25-0.199,0.44-0.439,0.44s-0.44-0.2-0.44-0.44
			C54.9,41.28,55.1,41.08,55.34,41.08L55.34,41.08z"/>
		<path fill="#6E6F71" d="M56.6,41.08c0.24,0,0.44,0.2,0.44,0.439c0,0.25-0.2,0.44-0.44,0.44s-0.439-0.2-0.439-0.44
			C56.15,41.28,56.35,41.08,56.6,41.08L56.6,41.08z"/>
		<path fill="#6E6F71" d="M57.85,41.08c0.24,0,0.44,0.2,0.44,0.439c0,0.25-0.2,0.44-0.44,0.44s-0.439-0.2-0.439-0.44
			C57.4,41.28,57.6,41.08,57.85,41.08L57.85,41.08z"/>
		<path fill="#6E6F71" d="M55.34,42.51c0.24,0,0.439,0.2,0.439,0.44c0,0.239-0.199,0.44-0.439,0.44s-0.44-0.201-0.44-0.44
			C54.9,42.71,55.1,42.51,55.34,42.51L55.34,42.51z"/>
		<path fill="#6E6F71" d="M56.6,42.51c0.24,0,0.44,0.2,0.44,0.44c0,0.239-0.2,0.44-0.44,0.44s-0.439-0.201-0.439-0.44
			C56.15,42.71,56.35,42.51,56.6,42.51L56.6,42.51z"/>
		<path fill="#6E6F71" d="M57.85,42.51c0.24,0,0.44,0.2,0.44,0.44c0,0.239-0.2,0.44-0.44,0.44s-0.439-0.201-0.439-0.44
			C57.4,42.71,57.6,42.51,57.85,42.51L57.85,42.51z"/>
		<path fill="#6E6F71" d="M55.34,43.939c0.24,0,0.439,0.201,0.439,0.44c0,0.24-0.199,0.44-0.439,0.44s-0.44-0.2-0.44-0.44
			C54.9,44.141,55.1,43.939,55.34,43.939L55.34,43.939z"/>
		<path fill="#6E6F71" d="M56.6,43.939c0.24,0,0.44,0.201,0.44,0.44c0,0.24-0.2,0.44-0.44,0.44s-0.439-0.2-0.439-0.44
			C56.15,44.141,56.35,43.939,56.6,43.939L56.6,43.939z"/>
		<path fill="#6E6F71" d="M57.85,43.939c0.24,0,0.44,0.201,0.44,0.44c0,0.24-0.2,0.44-0.44,0.44s-0.439-0.2-0.439-0.44
			C57.4,44.141,57.6,43.939,57.85,43.939L57.85,43.939z"/>
		<path fill="#6E6F71" d="M55.34,45.37c0.24,0,0.439,0.2,0.439,0.44c0,0.239-0.199,0.439-0.439,0.439s-0.44-0.2-0.44-0.439
			C54.9,45.57,55.1,45.37,55.34,45.37L55.34,45.37z"/>
		<path fill="#6E6F71" d="M56.6,45.37c0.24,0,0.44,0.2,0.44,0.44c0,0.239-0.2,0.439-0.44,0.439s-0.439-0.2-0.439-0.439
			C56.16,45.57,56.35,45.37,56.6,45.37L56.6,45.37z"/>
		<path fill="#6E6F71" d="M57.85,45.37c0.24,0,0.44,0.2,0.44,0.44c0,0.239-0.2,0.439-0.44,0.439s-0.439-0.2-0.439-0.439
			C57.41,45.57,57.6,45.37,57.85,45.37L57.85,45.37z"/>
		<path fill="#6E6F71" d="M51.68,22.53c0.24,0,0.44,0.2,0.44,0.439c0,0.24-0.2,0.44-0.44,0.44s-0.439-0.2-0.439-0.44
			C51.24,22.73,51.44,22.53,51.68,22.53L51.68,22.53z"/>
		<path fill="#6E6F71" d="M52.93,22.53c0.24,0,0.45,0.2,0.45,0.439c0,0.24-0.2,0.44-0.44,0.44c-0.239,0-0.439-0.2-0.439-0.44
			C52.49,22.73,52.69,22.53,52.93,22.53L52.93,22.53z"/>
		<path fill="#6E6F71" d="M54.18,22.53c0.24,0,0.44,0.2,0.44,0.439c0,0.24-0.2,0.44-0.44,0.44s-0.439-0.2-0.439-0.44
			C53.74,22.73,53.94,22.53,54.18,22.53L54.18,22.53z"/>
		<path fill="#6E6F71" d="M51.68,23.96c0.24,0,0.44,0.2,0.44,0.44c0,0.24-0.2,0.44-0.44,0.44s-0.439-0.2-0.439-0.44
			C51.24,24.16,51.44,23.96,51.68,23.96L51.68,23.96z"/>
		<path fill="#6E6F71" d="M52.93,23.96c0.24,0,0.45,0.2,0.45,0.44c0,0.24-0.2,0.44-0.44,0.44c-0.239,0-0.439-0.2-0.439-0.44
			C52.49,24.16,52.69,23.96,52.93,23.96L52.93,23.96z"/>
		<path fill="#6E6F71" d="M54.18,23.96c0.24,0,0.44,0.2,0.44,0.44c0,0.24-0.2,0.44-0.44,0.44s-0.439-0.2-0.439-0.44
			C53.74,24.16,53.94,23.96,54.18,23.96L54.18,23.96z"/>
		<path fill="#6E6F71" d="M51.68,25.39c0.24,0,0.44,0.2,0.44,0.44c0,0.25-0.2,0.44-0.44,0.44s-0.439-0.2-0.439-0.44
			C51.24,25.59,51.44,25.39,51.68,25.39L51.68,25.39z"/>
		<path fill="#6E6F71" d="M52.93,25.39c0.24,0,0.45,0.2,0.45,0.44c0,0.25-0.2,0.44-0.44,0.44c-0.239,0-0.439-0.2-0.439-0.44
			C52.49,25.59,52.69,25.39,52.93,25.39L52.93,25.39z"/>
		<path fill="#6E6F71" d="M54.18,25.39c0.24,0,0.44,0.2,0.44,0.44c0,0.25-0.2,0.44-0.44,0.44s-0.439-0.2-0.439-0.44
			C53.74,25.59,53.94,25.39,54.18,25.39L54.18,25.39z"/>
		<path fill="#6E6F71" d="M51.68,26.82c0.24,0,0.44,0.2,0.44,0.44c0,0.24-0.2,0.44-0.44,0.44s-0.439-0.2-0.439-0.44
			C51.24,27.01,51.44,26.82,51.68,26.82L51.68,26.82z"/>
		<path fill="#6E6F71" d="M52.93,26.82c0.24,0,0.45,0.2,0.45,0.44c0,0.24-0.2,0.44-0.44,0.44c-0.239,0-0.439-0.2-0.439-0.44
			C52.49,27.01,52.69,26.82,52.93,26.82L52.93,26.82z"/>
		<path fill="#6E6F71" d="M54.18,26.82c0.24,0,0.44,0.2,0.44,0.44c0,0.24-0.2,0.44-0.44,0.44s-0.439-0.2-0.439-0.44
			C53.74,27.01,53.94,26.82,54.18,26.82L54.18,26.82z"/>
		<path fill="#6E6F71" d="M51.68,28.24c0.24,0,0.44,0.2,0.44,0.44c0,0.25-0.2,0.44-0.44,0.44s-0.439-0.2-0.439-0.44
			C51.24,28.44,51.44,28.24,51.68,28.24L51.68,28.24z"/>
		<path fill="#6E6F71" d="M52.93,28.24c0.24,0,0.45,0.2,0.45,0.44c0,0.25-0.2,0.44-0.44,0.44c-0.239,0-0.439-0.2-0.439-0.44
			C52.49,28.44,52.69,28.24,52.93,28.24L52.93,28.24z"/>
		<path fill="#6E6F71" d="M54.18,28.24c0.24,0,0.44,0.2,0.44,0.44c0,0.25-0.2,0.44-0.44,0.44s-0.439-0.2-0.439-0.44
			C53.74,28.44,53.94,28.24,54.18,28.24L54.18,28.24z"/>
		<path fill="#6E6F71" d="M51.68,29.67c0.24,0,0.44,0.2,0.44,0.44c0,0.24-0.2,0.44-0.44,0.44s-0.439-0.2-0.439-0.44
			C51.24,29.87,51.44,29.67,51.68,29.67L51.68,29.67z"/>
		<path fill="#6E6F71" d="M52.93,29.67c0.24,0,0.45,0.2,0.45,0.44c0,0.24-0.2,0.44-0.44,0.44c-0.239,0-0.439-0.2-0.439-0.44
			C52.49,29.87,52.69,29.67,52.93,29.67L52.93,29.67z"/>
		<path fill="#6E6F71" d="M54.18,29.67c0.24,0,0.44,0.2,0.44,0.44c0,0.24-0.2,0.44-0.44,0.44s-0.439-0.2-0.439-0.44
			C53.74,29.87,53.94,29.67,54.18,29.67L54.18,29.67z"/>
		<path fill="#6E6F71" d="M51.68,31.1c0.24,0,0.44,0.2,0.44,0.44c0,0.25-0.2,0.44-0.44,0.44s-0.439-0.2-0.439-0.44
			C51.24,31.29,51.44,31.1,51.68,31.1L51.68,31.1z"/>
		<path fill="#6E6F71" d="M52.93,31.1c0.24,0,0.45,0.2,0.45,0.44c0,0.25-0.2,0.44-0.44,0.44c-0.239,0-0.439-0.2-0.439-0.44
			C52.49,31.29,52.69,31.1,52.93,31.1L52.93,31.1z"/>
		<path fill="#6E6F71" d="M54.18,31.1c0.24,0,0.44,0.2,0.44,0.44c0,0.25-0.2,0.44-0.44,0.44s-0.439-0.2-0.439-0.44
			C53.74,31.29,53.94,31.1,54.18,31.1L54.18,31.1z"/>
		<path fill="#6E6F71" d="M51.68,32.52c0.24,0,0.44,0.2,0.44,0.44s-0.2,0.44-0.44,0.44s-0.439-0.2-0.439-0.44
			S51.44,32.52,51.68,32.52L51.68,32.52z"/>
		<path fill="#6E6F71" d="M52.93,32.52c0.24,0,0.45,0.2,0.45,0.44s-0.2,0.44-0.44,0.44c-0.239,0-0.439-0.2-0.439-0.44
			C52.49,32.72,52.69,32.52,52.93,32.52L52.93,32.52z"/>
		<path fill="#6E6F71" d="M54.18,32.52c0.24,0,0.44,0.2,0.44,0.44s-0.2,0.44-0.44,0.44s-0.439-0.2-0.439-0.44
			S53.94,32.52,54.18,32.52L54.18,32.52z"/>
		<path fill="#6E6F71" d="M51.68,33.95c0.24,0,0.44,0.2,0.44,0.44c0,0.239-0.2,0.439-0.44,0.439s-0.439-0.2-0.439-0.439
			C51.24,34.15,51.44,33.95,51.68,33.95L51.68,33.95z"/>
		<path fill="#6E6F71" d="M52.93,33.95c0.24,0,0.45,0.2,0.45,0.44c0,0.239-0.2,0.439-0.44,0.439c-0.239,0-0.439-0.2-0.439-0.439
			C52.5,34.15,52.69,33.95,52.93,33.95L52.93,33.95z"/>
		<path fill="#6E6F71" d="M54.18,33.95c0.24,0,0.44,0.2,0.44,0.44c0,0.239-0.2,0.439-0.44,0.439s-0.439-0.2-0.439-0.439
			C53.74,34.15,53.94,33.95,54.18,33.95L54.18,33.95z"/>
		<path fill="#6E6F71" d="M51.68,35.38c0.24,0,0.44,0.2,0.44,0.45s-0.2,0.439-0.44,0.439S51.24,36.07,51.24,35.83
			C51.24,35.58,51.44,35.38,51.68,35.38L51.68,35.38z"/>
		<path fill="#6E6F71" d="M52.93,35.38c0.24,0,0.45,0.2,0.45,0.45s-0.2,0.439-0.44,0.439c-0.239,0-0.439-0.199-0.439-0.439
			C52.49,35.58,52.69,35.38,52.93,35.38L52.93,35.38z"/>
		<path fill="#6E6F71" d="M54.18,35.38c0.24,0,0.44,0.2,0.44,0.45s-0.2,0.439-0.44,0.439S53.74,36.07,53.74,35.83
			C53.74,35.58,53.94,35.38,54.18,35.38L54.18,35.38z"/>
		<path fill="#6E6F71" d="M51.68,36.811c0.24,0,0.44,0.199,0.44,0.439s-0.2,0.439-0.44,0.439S51.24,37.49,51.24,37.25
			C51.24,37,51.44,36.811,51.68,36.811L51.68,36.811z"/>
		<path fill="#6E6F71" d="M52.93,36.811c0.24,0,0.45,0.199,0.45,0.439s-0.2,0.439-0.44,0.439c-0.239,0-0.439-0.199-0.439-0.439
			C52.49,37,52.69,36.811,52.93,36.811L52.93,36.811z"/>
		<path fill="#6E6F71" d="M54.18,36.811c0.24,0,0.44,0.199,0.44,0.439s-0.2,0.439-0.44,0.439S53.74,37.49,53.74,37.25
			C53.74,37,53.94,36.811,54.18,36.811L54.18,36.811z"/>
		<path fill="#6E6F71" d="M51.68,38.23c0.24,0,0.44,0.199,0.44,0.439c0,0.25-0.2,0.439-0.44,0.439S51.24,38.91,51.24,38.67
			S51.44,38.23,51.68,38.23L51.68,38.23z"/>
		<path fill="#6E6F71" d="M52.93,38.23c0.24,0,0.45,0.199,0.45,0.439c0,0.25-0.2,0.439-0.44,0.439c-0.239,0-0.439-0.199-0.439-0.439
			C52.49,38.43,52.69,38.23,52.93,38.23L52.93,38.23z"/>
		<path fill="#6E6F71" d="M54.18,38.23c0.24,0,0.44,0.199,0.44,0.439c0,0.25-0.2,0.439-0.44,0.439S53.74,38.91,53.74,38.67
			S53.94,38.23,54.18,38.23L54.18,38.23z"/>
		<path fill="#6E6F71" d="M51.68,39.66c0.24,0,0.44,0.199,0.44,0.439s-0.2,0.44-0.44,0.44s-0.439-0.2-0.439-0.44
			C51.24,39.85,51.44,39.66,51.68,39.66L51.68,39.66z"/>
		<path fill="#6E6F71" d="M52.93,39.66c0.24,0,0.45,0.199,0.45,0.439s-0.2,0.44-0.44,0.44c-0.239,0-0.439-0.2-0.439-0.44
			C52.49,39.85,52.69,39.66,52.93,39.66L52.93,39.66z"/>
		<path fill="#6E6F71" d="M54.18,39.66c0.24,0,0.44,0.199,0.44,0.439s-0.2,0.44-0.44,0.44s-0.439-0.2-0.439-0.44
			C53.74,39.85,53.94,39.66,54.18,39.66L54.18,39.66z"/>
		<path fill="#6E6F71" d="M51.68,41.08c0.24,0,0.44,0.2,0.44,0.439c0,0.25-0.2,0.44-0.44,0.44s-0.439-0.2-0.439-0.44
			C51.24,41.28,51.44,41.08,51.68,41.08L51.68,41.08z"/>
		<path fill="#6E6F71" d="M52.93,41.08c0.24,0,0.45,0.2,0.45,0.439c0,0.25-0.2,0.44-0.44,0.44c-0.239,0-0.439-0.2-0.439-0.44
			C52.49,41.28,52.69,41.08,52.93,41.08L52.93,41.08z"/>
		<path fill="#6E6F71" d="M54.18,41.08c0.24,0,0.44,0.2,0.44,0.439c0,0.25-0.2,0.44-0.44,0.44s-0.439-0.2-0.439-0.44
			C53.74,41.28,53.94,41.08,54.18,41.08L54.18,41.08z"/>
		<path fill="#6E6F71" d="M51.68,42.51c0.24,0,0.44,0.2,0.44,0.44c0,0.239-0.2,0.44-0.44,0.44s-0.439-0.201-0.439-0.44
			C51.24,42.71,51.44,42.51,51.68,42.51L51.68,42.51z"/>
		<path fill="#6E6F71" d="M52.93,42.51c0.24,0,0.45,0.2,0.45,0.44c0,0.239-0.2,0.44-0.44,0.44c-0.239,0-0.439-0.201-0.439-0.44
			C52.49,42.71,52.69,42.51,52.93,42.51L52.93,42.51z"/>
		<path fill="#6E6F71" d="M54.18,42.51c0.24,0,0.44,0.2,0.44,0.44c0,0.239-0.2,0.44-0.44,0.44s-0.439-0.201-0.439-0.44
			C53.74,42.71,53.94,42.51,54.18,42.51L54.18,42.51z"/>
		<path fill="#6E6F71" d="M51.68,43.939c0.24,0,0.44,0.201,0.44,0.44c0,0.24-0.2,0.44-0.44,0.44s-0.439-0.2-0.439-0.44
			C51.24,44.141,51.44,43.939,51.68,43.939L51.68,43.939z"/>
		<path fill="#6E6F71" d="M52.93,43.939c0.24,0,0.45,0.201,0.45,0.44c0,0.24-0.2,0.44-0.44,0.44c-0.239,0-0.439-0.2-0.439-0.44
			C52.49,44.141,52.69,43.939,52.93,43.939L52.93,43.939z"/>
		<path fill="#6E6F71" d="M54.18,43.939c0.24,0,0.44,0.201,0.44,0.44c0,0.24-0.2,0.44-0.44,0.44s-0.439-0.2-0.439-0.44
			C53.74,44.141,53.94,43.939,54.18,43.939L54.18,43.939z"/>
		<path fill="#6E6F71" d="M51.68,45.37c0.24,0,0.44,0.2,0.44,0.44c0,0.239-0.2,0.439-0.44,0.439s-0.439-0.2-0.439-0.439
			C51.24,45.57,51.44,45.37,51.68,45.37L51.68,45.37z"/>
		<path fill="#6E6F71" d="M52.93,45.37c0.24,0,0.45,0.2,0.45,0.44c0,0.239-0.2,0.439-0.44,0.439c-0.239,0-0.439-0.2-0.439-0.439
			C52.5,45.57,52.69,45.37,52.93,45.37L52.93,45.37z"/>
		<path fill="#6E6F71" d="M54.18,45.37c0.24,0,0.44,0.2,0.44,0.44c0,0.239-0.2,0.439-0.44,0.439s-0.439-0.2-0.439-0.439
			C53.74,45.57,53.94,45.37,54.18,45.37L54.18,45.37z"/>
		<path fill="#6E6F71" d="M48,22.53c0.25,0,0.439,0.2,0.439,0.439c0,0.24-0.199,0.44-0.439,0.44s-0.44-0.2-0.44-0.44
			C47.56,22.73,47.76,22.53,48,22.53L48,22.53z"/>
		<path fill="#6E6F71" d="M49.25,22.53c0.24,0,0.45,0.2,0.45,0.439c0,0.24-0.2,0.44-0.44,0.44s-0.44-0.2-0.44-0.44
			C48.81,22.73,49.01,22.53,49.25,22.53L49.25,22.53z"/>
		<path fill="#6E6F71" d="M50.5,22.53c0.25,0,0.439,0.2,0.439,0.439c0,0.24-0.199,0.44-0.439,0.44s-0.44-0.2-0.44-0.44
			C50.06,22.73,50.26,22.53,50.5,22.53L50.5,22.53z"/>
		<path fill="#6E6F71" d="M48,23.96c0.25,0,0.439,0.2,0.439,0.44c0,0.24-0.199,0.44-0.439,0.44s-0.44-0.2-0.44-0.44
			C47.56,24.16,47.76,23.96,48,23.96L48,23.96z"/>
		<path fill="#6E6F71" d="M49.25,23.96c0.24,0,0.45,0.2,0.45,0.44c0,0.24-0.2,0.44-0.44,0.44s-0.44-0.2-0.44-0.44
			C48.81,24.16,49.01,23.96,49.25,23.96L49.25,23.96z"/>
		<path fill="#6E6F71" d="M50.5,23.96c0.25,0,0.439,0.2,0.439,0.44c0,0.24-0.199,0.44-0.439,0.44s-0.44-0.2-0.44-0.44
			C50.06,24.16,50.26,23.96,50.5,23.96L50.5,23.96z"/>
		<path fill="#6E6F71" d="M48,25.39c0.25,0,0.439,0.2,0.439,0.44c0,0.25-0.199,0.44-0.439,0.44s-0.44-0.2-0.44-0.44
			C47.56,25.59,47.76,25.39,48,25.39L48,25.39z"/>
		<path fill="#6E6F71" d="M49.25,25.39c0.24,0,0.45,0.2,0.45,0.44c0,0.25-0.2,0.44-0.44,0.44s-0.44-0.2-0.44-0.44
			C48.81,25.59,49.01,25.39,49.25,25.39L49.25,25.39z"/>
		<path fill="#6E6F71" d="M50.5,25.39c0.25,0,0.439,0.2,0.439,0.44c0,0.25-0.199,0.44-0.439,0.44s-0.44-0.2-0.44-0.44
			C50.06,25.59,50.26,25.39,50.5,25.39L50.5,25.39z"/>
		<path fill="#6E6F71" d="M48,26.82c0.25,0,0.439,0.2,0.439,0.44c0,0.24-0.199,0.44-0.439,0.44s-0.44-0.2-0.44-0.44
			C47.56,27.01,47.76,26.82,48,26.82L48,26.82z"/>
		<path fill="#6E6F71" d="M49.25,26.82c0.24,0,0.45,0.2,0.45,0.44c0,0.24-0.2,0.44-0.44,0.44s-0.44-0.2-0.44-0.44
			C48.81,27.01,49.01,26.82,49.25,26.82L49.25,26.82z"/>
		<path fill="#6E6F71" d="M50.5,26.82c0.25,0,0.439,0.2,0.439,0.44c0,0.24-0.199,0.44-0.439,0.44s-0.44-0.2-0.44-0.44
			C50.06,27.01,50.26,26.82,50.5,26.82L50.5,26.82z"/>
		<path fill="#6E6F71" d="M48,28.24c0.25,0,0.439,0.2,0.439,0.44c0,0.25-0.199,0.44-0.439,0.44s-0.44-0.2-0.44-0.44
			C47.56,28.44,47.76,28.24,48,28.24L48,28.24z"/>
		<path fill="#6E6F71" d="M49.25,28.24c0.24,0,0.45,0.2,0.45,0.44c0,0.25-0.2,0.44-0.44,0.44s-0.44-0.2-0.44-0.44
			C48.81,28.44,49.01,28.24,49.25,28.24L49.25,28.24z"/>
		<path fill="#6E6F71" d="M50.5,28.24c0.25,0,0.439,0.2,0.439,0.44c0,0.25-0.199,0.44-0.439,0.44s-0.44-0.2-0.44-0.44
			C50.06,28.44,50.26,28.24,50.5,28.24L50.5,28.24z"/>
		<path fill="#6E6F71" d="M48,29.67c0.25,0,0.439,0.2,0.439,0.44c0,0.24-0.199,0.44-0.439,0.44s-0.44-0.2-0.44-0.44
			C47.56,29.87,47.76,29.67,48,29.67L48,29.67z"/>
		<path fill="#6E6F71" d="M49.25,29.67c0.24,0,0.45,0.2,0.45,0.44c0,0.24-0.2,0.44-0.44,0.44s-0.44-0.2-0.44-0.44
			C48.81,29.87,49.01,29.67,49.25,29.67L49.25,29.67z"/>
		<path fill="#6E6F71" d="M50.5,29.67c0.25,0,0.439,0.2,0.439,0.44c0,0.24-0.199,0.44-0.439,0.44s-0.44-0.2-0.44-0.44
			C50.06,29.87,50.26,29.67,50.5,29.67L50.5,29.67z"/>
		<path fill="#6E6F71" d="M48,31.1c0.25,0,0.439,0.2,0.439,0.44c0,0.25-0.199,0.44-0.439,0.44s-0.44-0.2-0.44-0.44
			C47.56,31.29,47.76,31.1,48,31.1L48,31.1z"/>
		<path fill="#6E6F71" d="M49.25,31.1c0.24,0,0.45,0.2,0.45,0.44c0,0.25-0.2,0.44-0.44,0.44s-0.44-0.2-0.44-0.44
			C48.81,31.29,49.01,31.1,49.25,31.1L49.25,31.1z"/>
		<path fill="#6E6F71" d="M50.5,31.1c0.25,0,0.439,0.2,0.439,0.44c0,0.25-0.199,0.44-0.439,0.44s-0.44-0.2-0.44-0.44
			C50.06,31.29,50.26,31.1,50.5,31.1L50.5,31.1z"/>
		<path fill="#6E6F71" d="M48,32.52c0.25,0,0.439,0.2,0.439,0.44S48.24,33.4,48,33.4s-0.44-0.2-0.44-0.44S47.76,32.52,48,32.52
			L48,32.52z"/>
		<path fill="#6E6F71" d="M49.25,32.52c0.24,0,0.45,0.2,0.45,0.44s-0.2,0.44-0.44,0.44s-0.44-0.2-0.44-0.44
			C48.81,32.72,49.01,32.52,49.25,32.52L49.25,32.52z"/>
		<path fill="#6E6F71" d="M50.5,32.52c0.25,0,0.439,0.2,0.439,0.44S50.74,33.4,50.5,33.4s-0.44-0.2-0.44-0.44
			S50.26,32.52,50.5,32.52L50.5,32.52z"/>
		<path fill="#6E6F71" d="M48,33.95c0.25,0,0.439,0.2,0.439,0.44c0,0.239-0.189,0.449-0.439,0.449c-0.24,0-0.44-0.199-0.44-0.439
			S47.76,33.95,48,33.95L48,33.95z"/>
		<path fill="#6E6F71" d="M49.25,33.95c0.24,0,0.45,0.2,0.45,0.44c0,0.239-0.2,0.439-0.44,0.439s-0.44-0.2-0.44-0.439
			C48.82,34.15,49.01,33.95,49.25,33.95L49.25,33.95z"/>
		<path fill="#6E6F71" d="M50.5,33.95c0.25,0,0.439,0.2,0.439,0.44c0,0.239-0.199,0.439-0.439,0.439s-0.44-0.2-0.44-0.439
			C50.06,34.15,50.26,33.95,50.5,33.95L50.5,33.95z"/>
		<path fill="#6E6F71" d="M48,35.38c0.25,0,0.439,0.2,0.439,0.45S48.24,36.27,48,36.27s-0.44-0.199-0.44-0.439
			C47.56,35.58,47.76,35.38,48,35.38L48,35.38z"/>
		<path fill="#6E6F71" d="M49.25,35.38c0.24,0,0.45,0.2,0.45,0.45s-0.2,0.439-0.44,0.439s-0.44-0.199-0.44-0.439
			C48.81,35.58,49.01,35.38,49.25,35.38L49.25,35.38z"/>
		<path fill="#6E6F71" d="M50.5,35.38c0.25,0,0.439,0.2,0.439,0.45S50.74,36.27,50.5,36.27s-0.44-0.199-0.44-0.439
			C50.06,35.58,50.26,35.38,50.5,35.38L50.5,35.38z"/>
		<path fill="#6E6F71" d="M48,36.811c0.25,0,0.439,0.199,0.439,0.439S48.24,37.689,48,37.689s-0.44-0.199-0.44-0.439
			C47.56,37,47.76,36.811,48,36.811L48,36.811z"/>
		<path fill="#6E6F71" d="M49.25,36.811c0.24,0,0.45,0.199,0.45,0.439s-0.2,0.439-0.44,0.439s-0.44-0.199-0.44-0.439
			C48.81,37,49.01,36.811,49.25,36.811L49.25,36.811z"/>
		<path fill="#6E6F71" d="M50.5,36.811c0.25,0,0.439,0.199,0.439,0.439s-0.199,0.439-0.439,0.439s-0.44-0.199-0.44-0.439
			C50.06,37,50.26,36.811,50.5,36.811L50.5,36.811z"/>
		<path fill="#6E6F71" d="M48,38.23c0.25,0,0.439,0.199,0.439,0.439c0,0.25-0.199,0.439-0.439,0.439s-0.44-0.199-0.44-0.439
			S47.76,38.23,48,38.23L48,38.23z"/>
		<path fill="#6E6F71" d="M49.25,38.23c0.24,0,0.45,0.199,0.45,0.439c0,0.25-0.2,0.439-0.44,0.439s-0.44-0.199-0.44-0.439
			C48.81,38.43,49.01,38.23,49.25,38.23L49.25,38.23z"/>
		<path fill="#6E6F71" d="M50.5,38.23c0.25,0,0.439,0.199,0.439,0.439c0,0.25-0.199,0.439-0.439,0.439s-0.44-0.199-0.44-0.439
			S50.26,38.23,50.5,38.23L50.5,38.23z"/>
		<path fill="#6E6F71" d="M48,39.66c0.25,0,0.439,0.199,0.439,0.439S48.24,40.54,48,40.54s-0.44-0.2-0.44-0.44
			C47.56,39.85,47.76,39.66,48,39.66L48,39.66z"/>
		<path fill="#6E6F71" d="M49.25,39.66c0.24,0,0.45,0.199,0.45,0.439s-0.2,0.44-0.44,0.44s-0.44-0.2-0.44-0.44
			C48.81,39.85,49.01,39.66,49.25,39.66L49.25,39.66z"/>
		<path fill="#6E6F71" d="M50.5,39.66c0.25,0,0.439,0.199,0.439,0.439s-0.199,0.44-0.439,0.44s-0.44-0.2-0.44-0.44
			C50.06,39.85,50.26,39.66,50.5,39.66L50.5,39.66z"/>
		<path fill="#6E6F71" d="M48,41.08c0.25,0,0.439,0.2,0.439,0.439c0,0.25-0.199,0.44-0.439,0.44s-0.44-0.2-0.44-0.44
			C47.56,41.28,47.76,41.08,48,41.08L48,41.08z"/>
		<path fill="#6E6F71" d="M49.25,41.08c0.24,0,0.45,0.2,0.45,0.439c0,0.25-0.2,0.44-0.44,0.44s-0.44-0.2-0.44-0.44
			C48.81,41.28,49.01,41.08,49.25,41.08L49.25,41.08z"/>
		<path fill="#6E6F71" d="M50.5,41.08c0.25,0,0.439,0.2,0.439,0.439c0,0.25-0.199,0.44-0.439,0.44s-0.44-0.2-0.44-0.44
			C50.06,41.28,50.26,41.08,50.5,41.08L50.5,41.08z"/>
		<path fill="#6E6F71" d="M48,42.51c0.25,0,0.439,0.2,0.439,0.44c0,0.239-0.199,0.44-0.439,0.44s-0.44-0.201-0.44-0.44
			C47.56,42.71,47.76,42.51,48,42.51L48,42.51z"/>
		<path fill="#6E6F71" d="M49.25,42.51c0.24,0,0.45,0.2,0.45,0.44c0,0.239-0.2,0.44-0.44,0.44s-0.44-0.201-0.44-0.44
			C48.81,42.71,49.01,42.51,49.25,42.51L49.25,42.51z"/>
		<path fill="#6E6F71" d="M50.5,42.51c0.25,0,0.439,0.2,0.439,0.44c0,0.239-0.199,0.44-0.439,0.44s-0.44-0.201-0.44-0.44
			C50.06,42.71,50.26,42.51,50.5,42.51L50.5,42.51z"/>
		<path fill="#6E6F71" d="M48,43.939c0.25,0,0.439,0.201,0.439,0.44c0,0.24-0.199,0.44-0.439,0.44s-0.44-0.2-0.44-0.44
			C47.56,44.141,47.76,43.939,48,43.939L48,43.939z"/>
		<path fill="#6E6F71" d="M49.25,43.939c0.24,0,0.45,0.201,0.45,0.44c0,0.24-0.2,0.44-0.44,0.44s-0.44-0.2-0.44-0.44
			C48.81,44.141,49.01,43.939,49.25,43.939L49.25,43.939z"/>
		<path fill="#6E6F71" d="M50.5,43.939c0.25,0,0.439,0.201,0.439,0.44c0,0.24-0.199,0.44-0.439,0.44s-0.44-0.2-0.44-0.44
			C50.06,44.141,50.26,43.939,50.5,43.939L50.5,43.939z"/>
		<path fill="#6E6F71" d="M48,45.37c0.25,0,0.439,0.2,0.439,0.44c0,0.239-0.189,0.439-0.439,0.439c-0.24,0-0.44-0.2-0.44-0.439
			C47.56,45.57,47.76,45.37,48,45.37L48,45.37z"/>
		<path fill="#6E6F71" d="M49.25,45.37c0.24,0,0.45,0.2,0.45,0.44c0,0.239-0.2,0.439-0.44,0.439s-0.44-0.2-0.44-0.439
			C48.82,45.57,49.01,45.37,49.25,45.37L49.25,45.37z"/>
		<path fill="#6E6F71" d="M50.5,45.37c0.25,0,0.439,0.2,0.439,0.44c0,0.239-0.199,0.439-0.439,0.439s-0.44-0.2-0.44-0.439
			C50.06,45.57,50.26,45.37,50.5,45.37L50.5,45.37z"/>
		<path fill="#6E6F71" d="M73.83,22.53c0.25,0,0.439,0.2,0.439,0.439c0,0.24-0.2,0.44-0.439,0.44c-0.24,0-0.44-0.2-0.44-0.44
			C73.38,22.73,73.58,22.53,73.83,22.53L73.83,22.53z"/>
		<path fill="#6E6F71" d="M75.08,22.53c0.25,0,0.449,0.2,0.449,0.439c0,0.24-0.199,0.44-0.449,0.44c-0.24,0-0.44-0.2-0.44-0.44
			C74.64,22.73,74.83,22.53,75.08,22.53L75.08,22.53z"/>
		<path fill="#6E6F71" d="M76.33,22.53c0.25,0,0.439,0.2,0.439,0.439c0,0.24-0.2,0.44-0.439,0.44c-0.24,0-0.44-0.2-0.44-0.44
			C75.89,22.73,76.09,22.53,76.33,22.53L76.33,22.53z"/>
		<path fill="#6E6F71" d="M73.83,23.96c0.25,0,0.439,0.2,0.439,0.44c0,0.24-0.2,0.44-0.439,0.44c-0.24,0-0.44-0.2-0.44-0.44
			C73.38,24.16,73.58,23.96,73.83,23.96L73.83,23.96z"/>
		<path fill="#6E6F71" d="M75.08,23.96c0.25,0,0.449,0.2,0.449,0.44c0,0.24-0.199,0.44-0.449,0.44c-0.24,0-0.44-0.2-0.44-0.44
			C74.64,24.16,74.83,23.96,75.08,23.96L75.08,23.96z"/>
		<path fill="#6E6F71" d="M76.33,23.96c0.25,0,0.439,0.2,0.439,0.44c0,0.24-0.2,0.44-0.439,0.44c-0.24,0-0.44-0.2-0.44-0.44
			C75.89,24.16,76.09,23.96,76.33,23.96L76.33,23.96z"/>
		<path fill="#6E6F71" d="M73.83,25.39c0.25,0,0.439,0.2,0.439,0.44c0,0.25-0.2,0.44-0.439,0.44c-0.24,0-0.44-0.2-0.44-0.44
			C73.38,25.59,73.58,25.39,73.83,25.39L73.83,25.39z"/>
		<path fill="#6E6F71" d="M75.08,25.39c0.25,0,0.449,0.2,0.449,0.44c0,0.25-0.199,0.44-0.449,0.44c-0.24,0-0.44-0.2-0.44-0.44
			C74.64,25.59,74.83,25.39,75.08,25.39L75.08,25.39z"/>
		<path fill="#6E6F71" d="M76.33,25.39c0.25,0,0.439,0.2,0.439,0.44c0,0.25-0.2,0.44-0.439,0.44c-0.24,0-0.44-0.2-0.44-0.44
			C75.89,25.59,76.09,25.39,76.33,25.39L76.33,25.39z"/>
		<path fill="#6E6F71" d="M73.83,26.82c0.25,0,0.439,0.2,0.439,0.44c0,0.24-0.2,0.44-0.439,0.44c-0.24,0-0.44-0.2-0.44-0.44
			C73.38,27.01,73.58,26.82,73.83,26.82L73.83,26.82z"/>
		<path fill="#6E6F71" d="M75.08,26.82c0.25,0,0.449,0.2,0.449,0.44c0,0.24-0.199,0.44-0.449,0.44c-0.24,0-0.44-0.2-0.44-0.44
			C74.64,27.01,74.83,26.82,75.08,26.82L75.08,26.82z"/>
		<path fill="#6E6F71" d="M76.33,26.82c0.25,0,0.439,0.2,0.439,0.44c0,0.24-0.2,0.44-0.439,0.44c-0.24,0-0.44-0.2-0.44-0.44
			C75.89,27.01,76.09,26.82,76.33,26.82L76.33,26.82z"/>
		<path fill="#6E6F71" d="M73.83,28.24c0.25,0,0.439,0.2,0.439,0.44c0,0.25-0.2,0.44-0.439,0.44c-0.24,0-0.44-0.2-0.44-0.44
			C73.38,28.44,73.58,28.24,73.83,28.24L73.83,28.24z"/>
		<path fill="#6E6F71" d="M75.08,28.24c0.25,0,0.449,0.2,0.449,0.44c0,0.25-0.199,0.44-0.449,0.44c-0.24,0-0.44-0.2-0.44-0.44
			C74.64,28.44,74.83,28.24,75.08,28.24L75.08,28.24z"/>
		<path fill="#6E6F71" d="M76.33,28.24c0.25,0,0.439,0.2,0.439,0.44c0,0.25-0.2,0.44-0.439,0.44c-0.24,0-0.44-0.2-0.44-0.44
			C75.89,28.44,76.09,28.24,76.33,28.24L76.33,28.24z"/>
		<path fill="#6E6F71" d="M73.83,29.67c0.25,0,0.439,0.2,0.439,0.44c0,0.24-0.2,0.44-0.439,0.44c-0.24,0-0.44-0.2-0.44-0.44
			C73.38,29.87,73.58,29.67,73.83,29.67L73.83,29.67z"/>
		<path fill="#6E6F71" d="M75.08,29.67c0.25,0,0.449,0.2,0.449,0.44c0,0.24-0.199,0.44-0.449,0.44c-0.24,0-0.44-0.2-0.44-0.44
			C74.64,29.87,74.83,29.67,75.08,29.67L75.08,29.67z"/>
		<path fill="#6E6F71" d="M76.33,29.67c0.25,0,0.439,0.2,0.439,0.44c0,0.24-0.2,0.44-0.439,0.44c-0.24,0-0.44-0.2-0.44-0.44
			C75.89,29.87,76.09,29.67,76.33,29.67L76.33,29.67z"/>
		<path fill="#6E6F71" d="M73.83,31.1c0.25,0,0.439,0.2,0.439,0.44c0,0.25-0.2,0.44-0.439,0.44c-0.24,0-0.44-0.2-0.44-0.44
			C73.38,31.29,73.58,31.1,73.83,31.1L73.83,31.1z"/>
		<path fill="#6E6F71" d="M75.08,31.1c0.25,0,0.449,0.2,0.449,0.44c0,0.25-0.199,0.44-0.449,0.44c-0.24,0-0.44-0.2-0.44-0.44
			C74.64,31.29,74.83,31.1,75.08,31.1L75.08,31.1z"/>
		<path fill="#6E6F71" d="M76.33,31.1c0.25,0,0.439,0.2,0.439,0.44c0,0.25-0.2,0.44-0.439,0.44c-0.24,0-0.44-0.2-0.44-0.44
			C75.89,31.29,76.09,31.1,76.33,31.1L76.33,31.1z"/>
		<path fill="#6E6F71" d="M73.83,32.52c0.25,0,0.439,0.2,0.439,0.44s-0.2,0.44-0.439,0.44c-0.24,0-0.44-0.2-0.44-0.44
			C73.38,32.72,73.58,32.52,73.83,32.52L73.83,32.52z"/>
		<path fill="#6E6F71" d="M75.08,32.52c0.25,0,0.449,0.2,0.449,0.44S75.33,33.4,75.08,33.4c-0.24,0-0.44-0.2-0.44-0.44
			S74.83,32.52,75.08,32.52L75.08,32.52z"/>
		<path fill="#6E6F71" d="M76.33,32.52c0.25,0,0.439,0.2,0.439,0.44s-0.2,0.44-0.439,0.44c-0.24,0-0.44-0.2-0.44-0.44
			S76.09,32.52,76.33,32.52L76.33,32.52z"/>
		<path fill="#6E6F71" d="M73.83,33.95c0.25,0,0.439,0.2,0.439,0.44c0,0.239-0.2,0.439-0.439,0.439c-0.24,0-0.44-0.2-0.44-0.439
			C73.39,34.15,73.58,33.95,73.83,33.95L73.83,33.95z"/>
		<path fill="#6E6F71" d="M75.08,33.95c0.25,0,0.449,0.2,0.449,0.44c0,0.239-0.199,0.439-0.449,0.439c-0.24,0-0.44-0.2-0.44-0.439
			C74.64,34.15,74.83,33.95,75.08,33.95L75.08,33.95z"/>
		<path fill="#6E6F71" d="M76.33,33.95c0.25,0,0.439,0.2,0.439,0.44c0,0.239-0.2,0.439-0.439,0.439c-0.24,0-0.44-0.2-0.44-0.439
			C75.89,34.15,76.09,33.95,76.33,33.95L76.33,33.95z"/>
		<path fill="#6E6F71" d="M73.83,35.38c0.25,0,0.439,0.2,0.439,0.45s-0.2,0.439-0.439,0.439c-0.24,0-0.44-0.199-0.44-0.439
			C73.38,35.58,73.58,35.38,73.83,35.38L73.83,35.38z"/>
		<path fill="#6E6F71" d="M75.08,35.38c0.25,0,0.449,0.2,0.449,0.45S75.33,36.27,75.08,36.27c-0.24,0-0.44-0.199-0.44-0.439
			C74.64,35.58,74.83,35.38,75.08,35.38L75.08,35.38z"/>
		<path fill="#6E6F71" d="M76.33,35.38c0.25,0,0.439,0.2,0.439,0.45s-0.2,0.439-0.439,0.439c-0.24,0-0.44-0.199-0.44-0.439
			C75.89,35.58,76.09,35.38,76.33,35.38L76.33,35.38z"/>
		<path fill="#6E6F71" d="M73.83,36.811c0.25,0,0.439,0.199,0.439,0.439s-0.2,0.439-0.439,0.439c-0.24,0-0.44-0.199-0.44-0.439
			C73.38,37,73.58,36.811,73.83,36.811L73.83,36.811z"/>
		<path fill="#6E6F71" d="M75.08,36.811c0.25,0,0.449,0.199,0.449,0.439s-0.199,0.439-0.449,0.439c-0.24,0-0.44-0.199-0.44-0.439
			C74.64,37,74.83,36.811,75.08,36.811L75.08,36.811z"/>
		<path fill="#6E6F71" d="M76.33,36.811c0.25,0,0.439,0.199,0.439,0.439s-0.2,0.439-0.439,0.439c-0.24,0-0.44-0.199-0.44-0.439
			C75.89,37,76.09,36.811,76.33,36.811L76.33,36.811z"/>
		<path fill="#6E6F71" d="M73.83,38.23c0.25,0,0.439,0.199,0.439,0.439c0,0.25-0.2,0.439-0.439,0.439c-0.24,0-0.44-0.199-0.44-0.439
			C73.38,38.43,73.58,38.23,73.83,38.23L73.83,38.23z"/>
		<path fill="#6E6F71" d="M75.08,38.23c0.25,0,0.449,0.199,0.449,0.439c0,0.25-0.199,0.439-0.449,0.439
			c-0.24,0-0.44-0.199-0.44-0.439S74.83,38.23,75.08,38.23L75.08,38.23z"/>
		<path fill="#6E6F71" d="M76.33,38.23c0.25,0,0.439,0.199,0.439,0.439c0,0.25-0.2,0.439-0.439,0.439c-0.24,0-0.44-0.199-0.44-0.439
			S76.09,38.23,76.33,38.23L76.33,38.23z"/>
		<path fill="#6E6F71" d="M73.83,39.66c0.25,0,0.439,0.199,0.439,0.439s-0.2,0.44-0.439,0.44c-0.24,0-0.44-0.2-0.44-0.44
			C73.38,39.85,73.58,39.66,73.83,39.66L73.83,39.66z"/>
		<path fill="#6E6F71" d="M75.08,39.66c0.25,0,0.449,0.199,0.449,0.439s-0.199,0.44-0.449,0.44c-0.24,0-0.44-0.2-0.44-0.44
			C74.64,39.85,74.83,39.66,75.08,39.66L75.08,39.66z"/>
		<path fill="#6E6F71" d="M76.33,39.66c0.25,0,0.439,0.199,0.439,0.439s-0.2,0.44-0.439,0.44c-0.24,0-0.44-0.2-0.44-0.44
			C75.89,39.85,76.09,39.66,76.33,39.66L76.33,39.66z"/>
		<path fill="#6E6F71" d="M73.83,41.08c0.25,0,0.439,0.2,0.439,0.439c0,0.25-0.2,0.44-0.439,0.44c-0.24,0-0.44-0.2-0.44-0.44
			C73.38,41.28,73.58,41.08,73.83,41.08L73.83,41.08z"/>
		<path fill="#6E6F71" d="M75.08,41.08c0.25,0,0.449,0.2,0.449,0.439c0,0.25-0.199,0.44-0.449,0.44c-0.24,0-0.44-0.2-0.44-0.44
			C74.64,41.28,74.83,41.08,75.08,41.08L75.08,41.08z"/>
		<path fill="#6E6F71" d="M76.33,41.08c0.25,0,0.439,0.2,0.439,0.439c0,0.25-0.2,0.44-0.439,0.44c-0.24,0-0.44-0.2-0.44-0.44
			C75.89,41.28,76.09,41.08,76.33,41.08L76.33,41.08z"/>
		<path fill="#6E6F71" d="M73.83,42.51c0.25,0,0.439,0.2,0.439,0.44c0,0.239-0.2,0.44-0.439,0.44c-0.24,0-0.44-0.201-0.44-0.44
			C73.38,42.71,73.58,42.51,73.83,42.51L73.83,42.51z"/>
		<path fill="#6E6F71" d="M75.08,42.51c0.25,0,0.449,0.2,0.449,0.44c0,0.239-0.199,0.44-0.449,0.44c-0.24,0-0.44-0.201-0.44-0.44
			C74.64,42.71,74.83,42.51,75.08,42.51L75.08,42.51z"/>
		<path fill="#6E6F71" d="M76.33,42.51c0.25,0,0.439,0.2,0.439,0.44c0,0.239-0.2,0.44-0.439,0.44c-0.24,0-0.44-0.201-0.44-0.44
			C75.89,42.71,76.09,42.51,76.33,42.51L76.33,42.51z"/>
		<path fill="#6E6F71" d="M73.83,43.939c0.25,0,0.439,0.201,0.439,0.44c0,0.24-0.2,0.44-0.439,0.44c-0.24,0-0.44-0.2-0.44-0.44
			C73.38,44.141,73.58,43.939,73.83,43.939L73.83,43.939z"/>
		<path fill="#6E6F71" d="M75.08,43.939c0.25,0,0.449,0.201,0.449,0.44c0,0.24-0.199,0.44-0.449,0.44c-0.24,0-0.44-0.2-0.44-0.44
			C74.64,44.141,74.83,43.939,75.08,43.939L75.08,43.939z"/>
		<path fill="#6E6F71" d="M76.33,43.939c0.25,0,0.439,0.201,0.439,0.44c0,0.24-0.2,0.44-0.439,0.44c-0.24,0-0.44-0.2-0.44-0.44
			C75.89,44.141,76.09,43.939,76.33,43.939L76.33,43.939z"/>
		<path fill="#6E6F71" d="M73.83,45.37c0.25,0,0.439,0.2,0.439,0.44c0,0.239-0.2,0.439-0.439,0.439c-0.24,0-0.44-0.2-0.44-0.439
			C73.39,45.57,73.58,45.37,73.83,45.37L73.83,45.37z"/>
		<path fill="#6E6F71" d="M75.08,45.37c0.25,0,0.449,0.2,0.449,0.44c0,0.239-0.199,0.439-0.449,0.439c-0.24,0-0.44-0.2-0.44-0.439
			C74.64,45.57,74.83,45.37,75.08,45.37L75.08,45.37z"/>
		<path fill="#6E6F71" d="M76.33,45.37c0.25,0,0.439,0.2,0.439,0.44c0,0.239-0.2,0.439-0.439,0.439c-0.24,0-0.44-0.2-0.44-0.439
			C75.89,45.57,76.09,45.37,76.33,45.37L76.33,45.37z"/>
		<path fill="#6E6F71" d="M70.15,22.53c0.24,0,0.44,0.2,0.44,0.439c0,0.24-0.2,0.44-0.44,0.44c-0.25,0-0.439-0.2-0.439-0.44
			C69.7,22.73,69.9,22.53,70.15,22.53L70.15,22.53z"/>
		<path fill="#6E6F71" d="M71.4,22.53c0.24,0,0.45,0.2,0.45,0.439c0,0.24-0.2,0.44-0.439,0.44c-0.24,0-0.44-0.2-0.44-0.44
			C70.96,22.73,71.15,22.53,71.4,22.53L71.4,22.53z"/>
		<path fill="#6E6F71" d="M72.65,22.53c0.24,0,0.44,0.2,0.44,0.439c0,0.24-0.2,0.44-0.44,0.44c-0.239,0-0.439-0.2-0.439-0.44
			C72.21,22.73,72.4,22.53,72.65,22.53L72.65,22.53z"/>
		<path fill="#6E6F71" d="M70.15,23.96c0.24,0,0.44,0.2,0.44,0.44c0,0.24-0.2,0.44-0.44,0.44c-0.25,0-0.439-0.2-0.439-0.44
			C69.7,24.16,69.9,23.96,70.15,23.96L70.15,23.96z"/>
		<path fill="#6E6F71" d="M71.4,23.96c0.24,0,0.45,0.2,0.45,0.44c0,0.24-0.2,0.44-0.439,0.44c-0.24,0-0.44-0.2-0.44-0.44
			C70.96,24.16,71.15,23.96,71.4,23.96L71.4,23.96z"/>
		<path fill="#6E6F71" d="M72.65,23.96c0.24,0,0.44,0.2,0.44,0.44c0,0.24-0.2,0.44-0.44,0.44c-0.239,0-0.439-0.2-0.439-0.44
			C72.21,24.16,72.4,23.96,72.65,23.96L72.65,23.96z"/>
		<path fill="#6E6F71" d="M70.15,25.39c0.24,0,0.44,0.2,0.44,0.44c0,0.25-0.2,0.44-0.44,0.44c-0.25,0-0.439-0.2-0.439-0.44
			C69.7,25.59,69.9,25.39,70.15,25.39L70.15,25.39z"/>
		<path fill="#6E6F71" d="M71.4,25.39c0.24,0,0.45,0.2,0.45,0.44c0,0.25-0.2,0.44-0.439,0.44c-0.24,0-0.44-0.2-0.44-0.44
			C70.96,25.59,71.15,25.39,71.4,25.39L71.4,25.39z"/>
		<path fill="#6E6F71" d="M72.65,25.39c0.24,0,0.44,0.2,0.44,0.44c0,0.25-0.2,0.44-0.44,0.44c-0.239,0-0.439-0.2-0.439-0.44
			C72.21,25.59,72.4,25.39,72.65,25.39L72.65,25.39z"/>
		<path fill="#6E6F71" d="M70.15,26.82c0.24,0,0.44,0.2,0.44,0.44c0,0.24-0.2,0.44-0.44,0.44c-0.25,0-0.439-0.2-0.439-0.44
			C69.7,27.01,69.9,26.82,70.15,26.82L70.15,26.82z"/>
		<path fill="#6E6F71" d="M71.4,26.82c0.24,0,0.45,0.2,0.45,0.44c0,0.24-0.2,0.44-0.439,0.44c-0.24,0-0.44-0.2-0.44-0.44
			C70.96,27.01,71.15,26.82,71.4,26.82L71.4,26.82z"/>
		<path fill="#6E6F71" d="M72.65,26.82c0.24,0,0.44,0.2,0.44,0.44c0,0.24-0.2,0.44-0.44,0.44c-0.239,0-0.439-0.2-0.439-0.44
			C72.21,27.01,72.4,26.82,72.65,26.82L72.65,26.82z"/>
		<path fill="#6E6F71" d="M70.15,28.24c0.24,0,0.44,0.2,0.44,0.44c0,0.25-0.2,0.44-0.44,0.44c-0.25,0-0.439-0.2-0.439-0.44
			C69.7,28.44,69.9,28.24,70.15,28.24L70.15,28.24z"/>
		<path fill="#6E6F71" d="M71.4,28.24c0.24,0,0.45,0.2,0.45,0.44c0,0.25-0.2,0.44-0.439,0.44c-0.24,0-0.44-0.2-0.44-0.44
			C70.96,28.44,71.15,28.24,71.4,28.24L71.4,28.24z"/>
		<path fill="#6E6F71" d="M72.65,28.24c0.24,0,0.44,0.2,0.44,0.44c0,0.25-0.2,0.44-0.44,0.44c-0.239,0-0.439-0.2-0.439-0.44
			C72.21,28.44,72.4,28.24,72.65,28.24L72.65,28.24z"/>
		<path fill="#6E6F71" d="M70.15,29.67c0.24,0,0.44,0.2,0.44,0.44c0,0.24-0.2,0.44-0.44,0.44c-0.25,0-0.439-0.2-0.439-0.44
			C69.7,29.87,69.9,29.67,70.15,29.67L70.15,29.67z"/>
		<path fill="#6E6F71" d="M71.4,29.67c0.24,0,0.45,0.2,0.45,0.44c0,0.24-0.2,0.44-0.439,0.44c-0.24,0-0.44-0.2-0.44-0.44
			C70.96,29.87,71.15,29.67,71.4,29.67L71.4,29.67z"/>
		<path fill="#6E6F71" d="M72.65,29.67c0.24,0,0.44,0.2,0.44,0.44c0,0.24-0.2,0.44-0.44,0.44c-0.239,0-0.439-0.2-0.439-0.44
			C72.21,29.87,72.4,29.67,72.65,29.67L72.65,29.67z"/>
		<path fill="#6E6F71" d="M70.15,31.1c0.24,0,0.44,0.2,0.44,0.44c0,0.25-0.2,0.44-0.44,0.44c-0.25,0-0.439-0.2-0.439-0.44
			C69.7,31.29,69.9,31.1,70.15,31.1L70.15,31.1z"/>
		<path fill="#6E6F71" d="M71.4,31.1c0.24,0,0.45,0.2,0.45,0.44c0,0.25-0.2,0.44-0.439,0.44c-0.24,0-0.44-0.2-0.44-0.44
			C70.96,31.29,71.15,31.1,71.4,31.1L71.4,31.1z"/>
		<path fill="#6E6F71" d="M72.65,31.1c0.24,0,0.44,0.2,0.44,0.44c0,0.25-0.2,0.44-0.44,0.44c-0.239,0-0.439-0.2-0.439-0.44
			C72.21,31.29,72.4,31.1,72.65,31.1L72.65,31.1z"/>
		<path fill="#6E6F71" d="M70.15,32.52c0.24,0,0.44,0.2,0.44,0.44s-0.2,0.44-0.44,0.44c-0.25,0-0.439-0.2-0.439-0.44
			C69.7,32.72,69.9,32.52,70.15,32.52L70.15,32.52z"/>
		<path fill="#6E6F71" d="M71.4,32.52c0.24,0,0.45,0.2,0.45,0.44s-0.2,0.44-0.439,0.44c-0.24,0-0.44-0.2-0.44-0.44
			C70.96,32.72,71.15,32.52,71.4,32.52L71.4,32.52z"/>
		<path fill="#6E6F71" d="M72.65,32.52c0.24,0,0.44,0.2,0.44,0.44s-0.2,0.44-0.44,0.44c-0.239,0-0.439-0.2-0.439-0.44
			S72.4,32.52,72.65,32.52L72.65,32.52z"/>
		<path fill="#6E6F71" d="M70.15,33.95c0.24,0,0.44,0.2,0.44,0.44c0,0.239-0.2,0.439-0.44,0.439c-0.25,0-0.439-0.2-0.439-0.439
			C69.71,34.15,69.9,33.95,70.15,33.95L70.15,33.95z"/>
		<path fill="#6E6F71" d="M71.4,33.95c0.24,0,0.45,0.2,0.45,0.44c0,0.239-0.2,0.439-0.439,0.439c-0.24,0-0.44-0.2-0.44-0.439
			C70.97,34.15,71.15,33.95,71.4,33.95L71.4,33.95z"/>
		<path fill="#6E6F71" d="M72.65,33.95c0.24,0,0.44,0.2,0.44,0.44c0,0.239-0.2,0.439-0.44,0.439c-0.239,0-0.439-0.2-0.439-0.439
			C72.21,34.15,72.4,33.95,72.65,33.95L72.65,33.95z"/>
		<path fill="#6E6F71" d="M70.15,35.38c0.24,0,0.44,0.2,0.44,0.45s-0.2,0.439-0.44,0.439c-0.25,0-0.439-0.199-0.439-0.439
			C69.7,35.58,69.9,35.38,70.15,35.38L70.15,35.38z"/>
		<path fill="#6E6F71" d="M71.4,35.38c0.24,0,0.45,0.2,0.45,0.45s-0.2,0.439-0.439,0.439c-0.24,0-0.44-0.199-0.44-0.439
			C70.96,35.58,71.15,35.38,71.4,35.38L71.4,35.38z"/>
		<path fill="#6E6F71" d="M72.65,35.38c0.24,0,0.44,0.2,0.44,0.45s-0.2,0.439-0.44,0.439c-0.239,0-0.439-0.199-0.439-0.439
			C72.21,35.58,72.4,35.38,72.65,35.38L72.65,35.38z"/>
		<path fill="#6E6F71" d="M70.15,36.811c0.24,0,0.44,0.199,0.44,0.439s-0.2,0.439-0.44,0.439c-0.25,0-0.439-0.199-0.439-0.439
			C69.7,37,69.9,36.811,70.15,36.811L70.15,36.811z"/>
		<path fill="#6E6F71" d="M71.4,36.811c0.24,0,0.45,0.199,0.45,0.439s-0.2,0.439-0.439,0.439c-0.24,0-0.44-0.199-0.44-0.439
			C70.96,37,71.15,36.811,71.4,36.811L71.4,36.811z"/>
		<path fill="#6E6F71" d="M72.65,36.811c0.24,0,0.44,0.199,0.44,0.439s-0.2,0.439-0.44,0.439c-0.239,0-0.439-0.199-0.439-0.439
			C72.21,37,72.4,36.811,72.65,36.811L72.65,36.811z"/>
		<path fill="#6E6F71" d="M70.15,38.23c0.24,0,0.44,0.199,0.44,0.439c0,0.25-0.2,0.439-0.44,0.439c-0.25,0-0.439-0.199-0.439-0.439
			C69.7,38.43,69.9,38.23,70.15,38.23L70.15,38.23z"/>
		<path fill="#6E6F71" d="M71.4,38.23c0.24,0,0.45,0.199,0.45,0.439c0,0.25-0.2,0.439-0.439,0.439c-0.24,0-0.44-0.199-0.44-0.439
			C70.96,38.43,71.15,38.23,71.4,38.23L71.4,38.23z"/>
		<path fill="#6E6F71" d="M72.65,38.23c0.24,0,0.44,0.199,0.44,0.439c0,0.25-0.2,0.439-0.44,0.439c-0.239,0-0.439-0.199-0.439-0.439
			S72.4,38.23,72.65,38.23L72.65,38.23z"/>
		<path fill="#6E6F71" d="M70.15,39.66c0.24,0,0.44,0.199,0.44,0.439s-0.2,0.44-0.44,0.44c-0.25,0-0.439-0.2-0.439-0.44
			C69.7,39.85,69.9,39.66,70.15,39.66L70.15,39.66z"/>
		<path fill="#6E6F71" d="M71.4,39.66c0.24,0,0.45,0.199,0.45,0.439s-0.2,0.44-0.439,0.44c-0.24,0-0.44-0.2-0.44-0.44
			C70.96,39.85,71.15,39.66,71.4,39.66L71.4,39.66z"/>
		<path fill="#6E6F71" d="M72.65,39.66c0.24,0,0.44,0.199,0.44,0.439s-0.2,0.44-0.44,0.44c-0.239,0-0.439-0.2-0.439-0.44
			C72.21,39.85,72.4,39.66,72.65,39.66L72.65,39.66z"/>
		<path fill="#6E6F71" d="M70.15,41.08c0.24,0,0.44,0.2,0.44,0.439c0,0.25-0.2,0.44-0.44,0.44c-0.25,0-0.439-0.2-0.439-0.44
			C69.7,41.28,69.9,41.08,70.15,41.08L70.15,41.08z"/>
		<path fill="#6E6F71" d="M71.4,41.08c0.24,0,0.45,0.2,0.45,0.439c0,0.25-0.2,0.44-0.439,0.44c-0.24,0-0.44-0.2-0.44-0.44
			C70.96,41.28,71.15,41.08,71.4,41.08L71.4,41.08z"/>
		<path fill="#6E6F71" d="M72.65,41.08c0.24,0,0.44,0.2,0.44,0.439c0,0.25-0.2,0.44-0.44,0.44c-0.239,0-0.439-0.2-0.439-0.44
			C72.21,41.28,72.4,41.08,72.65,41.08L72.65,41.08z"/>
		<path fill="#6E6F71" d="M70.15,42.51c0.24,0,0.44,0.2,0.44,0.44c0,0.239-0.2,0.44-0.44,0.44c-0.25,0-0.439-0.201-0.439-0.44
			C69.7,42.71,69.9,42.51,70.15,42.51L70.15,42.51z"/>
		<path fill="#6E6F71" d="M71.4,42.51c0.24,0,0.45,0.2,0.45,0.44c0,0.239-0.2,0.44-0.439,0.44c-0.24,0-0.44-0.201-0.44-0.44
			C70.96,42.71,71.15,42.51,71.4,42.51L71.4,42.51z"/>
		<path fill="#6E6F71" d="M72.65,42.51c0.24,0,0.44,0.2,0.44,0.44c0,0.239-0.2,0.44-0.44,0.44c-0.239,0-0.439-0.201-0.439-0.44
			C72.21,42.71,72.4,42.51,72.65,42.51L72.65,42.51z"/>
		<path fill="#6E6F71" d="M70.15,43.939c0.24,0,0.44,0.201,0.44,0.44c0,0.24-0.2,0.44-0.44,0.44c-0.25,0-0.439-0.2-0.439-0.44
			C69.7,44.141,69.9,43.939,70.15,43.939L70.15,43.939z"/>
		<path fill="#6E6F71" d="M71.4,43.939c0.24,0,0.45,0.201,0.45,0.44c0,0.24-0.2,0.44-0.439,0.44c-0.24,0-0.44-0.2-0.44-0.44
			C70.96,44.141,71.15,43.939,71.4,43.939L71.4,43.939z"/>
		<path fill="#6E6F71" d="M72.65,43.939c0.24,0,0.44,0.201,0.44,0.44c0,0.24-0.2,0.44-0.44,0.44c-0.239,0-0.439-0.2-0.439-0.44
			C72.21,44.141,72.4,43.939,72.65,43.939L72.65,43.939z"/>
		<path fill="#6E6F71" d="M70.15,45.37c0.24,0,0.44,0.2,0.44,0.44c0,0.239-0.2,0.439-0.44,0.439c-0.25,0-0.439-0.2-0.439-0.439
			C69.71,45.57,69.9,45.37,70.15,45.37L70.15,45.37z"/>
		<path fill="#6E6F71" d="M71.4,45.37c0.24,0,0.45,0.2,0.45,0.44c0,0.239-0.2,0.439-0.439,0.439c-0.24,0-0.44-0.2-0.44-0.439
			C70.97,45.57,71.15,45.37,71.4,45.37L71.4,45.37z"/>
		<path fill="#6E6F71" d="M72.65,45.37c0.24,0,0.44,0.2,0.44,0.44c0,0.239-0.2,0.439-0.44,0.439c-0.239,0-0.439-0.2-0.439-0.439
			C72.21,45.57,72.4,45.37,72.65,45.37L72.65,45.37z"/>
		<path fill="#6E6F71" d="M66.48,22.53c0.24,0,0.44,0.2,0.44,0.439c0,0.24-0.2,0.44-0.44,0.44c-0.239,0-0.439-0.2-0.439-0.44
			C66.04,22.73,66.24,22.53,66.48,22.53L66.48,22.53z"/>
		<path fill="#6E6F71" d="M67.73,22.53c0.24,0,0.45,0.2,0.45,0.439c0,0.24-0.2,0.44-0.45,0.44c-0.239,0-0.439-0.2-0.439-0.44
			C67.29,22.73,67.49,22.53,67.73,22.53L67.73,22.53z"/>
		<path fill="#6E6F71" d="M68.99,22.53c0.239,0,0.439,0.2,0.439,0.439c0,0.24-0.2,0.44-0.439,0.44c-0.24,0-0.44-0.2-0.44-0.44
			C68.54,22.73,68.74,22.53,68.99,22.53L68.99,22.53z"/>
		<path fill="#6E6F71" d="M66.48,23.96c0.24,0,0.44,0.2,0.44,0.44c0,0.24-0.2,0.44-0.44,0.44c-0.239,0-0.439-0.2-0.439-0.44
			C66.04,24.16,66.24,23.96,66.48,23.96L66.48,23.96z"/>
		<path fill="#6E6F71" d="M67.73,23.96c0.24,0,0.45,0.2,0.45,0.44c0,0.24-0.2,0.44-0.45,0.44c-0.239,0-0.439-0.2-0.439-0.44
			C67.29,24.16,67.49,23.96,67.73,23.96L67.73,23.96z"/>
		<path fill="#6E6F71" d="M68.99,23.96c0.239,0,0.439,0.2,0.439,0.44c0,0.24-0.2,0.44-0.439,0.44c-0.24,0-0.44-0.2-0.44-0.44
			C68.54,24.16,68.74,23.96,68.99,23.96L68.99,23.96z"/>
		<path fill="#6E6F71" d="M66.48,25.39c0.24,0,0.44,0.2,0.44,0.44c0,0.25-0.2,0.44-0.44,0.44c-0.239,0-0.439-0.2-0.439-0.44
			C66.04,25.59,66.24,25.39,66.48,25.39L66.48,25.39z"/>
		<path fill="#6E6F71" d="M67.73,25.39c0.24,0,0.45,0.2,0.45,0.44c0,0.25-0.2,0.44-0.45,0.44c-0.239,0-0.439-0.2-0.439-0.44
			C67.29,25.59,67.49,25.39,67.73,25.39L67.73,25.39z"/>
		<path fill="#6E6F71" d="M68.99,25.39c0.239,0,0.439,0.2,0.439,0.44c0,0.25-0.2,0.44-0.439,0.44c-0.24,0-0.44-0.2-0.44-0.44
			C68.54,25.59,68.74,25.39,68.99,25.39L68.99,25.39z"/>
		<path fill="#6E6F71" d="M66.48,26.82c0.24,0,0.44,0.2,0.44,0.44c0,0.24-0.2,0.44-0.44,0.44c-0.239,0-0.439-0.2-0.439-0.44
			C66.04,27.01,66.24,26.82,66.48,26.82L66.48,26.82z"/>
		<path fill="#6E6F71" d="M67.73,26.82c0.24,0,0.45,0.2,0.45,0.44c0,0.24-0.2,0.44-0.45,0.44c-0.239,0-0.439-0.2-0.439-0.44
			C67.29,27.01,67.49,26.82,67.73,26.82L67.73,26.82z"/>
		<path fill="#6E6F71" d="M68.99,26.82c0.239,0,0.439,0.2,0.439,0.44c0,0.24-0.2,0.44-0.439,0.44c-0.24,0-0.44-0.2-0.44-0.44
			C68.54,27.01,68.74,26.82,68.99,26.82L68.99,26.82z"/>
		<path fill="#6E6F71" d="M66.48,28.24c0.24,0,0.44,0.2,0.44,0.44c0,0.25-0.2,0.44-0.44,0.44c-0.239,0-0.439-0.2-0.439-0.44
			C66.04,28.44,66.24,28.24,66.48,28.24L66.48,28.24z"/>
		<path fill="#6E6F71" d="M67.73,28.24c0.24,0,0.45,0.2,0.45,0.44c0,0.25-0.2,0.44-0.45,0.44c-0.239,0-0.439-0.2-0.439-0.44
			C67.29,28.44,67.49,28.24,67.73,28.24L67.73,28.24z"/>
		<path fill="#6E6F71" d="M68.99,28.24c0.239,0,0.439,0.2,0.439,0.44c0,0.25-0.2,0.44-0.439,0.44c-0.24,0-0.44-0.2-0.44-0.44
			C68.54,28.44,68.74,28.24,68.99,28.24L68.99,28.24z"/>
		<path fill="#6E6F71" d="M66.48,29.67c0.24,0,0.44,0.2,0.44,0.44c0,0.24-0.2,0.44-0.44,0.44c-0.239,0-0.439-0.2-0.439-0.44
			C66.04,29.87,66.24,29.67,66.48,29.67L66.48,29.67z"/>
		<path fill="#6E6F71" d="M67.73,29.67c0.24,0,0.45,0.2,0.45,0.44c0,0.24-0.2,0.44-0.45,0.44c-0.239,0-0.439-0.2-0.439-0.44
			C67.29,29.87,67.49,29.67,67.73,29.67L67.73,29.67z"/>
		<path fill="#6E6F71" d="M68.99,29.67c0.239,0,0.439,0.2,0.439,0.44c0,0.24-0.2,0.44-0.439,0.44c-0.24,0-0.44-0.2-0.44-0.44
			C68.54,29.87,68.74,29.67,68.99,29.67L68.99,29.67z"/>
		<path fill="#6E6F71" d="M66.48,31.1c0.24,0,0.44,0.2,0.44,0.44c0,0.25-0.2,0.44-0.44,0.44c-0.239,0-0.439-0.2-0.439-0.44
			C66.04,31.29,66.24,31.1,66.48,31.1L66.48,31.1z"/>
		<path fill="#6E6F71" d="M67.73,31.1c0.24,0,0.45,0.2,0.45,0.44c0,0.25-0.2,0.44-0.45,0.44c-0.239,0-0.439-0.2-0.439-0.44
			C67.29,31.29,67.49,31.1,67.73,31.1L67.73,31.1z"/>
		<path fill="#6E6F71" d="M68.99,31.1c0.239,0,0.439,0.2,0.439,0.44c0,0.25-0.2,0.44-0.439,0.44c-0.24,0-0.44-0.2-0.44-0.44
			C68.54,31.29,68.74,31.1,68.99,31.1L68.99,31.1z"/>
		<path fill="#6E6F71" d="M66.48,32.52c0.24,0,0.44,0.2,0.44,0.44s-0.2,0.44-0.44,0.44c-0.239,0-0.439-0.2-0.439-0.44
			S66.24,32.52,66.48,32.52L66.48,32.52z"/>
		<path fill="#6E6F71" d="M67.73,32.52c0.24,0,0.45,0.2,0.45,0.44s-0.2,0.44-0.45,0.44c-0.239,0-0.439-0.2-0.439-0.44
			S67.49,32.52,67.73,32.52L67.73,32.52z"/>
		<path fill="#6E6F71" d="M68.99,32.52c0.239,0,0.439,0.2,0.439,0.44s-0.2,0.44-0.439,0.44c-0.24,0-0.44-0.2-0.44-0.44
			C68.54,32.72,68.74,32.52,68.99,32.52L68.99,32.52z"/>
		<path fill="#6E6F71" d="M66.48,33.95c0.24,0,0.44,0.2,0.44,0.44c0,0.239-0.2,0.439-0.44,0.439c-0.239,0-0.439-0.2-0.439-0.439
			C66.04,34.15,66.24,33.95,66.48,33.95L66.48,33.95z"/>
		<path fill="#6E6F71" d="M67.73,33.95c0.24,0,0.45,0.2,0.45,0.44c0,0.239-0.2,0.439-0.45,0.439c-0.239,0-0.439-0.2-0.439-0.439
			C67.29,34.15,67.49,33.95,67.73,33.95L67.73,33.95z"/>
		<path fill="#6E6F71" d="M68.99,33.95c0.239,0,0.439,0.2,0.439,0.44c0,0.239-0.2,0.439-0.439,0.439c-0.24,0-0.44-0.2-0.44-0.439
			C68.55,34.15,68.74,33.95,68.99,33.95L68.99,33.95z"/>
		<path fill="#6E6F71" d="M66.48,35.38c0.24,0,0.44,0.2,0.44,0.45s-0.2,0.439-0.44,0.439c-0.239,0-0.439-0.199-0.439-0.439
			C66.04,35.58,66.24,35.38,66.48,35.38L66.48,35.38z"/>
		<path fill="#6E6F71" d="M67.73,35.38c0.24,0,0.45,0.2,0.45,0.45s-0.2,0.439-0.45,0.439c-0.239,0-0.439-0.199-0.439-0.439
			C67.29,35.58,67.49,35.38,67.73,35.38L67.73,35.38z"/>
		<path fill="#6E6F71" d="M68.99,35.38c0.239,0,0.439,0.2,0.439,0.45s-0.2,0.439-0.439,0.439c-0.24,0-0.44-0.199-0.44-0.439
			C68.54,35.58,68.74,35.38,68.99,35.38L68.99,35.38z"/>
		<path fill="#6E6F71" d="M66.48,36.811c0.24,0,0.44,0.199,0.44,0.439s-0.2,0.439-0.44,0.439c-0.239,0-0.439-0.199-0.439-0.439
			C66.04,37,66.24,36.811,66.48,36.811L66.48,36.811z"/>
		<path fill="#6E6F71" d="M67.73,36.811c0.24,0,0.45,0.199,0.45,0.439s-0.2,0.439-0.45,0.439c-0.239,0-0.439-0.199-0.439-0.439
			C67.29,37,67.49,36.811,67.73,36.811L67.73,36.811z"/>
		<path fill="#6E6F71" d="M68.99,36.811c0.239,0,0.439,0.199,0.439,0.439s-0.2,0.439-0.439,0.439c-0.24,0-0.44-0.199-0.44-0.439
			C68.54,37,68.74,36.811,68.99,36.811L68.99,36.811z"/>
		<path fill="#6E6F71" d="M66.48,38.23c0.24,0,0.44,0.199,0.44,0.439c0,0.25-0.2,0.439-0.44,0.439c-0.239,0-0.439-0.199-0.439-0.439
			S66.24,38.23,66.48,38.23L66.48,38.23z"/>
		<path fill="#6E6F71" d="M67.73,38.23c0.24,0,0.45,0.199,0.45,0.439c0,0.25-0.2,0.439-0.45,0.439c-0.239,0-0.439-0.199-0.439-0.439
			S67.49,38.23,67.73,38.23L67.73,38.23z"/>
		<path fill="#6E6F71" d="M68.99,38.23c0.239,0,0.439,0.199,0.439,0.439c0,0.25-0.2,0.439-0.439,0.439
			c-0.24,0-0.44-0.199-0.44-0.439C68.54,38.43,68.74,38.23,68.99,38.23L68.99,38.23z"/>
		<path fill="#6E6F71" d="M66.48,39.66c0.24,0,0.44,0.199,0.44,0.439s-0.2,0.44-0.44,0.44c-0.239,0-0.439-0.2-0.439-0.44
			C66.04,39.85,66.24,39.66,66.48,39.66L66.48,39.66z"/>
		<path fill="#6E6F71" d="M67.73,39.66c0.24,0,0.45,0.199,0.45,0.439s-0.2,0.44-0.45,0.44c-0.239,0-0.439-0.2-0.439-0.44
			C67.29,39.85,67.49,39.66,67.73,39.66L67.73,39.66z"/>
		<path fill="#6E6F71" d="M68.99,39.66c0.239,0,0.439,0.199,0.439,0.439s-0.2,0.44-0.439,0.44c-0.24,0-0.44-0.2-0.44-0.44
			C68.54,39.85,68.74,39.66,68.99,39.66L68.99,39.66z"/>
		<path fill="#6E6F71" d="M66.48,41.08c0.24,0,0.44,0.2,0.44,0.439c0,0.25-0.2,0.44-0.44,0.44c-0.239,0-0.439-0.2-0.439-0.44
			C66.04,41.28,66.24,41.08,66.48,41.08L66.48,41.08z"/>
		<path fill="#6E6F71" d="M67.73,41.08c0.24,0,0.45,0.2,0.45,0.439c0,0.25-0.2,0.44-0.45,0.44c-0.239,0-0.439-0.2-0.439-0.44
			C67.29,41.28,67.49,41.08,67.73,41.08L67.73,41.08z"/>
		<path fill="#6E6F71" d="M68.99,41.08c0.239,0,0.439,0.2,0.439,0.439c0,0.25-0.2,0.44-0.439,0.44c-0.24,0-0.44-0.2-0.44-0.44
			C68.54,41.28,68.74,41.08,68.99,41.08L68.99,41.08z"/>
		<path fill="#6E6F71" d="M66.48,42.51c0.24,0,0.44,0.2,0.44,0.44c0,0.239-0.2,0.44-0.44,0.44c-0.239,0-0.439-0.201-0.439-0.44
			C66.04,42.71,66.24,42.51,66.48,42.51L66.48,42.51z"/>
		<path fill="#6E6F71" d="M67.73,42.51c0.24,0,0.45,0.2,0.45,0.44c0,0.239-0.2,0.44-0.45,0.44c-0.239,0-0.439-0.201-0.439-0.44
			C67.29,42.71,67.49,42.51,67.73,42.51L67.73,42.51z"/>
		<path fill="#6E6F71" d="M68.99,42.51c0.239,0,0.439,0.2,0.439,0.44c0,0.239-0.2,0.44-0.439,0.44c-0.24,0-0.44-0.201-0.44-0.44
			C68.54,42.71,68.74,42.51,68.99,42.51L68.99,42.51z"/>
		<path fill="#6E6F71" d="M66.48,43.939c0.24,0,0.44,0.201,0.44,0.44c0,0.24-0.2,0.44-0.44,0.44c-0.239,0-0.439-0.2-0.439-0.44
			C66.04,44.141,66.24,43.939,66.48,43.939L66.48,43.939z"/>
		<path fill="#6E6F71" d="M67.73,43.939c0.24,0,0.45,0.201,0.45,0.44c0,0.24-0.2,0.44-0.45,0.44c-0.239,0-0.439-0.2-0.439-0.44
			C67.29,44.141,67.49,43.939,67.73,43.939L67.73,43.939z"/>
		<path fill="#6E6F71" d="M68.99,43.939c0.239,0,0.439,0.201,0.439,0.44c0,0.24-0.2,0.44-0.439,0.44c-0.24,0-0.44-0.2-0.44-0.44
			C68.54,44.141,68.74,43.939,68.99,43.939L68.99,43.939z"/>
		<path fill="#6E6F71" d="M66.48,45.37c0.24,0,0.44,0.2,0.44,0.44c0,0.239-0.2,0.439-0.44,0.439c-0.239,0-0.439-0.2-0.439-0.439
			C66.04,45.57,66.24,45.37,66.48,45.37L66.48,45.37z"/>
		<path fill="#6E6F71" d="M67.73,45.37c0.24,0,0.45,0.2,0.45,0.44c0,0.239-0.2,0.439-0.45,0.439c-0.239,0-0.439-0.2-0.439-0.439
			C67.29,45.57,67.49,45.37,67.73,45.37L67.73,45.37z"/>
		<path fill="#6E6F71" d="M68.99,45.37c0.239,0,0.439,0.2,0.439,0.44c0,0.239-0.2,0.439-0.439,0.439c-0.24,0-0.44-0.2-0.44-0.439
			C68.55,45.57,68.74,45.37,68.99,45.37L68.99,45.37z"/>
		<path fill="#6E6F71" d="M62.8,22.53c0.25,0,0.44,0.2,0.44,0.439c0,0.24-0.2,0.44-0.44,0.44s-0.44-0.2-0.44-0.44
			C62.36,22.73,62.56,22.53,62.8,22.53L62.8,22.53z"/>
		<path fill="#6E6F71" d="M64.06,22.53c0.24,0,0.45,0.2,0.45,0.439c0,0.24-0.2,0.44-0.44,0.44c-0.239,0-0.439-0.2-0.439-0.44
			C63.61,22.73,63.81,22.53,64.06,22.53L64.06,22.53z"/>
		<path fill="#6E6F71" d="M65.31,22.53c0.25,0,0.44,0.2,0.44,0.439c0,0.24-0.2,0.44-0.44,0.44s-0.439-0.2-0.439-0.44
			C64.86,22.73,65.06,22.53,65.31,22.53L65.31,22.53z"/>
		<path fill="#6E6F71" d="M62.8,23.96c0.25,0,0.44,0.2,0.44,0.44c0,0.24-0.2,0.44-0.44,0.44s-0.44-0.2-0.44-0.44
			C62.36,24.16,62.56,23.96,62.8,23.96L62.8,23.96z"/>
		<path fill="#6E6F71" d="M64.06,23.96c0.24,0,0.45,0.2,0.45,0.44c0,0.24-0.2,0.44-0.44,0.44c-0.239,0-0.439-0.2-0.439-0.44
			C63.61,24.16,63.81,23.96,64.06,23.96L64.06,23.96z"/>
		<path fill="#6E6F71" d="M65.31,23.96c0.25,0,0.44,0.2,0.44,0.44c0,0.24-0.2,0.44-0.44,0.44s-0.439-0.2-0.439-0.44
			C64.86,24.16,65.06,23.96,65.31,23.96L65.31,23.96z"/>
		<path fill="#6E6F71" d="M62.8,25.39c0.25,0,0.44,0.2,0.44,0.44c0,0.25-0.2,0.44-0.44,0.44s-0.44-0.2-0.44-0.44
			C62.36,25.59,62.56,25.39,62.8,25.39L62.8,25.39z"/>
		<path fill="#6E6F71" d="M64.06,25.39c0.24,0,0.45,0.2,0.45,0.44c0,0.25-0.2,0.44-0.44,0.44c-0.239,0-0.439-0.2-0.439-0.44
			C63.61,25.59,63.81,25.39,64.06,25.39L64.06,25.39z"/>
		<path fill="#6E6F71" d="M65.31,25.39c0.25,0,0.44,0.2,0.44,0.44c0,0.25-0.2,0.44-0.44,0.44s-0.439-0.2-0.439-0.44
			C64.86,25.59,65.06,25.39,65.31,25.39L65.31,25.39z"/>
		<path fill="#6E6F71" d="M62.8,26.82c0.25,0,0.44,0.2,0.44,0.44c0,0.24-0.2,0.44-0.44,0.44s-0.44-0.2-0.44-0.44
			C62.36,27.01,62.56,26.82,62.8,26.82L62.8,26.82z"/>
		<path fill="#6E6F71" d="M64.06,26.82c0.24,0,0.45,0.2,0.45,0.44c0,0.24-0.2,0.44-0.44,0.44c-0.239,0-0.439-0.2-0.439-0.44
			C63.61,27.01,63.81,26.82,64.06,26.82L64.06,26.82z"/>
		<path fill="#6E6F71" d="M65.31,26.82c0.25,0,0.44,0.2,0.44,0.44c0,0.24-0.2,0.44-0.44,0.44s-0.439-0.2-0.439-0.44
			C64.86,27.01,65.06,26.82,65.31,26.82L65.31,26.82z"/>
		<path fill="#6E6F71" d="M62.8,28.24c0.25,0,0.44,0.2,0.44,0.44c0,0.25-0.2,0.44-0.44,0.44s-0.44-0.2-0.44-0.44
			C62.36,28.44,62.56,28.24,62.8,28.24L62.8,28.24z"/>
		<path fill="#6E6F71" d="M64.06,28.24c0.24,0,0.45,0.2,0.45,0.44c0,0.25-0.2,0.44-0.44,0.44c-0.239,0-0.439-0.2-0.439-0.44
			C63.61,28.44,63.81,28.24,64.06,28.24L64.06,28.24z"/>
		<path fill="#6E6F71" d="M65.31,28.24c0.25,0,0.44,0.2,0.44,0.44c0,0.25-0.2,0.44-0.44,0.44s-0.439-0.2-0.439-0.44
			C64.86,28.44,65.06,28.24,65.31,28.24L65.31,28.24z"/>
		<path fill="#6E6F71" d="M62.8,29.67c0.25,0,0.44,0.2,0.44,0.44c0,0.24-0.2,0.44-0.44,0.44s-0.44-0.2-0.44-0.44
			C62.36,29.87,62.56,29.67,62.8,29.67L62.8,29.67z"/>
		<path fill="#6E6F71" d="M64.06,29.67c0.24,0,0.45,0.2,0.45,0.44c0,0.24-0.2,0.44-0.44,0.44c-0.239,0-0.439-0.2-0.439-0.44
			C63.61,29.87,63.81,29.67,64.06,29.67L64.06,29.67z"/>
		<path fill="#6E6F71" d="M65.31,29.67c0.25,0,0.44,0.2,0.44,0.44c0,0.24-0.2,0.44-0.44,0.44s-0.439-0.2-0.439-0.44
			C64.86,29.87,65.06,29.67,65.31,29.67L65.31,29.67z"/>
		<path fill="#6E6F71" d="M62.8,31.1c0.25,0,0.44,0.2,0.44,0.44c0,0.25-0.2,0.44-0.44,0.44s-0.44-0.2-0.44-0.44
			C62.36,31.29,62.56,31.1,62.8,31.1L62.8,31.1z"/>
		<path fill="#6E6F71" d="M64.06,31.1c0.24,0,0.45,0.2,0.45,0.44c0,0.25-0.2,0.44-0.44,0.44c-0.239,0-0.439-0.2-0.439-0.44
			C63.61,31.29,63.81,31.1,64.06,31.1L64.06,31.1z"/>
		<path fill="#6E6F71" d="M65.31,31.1c0.25,0,0.44,0.2,0.44,0.44c0,0.25-0.2,0.44-0.44,0.44s-0.439-0.2-0.439-0.44
			C64.86,31.29,65.06,31.1,65.31,31.1L65.31,31.1z"/>
		<path fill="#6E6F71" d="M62.8,32.52c0.25,0,0.44,0.2,0.44,0.44s-0.2,0.44-0.44,0.44s-0.44-0.2-0.44-0.44S62.56,32.52,62.8,32.52
			L62.8,32.52z"/>
		<path fill="#6E6F71" d="M64.06,32.52c0.24,0,0.45,0.2,0.45,0.44s-0.2,0.44-0.44,0.44c-0.239,0-0.439-0.2-0.439-0.44
			C63.61,32.72,63.81,32.52,64.06,32.52L64.06,32.52z"/>
		<path fill="#6E6F71" d="M65.31,32.52c0.25,0,0.44,0.2,0.44,0.44s-0.2,0.44-0.44,0.44s-0.439-0.2-0.439-0.44
			C64.86,32.72,65.06,32.52,65.31,32.52L65.31,32.52z"/>
		<path fill="#6E6F71" d="M62.8,33.95c0.25,0,0.44,0.2,0.44,0.44c0,0.239-0.2,0.439-0.44,0.439s-0.44-0.2-0.44-0.439
			C62.36,34.15,62.56,33.95,62.8,33.95L62.8,33.95z"/>
		<path fill="#6E6F71" d="M64.06,33.95c0.24,0,0.45,0.2,0.45,0.44c0,0.239-0.2,0.439-0.44,0.439c-0.239,0-0.439-0.2-0.439-0.439
			C63.63,34.15,63.81,33.95,64.06,33.95L64.06,33.95z"/>
		<path fill="#6E6F71" d="M65.31,33.95c0.25,0,0.44,0.2,0.44,0.44c0,0.239-0.2,0.439-0.44,0.439s-0.439-0.2-0.439-0.439
			C64.87,34.15,65.06,33.95,65.31,33.95L65.31,33.95z"/>
		<path fill="#6E6F71" d="M62.8,35.38c0.25,0,0.44,0.2,0.44,0.45s-0.2,0.439-0.44,0.439s-0.44-0.199-0.44-0.439
			C62.36,35.58,62.56,35.38,62.8,35.38L62.8,35.38z"/>
		<path fill="#6E6F71" d="M64.06,35.38c0.24,0,0.45,0.2,0.45,0.45s-0.2,0.439-0.44,0.439c-0.239,0-0.439-0.199-0.439-0.439
			C63.61,35.58,63.81,35.38,64.06,35.38L64.06,35.38z"/>
		<path fill="#6E6F71" d="M65.31,35.38c0.25,0,0.44,0.2,0.44,0.45s-0.2,0.439-0.44,0.439S64.87,36.07,64.87,35.83
			C64.86,35.58,65.06,35.38,65.31,35.38L65.31,35.38z"/>
		<path fill="#6E6F71" d="M62.8,36.811c0.25,0,0.44,0.199,0.44,0.439s-0.2,0.439-0.44,0.439s-0.44-0.199-0.44-0.439
			C62.36,37,62.56,36.811,62.8,36.811L62.8,36.811z"/>
		<path fill="#6E6F71" d="M64.06,36.811c0.24,0,0.45,0.199,0.45,0.439s-0.2,0.439-0.44,0.439c-0.239,0-0.439-0.199-0.439-0.439
			C63.61,37,63.81,36.811,64.06,36.811L64.06,36.811z"/>
		<path fill="#6E6F71" d="M65.31,36.811c0.25,0,0.44,0.199,0.44,0.439s-0.2,0.439-0.44,0.439S64.87,37.49,64.87,37.25
			C64.86,37,65.06,36.811,65.31,36.811L65.31,36.811z"/>
		<path fill="#6E6F71" d="M62.8,38.23c0.25,0,0.44,0.199,0.44,0.439c0,0.25-0.2,0.439-0.44,0.439s-0.44-0.199-0.44-0.439
			S62.56,38.23,62.8,38.23L62.8,38.23z"/>
		<path fill="#6E6F71" d="M64.06,38.23c0.24,0,0.45,0.199,0.45,0.439c0,0.25-0.2,0.439-0.44,0.439c-0.239,0-0.439-0.199-0.439-0.439
			C63.61,38.43,63.81,38.23,64.06,38.23L64.06,38.23z"/>
		<path fill="#6E6F71" d="M65.31,38.23c0.25,0,0.44,0.199,0.44,0.439c0,0.25-0.2,0.439-0.44,0.439S64.87,38.91,64.87,38.67
			C64.86,38.43,65.06,38.23,65.31,38.23L65.31,38.23z"/>
		<path fill="#6E6F71" d="M62.8,39.66c0.25,0,0.44,0.199,0.44,0.439s-0.2,0.44-0.44,0.44s-0.44-0.2-0.44-0.44
			C62.36,39.85,62.56,39.66,62.8,39.66L62.8,39.66z"/>
		<path fill="#6E6F71" d="M64.06,39.66c0.24,0,0.45,0.199,0.45,0.439s-0.2,0.44-0.44,0.44c-0.239,0-0.439-0.2-0.439-0.44
			C63.61,39.85,63.81,39.66,64.06,39.66L64.06,39.66z"/>
		<path fill="#6E6F71" d="M65.31,39.66c0.25,0,0.44,0.199,0.44,0.439s-0.2,0.44-0.44,0.44s-0.439-0.2-0.439-0.44
			C64.86,39.85,65.06,39.66,65.31,39.66L65.31,39.66z"/>
		<path fill="#6E6F71" d="M62.8,41.08c0.25,0,0.44,0.2,0.44,0.439c0,0.25-0.2,0.44-0.44,0.44s-0.44-0.2-0.44-0.44
			C62.36,41.28,62.56,41.08,62.8,41.08L62.8,41.08z"/>
		<path fill="#6E6F71" d="M64.06,41.08c0.24,0,0.45,0.2,0.45,0.439c0,0.25-0.2,0.44-0.44,0.44c-0.239,0-0.439-0.2-0.439-0.44
			C63.61,41.28,63.81,41.08,64.06,41.08L64.06,41.08z"/>
		<path fill="#6E6F71" d="M65.31,41.08c0.25,0,0.44,0.2,0.44,0.439c0,0.25-0.2,0.44-0.44,0.44s-0.439-0.2-0.439-0.44
			C64.86,41.28,65.06,41.08,65.31,41.08L65.31,41.08z"/>
		<path fill="#6E6F71" d="M62.8,42.51c0.25,0,0.44,0.2,0.44,0.44c0,0.239-0.2,0.44-0.44,0.44s-0.44-0.201-0.44-0.44
			C62.36,42.71,62.56,42.51,62.8,42.51L62.8,42.51z"/>
		<path fill="#6E6F71" d="M64.06,42.51c0.24,0,0.45,0.2,0.45,0.44c0,0.239-0.2,0.44-0.44,0.44c-0.239,0-0.439-0.201-0.439-0.44
			C63.61,42.71,63.81,42.51,64.06,42.51L64.06,42.51z"/>
		<path fill="#6E6F71" d="M65.31,42.51c0.25,0,0.44,0.2,0.44,0.44c0,0.239-0.2,0.44-0.44,0.44s-0.439-0.201-0.439-0.44
			C64.86,42.71,65.06,42.51,65.31,42.51L65.31,42.51z"/>
		<path fill="#6E6F71" d="M62.8,43.939c0.25,0,0.44,0.201,0.44,0.44c0,0.24-0.2,0.44-0.44,0.44s-0.44-0.2-0.44-0.44
			C62.36,44.141,62.56,43.939,62.8,43.939L62.8,43.939z"/>
		<path fill="#6E6F71" d="M64.06,43.939c0.24,0,0.45,0.201,0.45,0.44c0,0.24-0.2,0.44-0.44,0.44c-0.239,0-0.439-0.2-0.439-0.44
			C63.61,44.141,63.81,43.939,64.06,43.939L64.06,43.939z"/>
		<path fill="#6E6F71" d="M65.31,43.939c0.25,0,0.44,0.201,0.44,0.44c0,0.24-0.2,0.44-0.44,0.44s-0.439-0.2-0.439-0.44
			C64.86,44.141,65.06,43.939,65.31,43.939L65.31,43.939z"/>
		<path fill="#6E6F71" d="M62.8,45.37c0.25,0,0.44,0.2,0.44,0.44c0,0.239-0.2,0.439-0.44,0.439s-0.44-0.2-0.44-0.439
			C62.36,45.57,62.56,45.37,62.8,45.37L62.8,45.37z"/>
		<path fill="#6E6F71" d="M64.06,45.37c0.24,0,0.45,0.2,0.45,0.44c0,0.239-0.2,0.439-0.44,0.439c-0.239,0-0.439-0.2-0.439-0.439
			C63.63,45.57,63.81,45.37,64.06,45.37L64.06,45.37z"/>
		<path fill="#6E6F71" d="M65.31,45.37c0.25,0,0.44,0.2,0.44,0.44c0,0.239-0.2,0.439-0.44,0.439s-0.439-0.2-0.439-0.439
			C64.87,45.57,65.06,45.37,65.31,45.37L65.31,45.37z"/>
	</g>
</g>
<path fill="#BEC531" d="M122.93,41.641V40.2h-0.55v-0.25h1.39v0.25h-0.56v1.44H122.93L122.93,41.641z M123.95,41.641v-1.69h0.42
	l0.43,1.35l0.41-1.35h0.41v1.7h-0.261v-1.42l-0.439,1.43h-0.25l-0.46-1.439v1.439h-0.26V41.641z"/>
<path fill="#BEC531" d="M97.42,44.29c0,0.33-0.01,0.71-0.03,0.97h0.51l0.03-0.619h0.021c0.239,0.489,0.619,0.699,1.09,0.699
	c0.729,0,1.47-0.66,1.47-2c0.01-1.13-0.57-1.91-1.38-1.91c-0.53,0-0.91,0.271-1.11,0.69h-0.01V39.77h-0.59V44.29L97.42,44.29z
	 M98,43.09c0-0.109,0.02-0.199,0.029-0.279c0.12-0.521,0.5-0.841,0.9-0.841c0.64,0,0.97,0.64,0.97,1.39c0,0.86-0.37,1.44-0.989,1.44
	c-0.431,0-0.78-0.319-0.891-0.79c-0.01-0.08-0.029-0.16-0.029-0.25v-0.67H98z M100.78,41.52l1.211,3.44
	c0.029,0.09,0.039,0.14,0.039,0.181c0,0.039-0.02,0.09-0.05,0.159c-0.13,0.351-0.34,0.61-0.5,0.761c-0.18,0.17-0.37,0.279-0.52,0.33
	l0.149,0.569c0.15-0.03,0.44-0.149,0.73-0.44c0.41-0.399,0.7-1.06,1.12-2.34l0.89-2.67h-0.63l-0.65,2.19
	c-0.079,0.27-0.149,0.56-0.21,0.78h-0.01c-0.05-0.23-0.13-0.521-0.21-0.771l-0.72-2.21h-0.641V41.52z M106.52,40.859
	c0.19,0,0.33-0.189,0.33-0.39c0-0.22-0.14-0.39-0.33-0.39c-0.189,0-0.35,0.18-0.35,0.39s0.14,0.39,0.34,0.39H106.52L106.52,40.859z
	 M107.77,40.859c0.2,0,0.33-0.189,0.33-0.39c0-0.22-0.14-0.39-0.33-0.39c-0.189,0-0.34,0.18-0.34,0.39s0.13,0.39,0.33,0.39H107.77
	L107.77,40.859z M108.45,43.51c0.01-0.07,0.02-0.18,0.02-0.32c0-0.689-0.28-1.76-1.35-1.76c-0.95,0-1.53,0.891-1.53,2.021
	s0.6,1.89,1.61,1.89c0.52,0,0.88-0.13,1.09-0.24l-0.101-0.49c-0.22,0.11-0.479,0.19-0.899,0.19c-0.601,0-1.11-0.38-1.12-1.3h2.28
	V43.51z M106.17,43.03c0.05-0.47,0.31-1.101,0.91-1.101c0.67,0,0.83,0.67,0.819,1.11h-1.729V43.03z M109.8,39.78h-0.59v5.479h0.59
	v-1.4l0.3-0.39l1.13,1.79h0.73l-1.44-2.199l1.26-1.541h-0.72l-0.96,1.291c-0.09,0.129-0.21,0.289-0.29,0.42h-0.01V39.78L109.8,39.78
	z M114.61,44.609c-0.17,0.091-0.39,0.19-0.729,0.19c-0.65,0-1.14-0.53-1.14-1.39c0-0.78,0.409-1.41,1.159-1.41
	c0.32,0,0.551,0.09,0.69,0.18l0.14-0.52c-0.16-0.09-0.47-0.19-0.819-0.19c-1.07,0-1.761,0.83-1.761,1.98
	c0,1.14,0.641,1.92,1.63,1.92c0.44,0,0.79-0.13,0.94-0.22L114.61,44.609L114.61,44.609z M116.75,41.439c-0.9,0-1.62,0.73-1.62,1.99
	c0,1.18,0.68,1.92,1.57,1.92c0.79,0,1.63-0.6,1.63-1.99C118.33,42.22,117.69,41.439,116.75,41.439L116.75,41.439z M116.74,41.95
	c0.699,0,0.979,0.8,0.979,1.44c0,0.84-0.43,1.449-0.99,1.449c-0.58,0-0.989-0.62-0.989-1.43
	C115.73,42.689,116.04,41.95,116.74,41.95L116.74,41.95z M118.85,45.08c0.23,0.16,0.561,0.26,0.92,0.26
	c0.78,0,1.221-0.47,1.221-1.13c0-0.56-0.29-0.88-0.851-1.13c-0.43-0.18-0.62-0.32-0.62-0.63c0-0.28,0.19-0.511,0.55-0.511
	c0.301,0,0.54,0.121,0.671,0.221l0.149-0.49c-0.18-0.12-0.47-0.23-0.81-0.23c-0.7,0-1.13,0.49-1.13,1.101
	c0,0.45,0.279,0.819,0.859,1.06c0.44,0.19,0.61,0.36,0.61,0.69c0,0.31-0.2,0.56-0.63,0.56c-0.3,0-0.61-0.14-0.78-0.27L118.85,45.08
	L118.85,45.08z"/>
<path fill="#BEC531" d="M37.92,33.51c0.02-0.199,0.07-0.51,0.07-0.91c0-1.98-0.931-5.08-4.461-5.08c-3.14,0-5.05,2.56-5.05,5.81
	s1.98,5.46,5.3,5.46c1.721,0,2.9-0.38,3.591-0.69L37.04,36.7c-0.74,0.31-1.58,0.56-2.98,0.56c-1.96,0-3.649-1.09-3.7-3.74h7.561
	V33.51z M30.37,32.1c0.159-1.36,1.02-3.19,3.01-3.19c2.2,0,2.74,1.94,2.72,3.19H30.37L30.37,32.1z"/>
<path fill="#FFFFFF" d="M41.24,22.73H39.3v14.73c0.65-0.36,1.51-0.84,1.94-1.67v-1.3l1-1.11l3.72,5.17h2.38L43.6,32.2l4.16-4.43
	H45.4l-3.159,3.72c-0.311,0.38-0.69,0.85-0.961,1.23h-0.05v-9.99H41.24z"/>
<path fill="#FFFFFF" d="M56.22,36.67c-0.56,0.24-1.29,0.53-2.41,0.53c-2.14,0-3.74-1.54-3.74-4.03c0-2.25,1.341-4.08,3.811-4.08
	c1.07,0,1.81,0.24,2.27,0.51l0.45-1.51c-0.54-0.27-1.56-0.56-2.72-0.56c-3.521,0-5.79,2.4-5.79,5.729c0,3.301,2.12,5.53,5.37,5.53
	c1.45,0,2.58-0.38,3.1-0.649L56.22,36.67L56.22,36.67z"/>
<path fill="#FFFFFF" d="M62.57,28.99c2.32,0,3.23,2.32,3.23,4.14c0,2.431-1.4,4.19-3.271,4.19c-1.92,0-3.27-1.78-3.27-4.141
	C59.25,31.13,60.25,28.99,62.57,28.99L62.57,28.99z M62.61,27.52c-2.979,0-5.34,2.12-5.34,5.73c0,3.41,2.25,5.55,5.17,5.55
	c2.61,0,5.37-1.739,5.37-5.729C67.8,29.77,65.71,27.52,62.61,27.52L62.61,27.52z"/>
<path fill="#BEC531" d="M35.16,25.85c0.649,0,1.09-0.35,1.09-0.74c0-0.42-0.471-0.74-1.09-0.74c-0.62,0-1.11,0.34-1.11,0.74
	c0,0.39,0.44,0.74,1.09,0.74H35.16L35.16,25.85z"/>
<path fill="#BEC531" d="M31.04,25.85c0.649,0,1.09-0.35,1.09-0.74c0-0.42-0.47-0.74-1.09-0.74s-1.13,0.34-1.13,0.74
	c0,0.39,0.47,0.74,1.109,0.74H31.04L31.04,25.85z"/>
<path fill="#FFFFFF" d="M102.96,32.09c0.16-1.36,1.03-3.19,3.01-3.19c2.21,0,2.74,1.94,2.72,3.19H102.96L102.96,32.09z M110.53,33.5
	c0.021-0.2,0.07-0.51,0.07-0.92c0-1.98-0.939-5.09-4.46-5.09c-3.149,0-5.07,2.57-5.07,5.83c0,3.26,1.99,5.47,5.311,5.47
	c1.72,0,2.899-0.38,3.6-0.7l-0.33-1.41c-0.729,0.311-1.59,0.561-2.989,0.561c-1.971,0-3.66-1.09-3.71-3.75h7.579V33.5z"/>
<path fill="#FFFFFF" d="M92.72,32.09c0.16-1.36,1.03-3.19,3.01-3.19c2.21,0,2.75,1.94,2.73,3.19H92.72L92.72,32.09z M100.28,33.5
	c0.021-0.2,0.061-0.51,0.061-0.92c0-1.98-0.94-5.09-4.46-5.09c-3.15,0-5.07,2.57-5.07,5.83c0,3.26,1.99,5.47,5.311,5.47
	c1.72,0,2.899-0.38,3.59-0.7l-0.33-1.41c-0.74,0.311-1.59,0.561-2.99,0.561c-1.96,0-3.66-1.09-3.71-3.75h7.6V33.5z"/>
<path fill="#FFFFFF" d="M85.27,38.54h1.94v-5.76c0-0.33,0.05-0.65,0.09-0.92c0.27-1.47,1.25-2.52,2.64-2.52
	c0.271,0,0.471,0.02,0.67,0.07v-1.85c-0.18-0.04-0.34-0.07-0.56-0.07c-1.32,0-2.5,0.92-2.99,2.37h-0.09l-0.06-2.12H85.19
	c0.07,1,0.09,2.1,0.09,3.37v7.43H85.27z"/>
<path fill="#FFFFFF" d="M84.25,38.55c-0.601,0.14-1.25,0.21-1.95,0.21c-1.65,0-2.99-0.5-4-1.51c-1.021-1.01-1.521-2.33-1.521-3.95
	c0-1.69,0.551-3.07,1.641-4.13c1.1-1.06,2.53-1.6,4.31-1.6c0.54,0,1.05,0.05,1.53,0.15v1.68c-0.46-0.13-0.96-0.19-1.51-0.19
	c-1.17,0-2.11,0.37-2.811,1.11c-0.699,0.74-1.06,1.69-1.06,2.85c0,1.2,0.36,2.16,1.07,2.87c0.72,0.71,1.63,1.069,2.729,1.069
	c0.53,0,1.061-0.069,1.57-0.209V38.55L84.25,38.55z"/>
<path fill="#FFFFFF" d="M113.11,35.76v-3.61c0-0.83,0.301-1.52,0.881-2.04c0.59-0.53,1.229-0.79,1.93-0.79
	c0.83,0,1.46,0.28,1.89,0.83c0.44,0.56,0.65,1.34,0.65,2.35v6.061h2.06v-6.28c0-1.521-0.37-2.69-1.109-3.48
	c-0.73-0.79-1.66-1.19-2.761-1.19c-0.68,0-1.34,0.17-1.979,0.52c-0.65,0.35-1.15,0.82-1.51,1.43h-0.04v-1.83h-2.061v9.75
	C111.94,37.08,112.66,36.48,113.11,35.76L113.11,35.76z"/>
<path fill="#FFFFFF" d="M120.76,27.45v-2.11h-0.8v-0.37h2.03v0.37h-0.811v2.11H120.76L120.76,27.45z M122.26,27.45v-2.48h0.61
	l0.63,1.98l0.609-1.98h0.601v2.48h-0.38v-2.08l-0.641,2.08h-0.37l-0.67-2.11v2.11H122.26L122.26,27.45z"/>
<path fill="#FFFFFF" d="M68.55,38c0.76,0.45,1.86,0.77,3.05,0.77c2.58,0,4.061-1.369,4.061-3.27c0-1.609-0.96-2.55-2.851-3.27
	c-1.41-0.54-2.06-0.94-2.06-1.84c0-0.81,0.649-1.48,1.819-1.48c1,0,1.79,0.36,2.221,0.63l0.489-1.43c-0.6-0.36-1.569-0.67-2.67-0.67
	c-2.33,0-3.739,1.43-3.739,3.18c0,1.3,0.92,2.38,2.87,3.069c1.46,0.541,2.02,1.051,2.02,2c0,0.9-0.67,1.61-2.11,1.61
	c-0.979,0-2.02-0.399-2.6-0.78L68.55,38L68.55,38z"/>
<g>
	<defs>
		<path id="SVGID_3_" d="M57.034,22.318c0,0,0.852-2.394,2.946-2.739c2.095-0.346,2.97-0.139,2.97-0.139l0.483,0.069
			c0,0,0.415,0,0.484,0c0.068,0,2.063,0.092,3.104,2.601l0.878,0.069l-8.995,0.3L57.034,22.318z"/>
	</defs>
	<clipPath id="SVGID_4_">
		<use xlink:href="#SVGID_3_"  overflow="visible"/>
	</clipPath>
	<path clip-path="url(#SVGID_4_)" fill-rule="evenodd" clip-rule="evenodd" fill="#6E6F71" d="M62.753,21.048
		c0.258,0,0.464,0.208,0.464,0.464c0,0.255-0.207,0.463-0.464,0.463c-0.254,0-0.461-0.208-0.461-0.463
		C62.292,21.256,62.499,21.048,62.753,21.048L62.753,21.048z"/>
	<path clip-path="url(#SVGID_4_)" fill-rule="evenodd" clip-rule="evenodd" fill="#6E6F71" d="M64.063,21.048
		c0.255,0,0.466,0.208,0.466,0.464c0,0.255-0.21,0.463-0.466,0.463c-0.255,0-0.462-0.208-0.462-0.463
		C63.601,21.256,63.808,21.048,64.063,21.048L64.063,21.048z"/>
	<path clip-path="url(#SVGID_4_)" fill-rule="evenodd" clip-rule="evenodd" fill="#6E6F71" d="M65.372,21.048
		c0.258,0,0.465,0.208,0.465,0.464c0,0.255-0.207,0.463-0.465,0.463c-0.253,0-0.46-0.208-0.46-0.463
		C64.912,21.256,65.119,21.048,65.372,21.048L65.372,21.048z"/>
	<path clip-path="url(#SVGID_4_)" fill-rule="evenodd" clip-rule="evenodd" fill="#6E6F71" d="M66.555,21.048
		c0.258,0,0.465,0.208,0.465,0.464c0,0.255-0.208,0.463-0.465,0.463c-0.253,0-0.46-0.208-0.46-0.463
		C66.095,21.256,66.302,21.048,66.555,21.048L66.555,21.048z"/>
	<path clip-path="url(#SVGID_4_)" fill-rule="evenodd" clip-rule="evenodd" fill="#6E6F71" d="M58.905,21.048
		c0.254,0,0.463,0.208,0.463,0.464c0,0.255-0.208,0.463-0.463,0.463c-0.256,0-0.463-0.208-0.463-0.463
		C58.441,21.256,58.648,21.048,58.905,21.048L58.905,21.048z"/>
	<path clip-path="url(#SVGID_4_)" fill-rule="evenodd" clip-rule="evenodd" fill="#6E6F71" d="M57.668,21.048
		c0.254,0,0.463,0.208,0.463,0.464c0,0.255-0.209,0.463-0.463,0.463c-0.256,0-0.464-0.208-0.464-0.463
		C57.204,21.256,57.411,21.048,57.668,21.048L57.668,21.048z"/>
	<path clip-path="url(#SVGID_4_)" fill-rule="evenodd" clip-rule="evenodd" fill="#6E6F71" d="M60.214,21.048
		c0.254,0,0.466,0.208,0.466,0.464c0,0.255-0.211,0.463-0.466,0.463c-0.257,0-0.464-0.208-0.464-0.463
		C59.75,21.256,59.957,21.048,60.214,21.048L60.214,21.048z"/>
	<path clip-path="url(#SVGID_4_)" fill-rule="evenodd" clip-rule="evenodd" fill="#6E6F71" d="M61.522,21.048
		c0.256,0,0.462,0.208,0.462,0.464c0,0.255-0.206,0.463-0.462,0.463c-0.255,0-0.462-0.208-0.462-0.463
		C61.06,21.256,61.267,21.048,61.522,21.048L61.522,21.048z"/>
	<path clip-path="url(#SVGID_4_)" fill-rule="evenodd" clip-rule="evenodd" fill="#6E6F71" d="M62.753,19.736
		c0.258,0,0.464,0.208,0.464,0.465c0,0.254-0.207,0.463-0.464,0.463c-0.254,0-0.461-0.209-0.461-0.463
		C62.292,19.944,62.499,19.736,62.753,19.736L62.753,19.736z"/>
	<path clip-path="url(#SVGID_4_)" fill-rule="evenodd" clip-rule="evenodd" fill="#6E6F71" d="M64.063,19.736
		c0.255,0,0.466,0.208,0.466,0.465c0,0.254-0.21,0.463-0.466,0.463c-0.255,0-0.462-0.209-0.462-0.463
		C63.601,19.944,63.808,19.736,64.063,19.736L64.063,19.736z"/>
	<path clip-path="url(#SVGID_4_)" fill-rule="evenodd" clip-rule="evenodd" fill="#6E6F71" d="M65.372,19.736
		c0.258,0,0.465,0.208,0.465,0.465c0,0.254-0.207,0.463-0.465,0.463c-0.253,0-0.46-0.209-0.46-0.463
		C64.912,19.944,65.119,19.736,65.372,19.736L65.372,19.736z"/>
	<path clip-path="url(#SVGID_4_)" fill-rule="evenodd" clip-rule="evenodd" fill="#6E6F71" d="M58.905,19.736
		c0.254,0,0.463,0.208,0.463,0.465c0,0.254-0.208,0.463-0.463,0.463c-0.256,0-0.463-0.209-0.463-0.463
		C58.441,19.944,58.648,19.736,58.905,19.736L58.905,19.736z"/>
	<path clip-path="url(#SVGID_4_)" fill-rule="evenodd" clip-rule="evenodd" fill="#6E6F71" d="M60.214,19.736
		c0.254,0,0.466,0.208,0.466,0.465c0,0.254-0.211,0.463-0.466,0.463c-0.257,0-0.464-0.209-0.464-0.463
		C59.75,19.944,59.957,19.736,60.214,19.736L60.214,19.736z"/>
	<path clip-path="url(#SVGID_4_)" fill-rule="evenodd" clip-rule="evenodd" fill="#6E6F71" d="M61.522,19.736
		c0.256,0,0.462,0.208,0.462,0.465c0,0.254-0.206,0.463-0.462,0.463c-0.255,0-0.462-0.209-0.462-0.463
		C61.06,19.944,61.267,19.736,61.522,19.736L61.522,19.736z"/>
</g>
</svg>
