<?xml version="1.0" encoding="utf-8"?>
<!-- Generator: Adobe Illustrator 16.0.0, SVG Export Plug-In . SVG Version: 6.00 Build 0)  -->
<!DOCTYPE svg PUBLIC "-//W3C//DTD SVG 1.1//EN" "http://www.w3.org/Graphics/SVG/1.1/DTD/svg11.dtd">
<svg version="1.1" id="Layer_1" xmlns="http://www.w3.org/2000/svg" xmlns:xlink="http://www.w3.org/1999/xlink" x="0px" y="0px"
	 width="155.691px" height="65px" viewBox="0 0 155.691 65" enable-background="new 0 0 155.691 65" xml:space="preserve">
<g>
	<g opacity="0.6">
		<path fill-rule="evenodd" clip-rule="evenodd" fill="#D1D2D0" d="M70.991,32.3c0.678,0,1.226,0.548,1.226,1.224
			s-0.548,1.226-1.226,1.226c-0.674,0-1.224-0.55-1.224-1.226S70.317,32.3,70.991,32.3L70.991,32.3z"/>
		<path fill-rule="evenodd" clip-rule="evenodd" fill="#D1D2D0" d="M61.98,24.547c0.247,0,0.449,0.201,0.449,0.448
			c0,0.247-0.202,0.448-0.449,0.448c-0.246,0-0.446-0.201-0.446-0.448C61.534,24.748,61.734,24.547,61.98,24.547L61.98,24.547z"/>
		<path fill-rule="evenodd" clip-rule="evenodd" fill="#D1D2D0" d="M63.248,24.547c0.246,0,0.447,0.201,0.447,0.448
			c0,0.247-0.201,0.448-0.447,0.448c-0.247,0-0.448-0.201-0.448-0.448C62.799,24.748,63,24.547,63.248,24.547L63.248,24.547z"/>
		<path fill-rule="evenodd" clip-rule="evenodd" fill="#D1D2D0" d="M64.514,24.547c0.248,0,0.447,0.201,0.447,0.448
			c0,0.247-0.199,0.448-0.447,0.448c-0.247,0-0.448-0.201-0.448-0.448C64.066,24.748,64.267,24.547,64.514,24.547L64.514,24.547z"/>
		<path fill-rule="evenodd" clip-rule="evenodd" fill="#D1D2D0" d="M65.78,24.547c0.247,0,0.45,0.201,0.45,0.448
			c0,0.247-0.203,0.448-0.45,0.448c-0.246,0-0.445-0.201-0.445-0.448C65.334,24.748,65.534,24.547,65.78,24.547L65.78,24.547z"/>
		<path fill-rule="evenodd" clip-rule="evenodd" fill="#D1D2D0" d="M67.048,24.547c0.246,0,0.445,0.201,0.445,0.448
			c0,0.247-0.199,0.448-0.445,0.448c-0.248,0-0.45-0.201-0.45-0.448C66.598,24.748,66.8,24.547,67.048,24.547L67.048,24.547z"/>
		<path fill-rule="evenodd" clip-rule="evenodd" fill="#D1D2D0" d="M68.312,24.547c0.249,0,0.45,0.201,0.45,0.448
			c0,0.247-0.201,0.448-0.45,0.448c-0.246,0-0.445-0.201-0.445-0.448C67.867,24.748,68.066,24.547,68.312,24.547L68.312,24.547z"/>
		<path fill-rule="evenodd" clip-rule="evenodd" fill="#D1D2D0" d="M69.581,24.547c0.247,0,0.448,0.201,0.448,0.448
			c0,0.247-0.201,0.448-0.448,0.448c-0.245,0-0.45-0.201-0.45-0.448C69.13,24.748,69.335,24.547,69.581,24.547L69.581,24.547z"/>
		<path fill-rule="evenodd" clip-rule="evenodd" fill="#D1D2D0" d="M70.847,24.547c0.246,0,0.448,0.201,0.448,0.448
			c0,0.247-0.202,0.448-0.448,0.448S70.4,25.242,70.4,24.996C70.4,24.748,70.601,24.547,70.847,24.547L70.847,24.547z"/>
		<path fill-rule="evenodd" clip-rule="evenodd" fill="#D1D2D0" d="M72.113,24.547c0.245,0,0.447,0.201,0.447,0.448
			c0,0.247-0.202,0.448-0.447,0.448s-0.447-0.201-0.447-0.448C71.666,24.748,71.868,24.547,72.113,24.547L72.113,24.547z"/>
		<path fill-rule="evenodd" clip-rule="evenodd" fill="#D1D2D0" d="M73.379,24.547c0.247,0,0.448,0.201,0.448,0.448
			c0,0.247-0.201,0.448-0.448,0.448s-0.447-0.201-0.447-0.448C72.932,24.748,73.132,24.547,73.379,24.547L73.379,24.547z"/>
		<path fill-rule="evenodd" clip-rule="evenodd" fill="#D1D2D0" d="M74.645,24.547c0.25,0,0.45,0.201,0.45,0.448
			c0,0.247-0.2,0.448-0.45,0.448c-0.246,0-0.447-0.201-0.447-0.448C74.198,24.748,74.399,24.547,74.645,24.547L74.645,24.547z"/>
		<path fill-rule="evenodd" clip-rule="evenodd" fill="#D1D2D0" d="M75.915,24.547c0.246,0,0.447,0.201,0.447,0.448
			c0,0.247-0.201,0.448-0.447,0.448c-0.247,0-0.45-0.201-0.45-0.448C75.464,24.748,75.667,24.547,75.915,24.547L75.915,24.547z"/>
		<path fill-rule="evenodd" clip-rule="evenodd" fill="#D1D2D0" d="M77.178,24.547c0.249,0,0.449,0.201,0.449,0.448
			c0,0.247-0.2,0.448-0.449,0.448c-0.247,0-0.445-0.201-0.445-0.448C76.733,24.748,76.931,24.547,77.178,24.547L77.178,24.547z"/>
		<path fill-rule="evenodd" clip-rule="evenodd" fill="#D1D2D0" d="M78.448,24.547c0.243,0,0.446,0.201,0.446,0.448
			c0,0.247-0.203,0.448-0.446,0.448c-0.248,0-0.451-0.201-0.451-0.448C77.997,24.748,78.2,24.547,78.448,24.547L78.448,24.547z"/>
		<path fill-rule="evenodd" clip-rule="evenodd" fill="#D1D2D0" d="M79.712,24.547c0.245,0,0.448,0.201,0.448,0.448
			c0,0.247-0.203,0.448-0.448,0.448c-0.246,0-0.447-0.201-0.447-0.448C79.265,24.748,79.466,24.547,79.712,24.547L79.712,24.547z"/>
		<path fill-rule="evenodd" clip-rule="evenodd" fill="#D1D2D0" d="M61.521,25.944c0.247,0,0.448,0.2,0.448,0.448
			c0,0.247-0.201,0.447-0.448,0.447c-0.246,0-0.449-0.2-0.449-0.447C61.072,26.144,61.275,25.944,61.521,25.944L61.521,25.944z"/>
		<path fill-rule="evenodd" clip-rule="evenodd" fill="#D1D2D0" d="M62.788,25.944c0.246,0,0.448,0.2,0.448,0.448
			c0,0.247-0.202,0.447-0.448,0.447s-0.447-0.2-0.447-0.447C62.34,26.144,62.542,25.944,62.788,25.944L62.788,25.944z"/>
		<path fill-rule="evenodd" clip-rule="evenodd" fill="#D1D2D0" d="M64.056,25.944c0.245,0,0.445,0.2,0.445,0.448
			c0,0.247-0.2,0.447-0.445,0.447c-0.246,0-0.449-0.2-0.449-0.447C63.607,26.144,63.81,25.944,64.056,25.944L64.056,25.944z"/>
		<path fill-rule="evenodd" clip-rule="evenodd" fill="#D1D2D0" d="M65.321,25.944c0.246,0,0.447,0.2,0.447,0.448
			c0,0.247-0.201,0.447-0.447,0.447c-0.245,0-0.447-0.2-0.447-0.447C64.874,26.144,65.076,25.944,65.321,25.944L65.321,25.944z"/>
		<path fill-rule="evenodd" clip-rule="evenodd" fill="#D1D2D0" d="M66.588,25.944c0.245,0,0.448,0.2,0.448,0.448
			c0,0.247-0.203,0.447-0.448,0.447c-0.248,0-0.447-0.2-0.447-0.447C66.141,26.144,66.34,25.944,66.588,25.944L66.588,25.944z"/>
		<path fill-rule="evenodd" clip-rule="evenodd" fill="#D1D2D0" d="M67.856,25.944c0.246,0,0.447,0.2,0.447,0.448
			c0,0.247-0.201,0.447-0.447,0.447c-0.247,0-0.45-0.2-0.45-0.447C67.406,26.144,67.609,25.944,67.856,25.944L67.856,25.944z"/>
		<path fill-rule="evenodd" clip-rule="evenodd" fill="#D1D2D0" d="M69.122,25.944c0.246,0,0.448,0.2,0.448,0.448
			c0,0.247-0.202,0.447-0.448,0.447c-0.249,0-0.448-0.2-0.448-0.447C68.673,26.144,68.873,25.944,69.122,25.944L69.122,25.944z"/>
		<path fill-rule="evenodd" clip-rule="evenodd" fill="#D1D2D0" d="M70.389,25.944c0.247,0,0.445,0.2,0.445,0.448
			c0,0.247-0.198,0.447-0.445,0.447s-0.45-0.2-0.45-0.447C69.939,26.144,70.142,25.944,70.389,25.944L70.389,25.944z"/>
		<path fill-rule="evenodd" clip-rule="evenodd" fill="#D1D2D0" d="M71.655,25.944c0.245,0,0.446,0.2,0.446,0.448
			c0,0.247-0.201,0.447-0.446,0.447c-0.248,0-0.448-0.2-0.448-0.447C71.207,26.144,71.407,25.944,71.655,25.944L71.655,25.944z"/>
		<path fill-rule="evenodd" clip-rule="evenodd" fill="#D1D2D0" d="M72.92,25.944c0.246,0,0.446,0.2,0.446,0.448
			c0,0.247-0.2,0.447-0.446,0.447s-0.448-0.2-0.448-0.447C72.472,26.144,72.674,25.944,72.92,25.944L72.92,25.944z"/>
		<path fill-rule="evenodd" clip-rule="evenodd" fill="#D1D2D0" d="M74.186,25.944c0.246,0,0.448,0.2,0.448,0.448
			c0,0.247-0.202,0.447-0.448,0.447c-0.247,0-0.447-0.2-0.447-0.447C73.739,26.144,73.939,25.944,74.186,25.944L74.186,25.944z"/>
		<path fill-rule="evenodd" clip-rule="evenodd" fill="#D1D2D0" d="M75.452,25.944c0.248,0,0.45,0.2,0.45,0.448
			c0,0.247-0.202,0.447-0.45,0.447c-0.243,0-0.446-0.2-0.446-0.447C75.005,26.144,75.208,25.944,75.452,25.944L75.452,25.944z"/>
		<path fill-rule="evenodd" clip-rule="evenodd" fill="#D1D2D0" d="M76.721,25.944c0.246,0,0.445,0.2,0.445,0.448
			c0,0.247-0.199,0.447-0.445,0.447c-0.249,0-0.45-0.2-0.45-0.447C76.271,26.144,76.472,25.944,76.721,25.944L76.721,25.944z"/>
		<path fill-rule="evenodd" clip-rule="evenodd" fill="#D1D2D0" d="M77.988,25.944c0.246,0,0.447,0.2,0.447,0.448
			c0,0.247-0.201,0.447-0.447,0.447c-0.247,0-0.45-0.2-0.45-0.447C77.538,26.144,77.741,25.944,77.988,25.944L77.988,25.944z"/>
		<path fill-rule="evenodd" clip-rule="evenodd" fill="#D1D2D0" d="M79.254,25.944c0.246,0,0.447,0.2,0.447,0.448
			c0,0.247-0.201,0.447-0.447,0.447c-0.247,0-0.448-0.2-0.448-0.447C78.806,26.144,79.007,25.944,79.254,25.944L79.254,25.944z"/>
		<path fill-rule="evenodd" clip-rule="evenodd" fill="#D1D2D0" d="M80.489,25.944c0.247,0,0.447,0.2,0.447,0.448
			c0,0.247-0.2,0.447-0.447,0.447s-0.449-0.2-0.449-0.447C80.04,26.144,80.242,25.944,80.489,25.944L80.489,25.944z"/>
		<path fill-rule="evenodd" clip-rule="evenodd" fill="#D1D2D0" d="M62.124,28.622c0.247,0,0.448,0.201,0.448,0.449
			c0,0.247-0.201,0.445-0.448,0.445s-0.447-0.198-0.447-0.445C61.676,28.823,61.876,28.622,62.124,28.622L62.124,28.622z"/>
		<path fill-rule="evenodd" clip-rule="evenodd" fill="#D1D2D0" d="M63.363,28.622c0.246,0,0.448,0.201,0.448,0.449
			c0,0.247-0.202,0.445-0.448,0.445c-0.247,0-0.449-0.198-0.449-0.445C62.914,28.823,63.116,28.622,63.363,28.622L63.363,28.622z"/>
		<path fill-rule="evenodd" clip-rule="evenodd" fill="#D1D2D0" d="M78.533,28.622c0.244,0,0.447,0.201,0.447,0.449
			c0,0.247-0.203,0.445-0.447,0.445c-0.248,0-0.448-0.198-0.448-0.445C78.084,28.823,78.285,28.622,78.533,28.622L78.533,28.622z"/>
		<path fill-rule="evenodd" clip-rule="evenodd" fill="#D1D2D0" d="M79.855,28.622c0.248,0,0.449,0.201,0.449,0.449
			c0,0.247-0.201,0.445-0.449,0.445c-0.247,0-0.446-0.198-0.446-0.445C79.409,28.823,79.608,28.622,79.855,28.622L79.855,28.622z"/>
		<path fill-rule="evenodd" clip-rule="evenodd" fill="#D1D2D0" d="M62.641,29.962c0.245,0,0.445,0.2,0.445,0.448
			c0,0.247-0.2,0.447-0.445,0.447c-0.246,0-0.447-0.2-0.447-0.447C62.194,30.162,62.395,29.962,62.641,29.962L62.641,29.962z"/>
		<path fill-rule="evenodd" clip-rule="evenodd" fill="#D1D2D0" d="M63.735,29.962c0.247,0,0.447,0.2,0.447,0.448
			c0,0.247-0.2,0.447-0.447,0.447c-0.246,0-0.448-0.2-0.448-0.447C63.287,30.162,63.489,29.962,63.735,29.962L63.735,29.962z"/>
		<path fill-rule="evenodd" clip-rule="evenodd" fill="#D1D2D0" d="M78.246,29.962c0.246,0,0.447,0.2,0.447,0.448
			c0,0.247-0.201,0.447-0.447,0.447c-0.247,0-0.449-0.2-0.449-0.447C77.796,30.162,77.999,29.962,78.246,29.962L78.246,29.962z"/>
		<path fill-rule="evenodd" clip-rule="evenodd" fill="#D1D2D0" d="M79.424,29.962c0.247,0,0.449,0.2,0.449,0.448
			c0,0.247-0.202,0.447-0.449,0.447c-0.246,0-0.446-0.2-0.446-0.447C78.978,30.162,79.178,29.962,79.424,29.962L79.424,29.962z"/>
		<path fill-rule="evenodd" clip-rule="evenodd" fill="#D1D2D0" d="M63.217,31.302c0.247,0,0.45,0.201,0.45,0.448
			c0,0.244-0.203,0.446-0.45,0.446s-0.447-0.203-0.447-0.446C62.77,31.502,62.97,31.302,63.217,31.302L63.217,31.302z"/>
		<path fill-rule="evenodd" clip-rule="evenodd" fill="#D1D2D0" d="M64.428,31.302c0.244,0,0.448,0.201,0.448,0.448
			c0,0.244-0.204,0.446-0.448,0.446c-0.247,0-0.448-0.203-0.448-0.446C63.98,31.502,64.181,31.302,64.428,31.302L64.428,31.302z"/>
		<path fill-rule="evenodd" clip-rule="evenodd" fill="#D1D2D0" d="M77.814,31.302c0.248,0,0.448,0.201,0.448,0.448
			c0,0.244-0.2,0.446-0.448,0.446c-0.246,0-0.446-0.203-0.446-0.446C77.368,31.502,77.568,31.302,77.814,31.302L77.814,31.302z"/>
		<path fill-rule="evenodd" clip-rule="evenodd" fill="#D1D2D0" d="M78.91,31.302c0.246,0,0.448,0.201,0.448,0.448
			c0,0.244-0.202,0.446-0.448,0.446c-0.249,0-0.448-0.203-0.448-0.446C78.461,31.502,78.661,31.302,78.91,31.302L78.91,31.302z"/>
		<path fill-rule="evenodd" clip-rule="evenodd" fill="#D1D2D0" d="M63.936,32.642c0.246,0,0.446,0.198,0.446,0.445
			c0,0.248-0.2,0.45-0.446,0.45c-0.247,0-0.447-0.202-0.447-0.45C63.489,32.839,63.689,32.642,63.936,32.642L63.936,32.642z"/>
		<path fill-rule="evenodd" clip-rule="evenodd" fill="#D1D2D0" d="M64.917,32.642c0.245,0,0.445,0.198,0.445,0.445
			c0,0.248-0.2,0.45-0.445,0.45c-0.247,0-0.449-0.202-0.449-0.45C64.468,32.839,64.67,32.642,64.917,32.642L64.917,32.642z"/>
		<path fill-rule="evenodd" clip-rule="evenodd" fill="#D1D2D0" d="M77.178,32.642c0.249,0,0.449,0.198,0.449,0.445
			c0,0.248-0.2,0.45-0.449,0.45c-0.247,0-0.445-0.202-0.445-0.45C76.733,32.839,76.931,32.642,77.178,32.642L77.178,32.642z"/>
		<path fill-rule="evenodd" clip-rule="evenodd" fill="#D1D2D0" d="M78.274,32.642c0.246,0,0.447,0.198,0.447,0.445
			c0,0.248-0.201,0.45-0.447,0.45c-0.248,0-0.45-0.202-0.45-0.45C77.824,32.839,78.026,32.642,78.274,32.642L78.274,32.642z"/>
		<path fill-rule="evenodd" clip-rule="evenodd" fill="#D1D2D0" d="M64.679,33.98c0.245,0,0.447,0.201,0.447,0.444
			c0,0.249-0.202,0.45-0.447,0.45c-0.247,0-0.449-0.202-0.449-0.45C64.23,34.182,64.432,33.98,64.679,33.98L64.679,33.98z"/>
		<path fill-rule="evenodd" clip-rule="evenodd" fill="#D1D2D0" d="M65.686,33.98c0.248,0,0.45,0.201,0.45,0.444
			c0,0.249-0.202,0.45-0.45,0.45c-0.247,0-0.447-0.202-0.447-0.45C65.239,34.182,65.439,33.98,65.686,33.98L65.686,33.98z"/>
		<path fill-rule="evenodd" clip-rule="evenodd" fill="#D1D2D0" d="M76.436,33.98c0.246,0,0.447,0.201,0.447,0.444
			c0,0.249-0.201,0.45-0.447,0.45c-0.245,0-0.447-0.202-0.447-0.45C75.989,34.182,76.191,33.98,76.436,33.98L76.436,33.98z"/>
		<path fill-rule="evenodd" clip-rule="evenodd" fill="#D1D2D0" d="M77.531,33.98c0.248,0,0.449,0.201,0.449,0.444
			c0,0.249-0.201,0.45-0.449,0.45c-0.247,0-0.447-0.202-0.447-0.45C77.083,34.182,77.284,33.98,77.531,33.98L77.531,33.98z"/>
		<path fill-rule="evenodd" clip-rule="evenodd" fill="#D1D2D0" d="M65.484,35.319c0.244,0,0.448,0.199,0.448,0.446
			c0,0.248-0.204,0.448-0.448,0.448c-0.249,0-0.449-0.2-0.449-0.448C65.035,35.518,65.235,35.319,65.484,35.319L65.484,35.319z"/>
		<path fill-rule="evenodd" clip-rule="evenodd" fill="#D1D2D0" d="M66.49,35.319c0.248,0,0.447,0.199,0.447,0.446
			c0,0.248-0.199,0.448-0.447,0.448c-0.247,0-0.446-0.2-0.446-0.448C66.043,35.518,66.243,35.319,66.49,35.319L66.49,35.319z"/>
		<path fill-rule="evenodd" clip-rule="evenodd" fill="#D1D2D0" d="M75.663,35.319c0.245,0,0.447,0.199,0.447,0.446
			c0,0.248-0.202,0.448-0.447,0.448c-0.249,0-0.448-0.2-0.448-0.448C75.214,35.518,75.414,35.319,75.663,35.319L75.663,35.319z"/>
		<path fill-rule="evenodd" clip-rule="evenodd" fill="#D1D2D0" d="M76.728,35.319c0.246,0,0.447,0.199,0.447,0.446
			c0,0.248-0.201,0.448-0.447,0.448c-0.248,0-0.45-0.2-0.45-0.448C76.278,35.518,76.48,35.319,76.728,35.319L76.728,35.319z"/>
		<path fill-rule="evenodd" clip-rule="evenodd" fill="#D1D2D0" d="M66.316,36.658c0.245,0,0.447,0.2,0.447,0.448
			c0,0.246-0.202,0.447-0.447,0.447c-0.247,0-0.448-0.202-0.448-0.447C65.868,36.858,66.069,36.658,66.316,36.658L66.316,36.658z"/>
		<path fill-rule="evenodd" clip-rule="evenodd" fill="#D1D2D0" d="M67.351,36.658c0.247,0,0.449,0.2,0.449,0.448
			c0,0.246-0.202,0.447-0.449,0.447c-0.248,0-0.448-0.202-0.448-0.447C66.903,36.858,67.103,36.658,67.351,36.658L67.351,36.658z"/>
		<path fill-rule="evenodd" clip-rule="evenodd" fill="#D1D2D0" d="M74.859,36.658c0.246,0,0.445,0.2,0.445,0.448
			c0,0.246-0.199,0.447-0.445,0.447c-0.249,0-0.448-0.202-0.448-0.447C74.411,36.858,74.61,36.658,74.859,36.658L74.859,36.658z"/>
		<path fill-rule="evenodd" clip-rule="evenodd" fill="#D1D2D0" d="M75.924,36.658c0.247,0,0.446,0.2,0.446,0.448
			c0,0.246-0.199,0.447-0.446,0.447s-0.448-0.202-0.448-0.447C75.476,36.858,75.677,36.658,75.924,36.658L75.924,36.658z"/>
		<path fill-rule="evenodd" clip-rule="evenodd" fill="#D1D2D0" d="M67.205,37.997c0.248,0,0.447,0.202,0.447,0.447
			c0,0.247-0.199,0.447-0.447,0.447c-0.246,0-0.449-0.2-0.449-0.447C66.755,38.199,66.958,37.997,67.205,37.997L67.205,37.997z"/>
		<path fill-rule="evenodd" clip-rule="evenodd" fill="#D1D2D0" d="M68.296,37.997c0.249,0,0.45,0.202,0.45,0.447
			c0,0.247-0.201,0.447-0.45,0.447c-0.245,0-0.445-0.2-0.445-0.447C67.851,38.199,68.051,37.997,68.296,37.997L68.296,37.997z"/>
		<path fill-rule="evenodd" clip-rule="evenodd" fill="#D1D2D0" d="M73.796,37.997c0.246,0,0.448,0.202,0.448,0.447
			c0,0.247-0.202,0.447-0.448,0.447c-0.247,0-0.449-0.2-0.449-0.447C73.347,38.199,73.549,37.997,73.796,37.997L73.796,37.997z"/>
		<path fill-rule="evenodd" clip-rule="evenodd" fill="#D1D2D0" d="M74.95,37.997c0.244,0,0.446,0.202,0.446,0.447
			c0,0.247-0.202,0.447-0.446,0.447c-0.249,0-0.449-0.2-0.449-0.447C74.5,38.199,74.701,37.997,74.95,37.997L74.95,37.997z"/>
		<path fill-rule="evenodd" clip-rule="evenodd" fill="#D1D2D0" d="M68.152,39.336c0.249,0,0.447,0.201,0.447,0.448
			s-0.198,0.448-0.447,0.448c-0.247,0-0.448-0.201-0.448-0.448S67.905,39.336,68.152,39.336L68.152,39.336z"/>
		<path fill-rule="evenodd" clip-rule="evenodd" fill="#D1D2D0" d="M69.418,39.336c0.245,0,0.446,0.201,0.446,0.448
			s-0.201,0.448-0.446,0.448c-0.247,0-0.449-0.201-0.449-0.448S69.171,39.336,69.418,39.336L69.418,39.336z"/>
		<path fill-rule="evenodd" clip-rule="evenodd" fill="#D1D2D0" d="M72.503,39.336c0.248,0,0.449,0.201,0.449,0.448
			s-0.201,0.448-0.449,0.448c-0.244,0-0.448-0.201-0.448-0.448S72.259,39.336,72.503,39.336L72.503,39.336z"/>
		<path fill-rule="evenodd" clip-rule="evenodd" fill="#D1D2D0" d="M73.77,39.336c0.248,0,0.449,0.201,0.449,0.448
			s-0.201,0.448-0.449,0.448c-0.247,0-0.445-0.201-0.445-0.448S73.523,39.336,73.77,39.336L73.77,39.336z"/>
		<path fill-rule="evenodd" clip-rule="evenodd" fill="#D1D2D0" d="M69.323,40.673c0.247,0,0.447,0.203,0.447,0.451
			c0,0.246-0.2,0.447-0.447,0.447c-0.246,0-0.45-0.201-0.45-0.447C68.873,40.876,69.077,40.673,69.323,40.673L69.323,40.673z"/>
		<path fill-rule="evenodd" clip-rule="evenodd" fill="#D1D2D0" d="M70.875,40.673c0.248,0,0.449,0.203,0.449,0.451
			c0,0.246-0.201,0.447-0.449,0.447c-0.245,0-0.447-0.201-0.447-0.447C70.428,40.876,70.63,40.673,70.875,40.673L70.875,40.673z"/>
		<path fill-rule="evenodd" clip-rule="evenodd" fill="#D1D2D0" d="M72.429,40.673c0.247,0,0.447,0.203,0.447,0.451
			c0,0.246-0.2,0.447-0.447,0.447c-0.246,0-0.449-0.201-0.449-0.447C71.98,40.876,72.183,40.673,72.429,40.673L72.429,40.673z"/>
		<path fill-rule="evenodd" clip-rule="evenodd" fill="#D1D2D0" d="M70.847,42.015c0.246,0,0.448,0.199,0.448,0.447
			c0,0.247-0.202,0.448-0.448,0.448S70.4,42.709,70.4,42.462C70.4,42.213,70.601,42.015,70.847,42.015L70.847,42.015z"/>
		<path fill-rule="evenodd" clip-rule="evenodd" fill="#D1D2D0" d="M61.75,27.293c0.247,0,0.448,0.201,0.448,0.448
			s-0.201,0.447-0.448,0.447c-0.245,0-0.444-0.2-0.444-0.447S61.504,27.293,61.75,27.293L61.75,27.293z"/>
		<path fill-rule="evenodd" clip-rule="evenodd" fill="#D1D2D0" d="M63.277,27.293c0.244,0,0.446,0.201,0.446,0.448
			s-0.202,0.447-0.446,0.447c-0.246,0-0.45-0.2-0.45-0.447S63.031,27.293,63.277,27.293L63.277,27.293z"/>
		<path fill-rule="evenodd" clip-rule="evenodd" fill="#D1D2D0" d="M78.651,27.293c0.245,0,0.448,0.201,0.448,0.448
			s-0.203,0.447-0.448,0.447c-0.247,0-0.449-0.2-0.449-0.447S78.404,27.293,78.651,27.293L78.651,27.293z"/>
		<path fill-rule="evenodd" clip-rule="evenodd" fill="#D1D2D0" d="M80.17,27.293c0.248,0,0.449,0.201,0.449,0.448
			s-0.201,0.447-0.449,0.447c-0.246,0-0.446-0.2-0.446-0.447S79.924,27.293,80.17,27.293L80.17,27.293z"/>
	</g>
	<g>
		<path fill="#C6C22F" d="M96.514,42.722v-1.112h-0.423v-0.193h1.067v0.193h-0.426v1.112H96.514L96.514,42.722z M97.304,42.722
			v-1.306h0.318l0.333,1.04l0.315-1.04h0.315v1.306h-0.198v-1.098l-0.338,1.098h-0.197l-0.35-1.112v1.112H97.304L97.304,42.722z"/>
		<path fill-rule="evenodd" clip-rule="evenodd" fill="#C6C22F" d="M76.885,44.76c0,0.256-0.009,0.546-0.021,0.743h0.396
			l0.019-0.475h0.016c0.188,0.381,0.479,0.542,0.843,0.542c0.562,0,1.131-0.512,1.131-1.54c0.003-0.873-0.44-1.467-1.062-1.467
			c-0.406,0-0.697,0.208-0.857,0.527h-0.01v-1.804h-0.453V44.76L76.885,44.76z M77.338,43.832c0-0.084,0.015-0.153,0.025-0.214
			c0.095-0.396,0.384-0.64,0.696-0.64c0.488,0,0.749,0.493,0.749,1.069c0,0.661-0.285,1.105-0.764,1.105
			c-0.334,0-0.598-0.249-0.688-0.612c-0.01-0.06-0.02-0.124-0.02-0.19V43.832L77.338,43.832z M79.475,42.627l0.929,2.648
			c0.021,0.066,0.031,0.106,0.031,0.139c0,0.028-0.014,0.07-0.035,0.126c-0.104,0.268-0.262,0.469-0.386,0.582
			c-0.135,0.129-0.284,0.212-0.398,0.254l0.114,0.439c0.114-0.021,0.337-0.11,0.562-0.337c0.311-0.308,0.535-0.814,0.862-1.801
			l0.687-2.05h-0.483l-0.501,1.688c-0.06,0.207-0.114,0.428-0.16,0.598h-0.01c-0.042-0.169-0.105-0.396-0.163-0.585l-0.551-1.701
			H79.475L79.475,42.627z M83.894,42.116c0.15,0,0.254-0.142,0.254-0.304c0-0.17-0.109-0.301-0.254-0.301s-0.267,0.136-0.267,0.301
			c0,0.163,0.109,0.304,0.262,0.304H83.894L83.894,42.116z M84.856,42.116c0.15,0,0.254-0.142,0.254-0.304
			c0-0.17-0.109-0.301-0.254-0.301c-0.146,0-0.261,0.136-0.261,0.301c0,0.163,0.104,0.304,0.256,0.304H84.856L84.856,42.116z
			 M85.379,44.16c0.007-0.054,0.017-0.138,0.017-0.244c0-0.528-0.22-1.354-1.04-1.354c-0.732,0-1.179,0.683-1.179,1.55
			c0,0.868,0.459,1.457,1.235,1.457c0.401,0,0.676-0.103,0.837-0.188l-0.076-0.372c-0.173,0.085-0.368,0.15-0.697,0.15
			c-0.457,0-0.853-0.293-0.862-1H85.379L85.379,44.16z M83.619,43.786c0.036-0.361,0.239-0.85,0.701-0.85
			c0.515,0,0.641,0.518,0.635,0.85H83.619L83.619,43.786z M86.416,41.286h-0.453v4.217h0.453v-1.083l0.234-0.294l0.867,1.377h0.557
			l-1.107-1.692l0.973-1.183h-0.551l-0.738,0.991c-0.074,0.103-0.161,0.228-0.224,0.329h-0.011V41.286L86.416,41.286z
			 M90.119,45.002c-0.131,0.068-0.303,0.144-0.563,0.144c-0.499,0-0.873-0.41-0.873-1.076c0-0.6,0.311-1.087,0.889-1.087
			c0.25,0,0.421,0.064,0.53,0.137l0.104-0.403c-0.122-0.072-0.363-0.148-0.634-0.148c-0.822,0-1.352,0.64-1.352,1.527
			c0,0.881,0.494,1.474,1.252,1.474c0.338,0,0.604-0.103,0.724-0.175L90.119,45.002L90.119,45.002z M91.765,42.562
			c-0.696,0-1.248,0.562-1.248,1.527c0,0.91,0.526,1.48,1.206,1.48c0.608,0,1.254-0.463,1.254-1.526
			C92.977,43.162,92.488,42.562,91.765,42.562L91.765,42.562z M91.754,42.956c0.54,0,0.754,0.617,0.754,1.102
			c0,0.65-0.328,1.12-0.764,1.12c-0.447,0-0.765-0.478-0.765-1.106C90.98,43.522,91.212,42.956,91.754,42.956L91.754,42.956z
			 M93.379,45.366c0.174,0.118,0.431,0.203,0.705,0.203c0.598,0,0.94-0.364,0.94-0.87c0-0.425-0.223-0.677-0.663-0.867
			c-0.325-0.141-0.478-0.25-0.478-0.484c0-0.217,0.152-0.392,0.422-0.392c0.235,0,0.417,0.091,0.517,0.164l0.114-0.381
			c-0.141-0.095-0.362-0.177-0.618-0.177c-0.541,0-0.869,0.378-0.869,0.845c0,0.341,0.214,0.629,0.666,0.811
			c0.338,0.145,0.466,0.282,0.466,0.531c0,0.236-0.156,0.428-0.485,0.428c-0.229,0-0.469-0.106-0.605-0.212L93.379,45.366
			L93.379,45.366z"/>
	</g>
	<path fill-rule="evenodd" clip-rule="evenodd" fill="#C6C22F" d="M58.312,34.228c0.023-0.203,0.067-0.518,0.067-0.924
		c0-2.007-0.948-5.14-4.512-5.14c-3.181,0-5.12,2.593-5.12,5.886c0,3.291,2.007,5.528,5.369,5.528c1.735,0,2.932-0.386,3.631-0.703
		l-0.339-1.421c-0.744,0.317-1.601,0.564-3.021,0.564c-1.986,0-3.7-1.104-3.744-3.791H58.312L58.312,34.228z M50.666,32.809
		c0.158-1.376,1.038-3.227,3.044-3.227c2.234,0,2.774,1.963,2.754,3.227H50.666L50.666,32.809z"/>
	<path fill="#C6C22F" d="M55.517,26.469c0.655,0,1.105-0.354,1.105-0.752c0-0.426-0.473-0.751-1.105-0.751
		c-0.63,0-1.127,0.34-1.127,0.751c0,0.398,0.451,0.752,1.105,0.752H55.517L55.517,26.469z"/>
	<path fill="#C6C22F" d="M51.346,26.469c0.653,0,1.105-0.354,1.105-0.752c0-0.426-0.475-0.751-1.105-0.751
		c-0.632,0-1.152,0.34-1.152,0.751c0,0.398,0.477,0.752,1.129,0.752H51.346L51.346,26.469z"/>
	<path fill="#FFFFFF" d="M108.492,28.1v-2.143h-0.814v-0.371h2.053v0.371h-0.819V28.1H108.492L108.492,28.1z M110.011,28.1v-2.513
		h0.616l0.636,2.005l0.612-2.005h0.604V28.1h-0.381v-2.11l-0.648,2.11h-0.377l-0.676-2.143V28.1H110.011L110.011,28.1z"/>
	<path fill-rule="evenodd" clip-rule="evenodd" fill="#FFFFFF" d="M77.013,23.268c-0.807,0.385-1.494,0.834-1.891,1.587v1.057
		h-1.658v1.509h1.658v8.496c0,1.305,0.223,2.279,0.75,2.893c0.478,0.551,1.187,0.821,2.098,0.843
		c0.76-0.022,1.329-0.111,1.709-0.272l-0.088-1.507c-0.25,0.089-0.626,0.14-1.123,0.133c-1.008-0.01-1.455-0.728-1.455-2.141v-8.445
		h2.782v-1.509h-2.782V23.268L77.013,23.268z"/>
	<path fill-rule="evenodd" clip-rule="evenodd" fill="#FFFFFF" d="M97.196,32.67c0-0.577-0.052-1.13-0.16-1.664
		c-0.114-0.529-0.325-1.004-0.632-1.434c-0.295-0.436-0.706-0.785-1.238-1.041c-0.536-0.247-1.219-0.368-2.039-0.368
		c-1.409,0.016-2.584,0.328-3.523,0.946l0.44,1.342l0,0c0.81-0.532,1.741-0.81,2.796-0.824c0.557-0.015,0.999,0.064,1.321,0.234
		c0.335,0.179,0.582,0.404,0.731,0.682c0.157,0.261,0.271,0.533,0.334,0.824c0.027,0.305,0.042,0.581,0.042,0.825v0.224
		c-4.242,0.015-6.375,1.378-6.406,4.083c0,0.812,0.277,1.527,0.829,2.148c0.529,0.634,1.338,0.969,2.428,1.005
		c0.776-0.022,1.443-0.19,2.003-0.505c0.557-0.316,0.978-0.69,1.257-1.124h0.063l0.17,1.376h1.744
		c-0.106-0.768-0.16-1.646-0.16-2.632V32.67L97.196,32.67z M95.309,35.705c0,0.215-0.025,0.43-0.083,0.646
		c-0.15,0.47-0.447,0.886-0.88,1.249c-0.447,0.395-1.028,0.591-1.746,0.591c-0.503,0-0.922-0.159-1.26-0.48
		c-0.366-0.303-0.548-0.785-0.548-1.435c0-0.545,0.139-0.983,0.42-1.315c0.279-0.319,0.632-0.573,1.055-0.756
		c0.457-0.188,0.95-0.312,1.474-0.369c0.516-0.06,1.038-0.074,1.568-0.044V35.705L95.309,35.705z"/>
	<path fill-rule="evenodd" clip-rule="evenodd" fill="#FFFFFF" d="M99.267,45.341c0.771-0.266,1.553-1.033,1.916-1.573v-5.895h0.041
		c0.699,1.107,1.781,1.671,3.254,1.693c1.291,0,2.407-0.491,3.336-1.473c0.947-0.976,1.434-2.44,1.462-4.39
		c-0.013-1.692-0.433-3.033-1.258-4.022c-0.831-0.997-1.907-1.503-3.229-1.518c-1.72,0.015-2.964,0.721-3.737,2.112h-0.042
		l-0.11-1.862h-1.722c0.06,1.003,0.09,2.19,0.09,3.554V45.341L99.267,45.341z M101.183,32.985c0-0.257,0.033-0.529,0.104-0.814
		c0.222-0.764,0.602-1.359,1.135-1.792c0.526-0.435,1.123-0.654,1.789-0.654c1.04,0.016,1.817,0.415,2.341,1.194
		c0.523,0.774,0.788,1.73,0.788,2.872c0,1.27-0.277,2.29-0.834,3.065c-0.548,0.779-1.339,1.171-2.38,1.171
		c-0.68,0-1.288-0.217-1.812-0.653c-0.505-0.426-0.854-0.987-1.046-1.68c-0.06-0.256-0.085-0.528-0.085-0.805V32.985L101.183,32.985
		z"/>
	<path fill="#FFFFFF" d="M82.289,39.442h1.968v-5.831c0-0.34,0.046-0.655,0.091-0.928c0.271-1.491,1.266-2.552,2.667-2.552
		c0.272,0,0.476,0.023,0.679,0.068v-1.876c-0.182-0.046-0.34-0.069-0.566-0.069c-1.333,0-2.531,0.928-3.028,2.396h-0.09
		l-0.071-2.147h-1.738c0.068,1.017,0.09,2.125,0.09,3.414V39.442L82.289,39.442z"/>
	<path fill="#C6C22F" d="M71.075,34.491c1.237,0,2.092-0.67,2.092-1.425c0-0.81-0.896-1.422-2.092-1.422
		c-1.197,0-2.139,0.642-2.139,1.422c0,0.755,0.855,1.425,2.094,1.425H71.075L71.075,34.491z"/>
	<path fill-rule="evenodd" clip-rule="evenodd" fill="#FFFFFF" d="M59.239,39.478h8.644c-0.161-0.422-0.665-1.238-1.308-1.575H61.46
		v-0.046c0.499-0.545,0.969-1.116,1.406-1.707l4.919-6.416v-1.242h-8.107v1.577h5.778v0.043c-0.479,0.559-0.946,1.14-1.405,1.733
		l-4.812,6.489V39.478L59.239,39.478z"/>
</g>
</svg>
